<ttFont>
    <TTGlyph name="A" xMin="15" yMin="0" xMax="525" yMax="700">
      <contour>
        <pt x="184" y="175" on="1"/>
        <pt x="140" y="0" on="1"/>
        <pt x="15" y="0" on="1"/>
        <pt x="195" y="700" on="1"/>
        <pt x="345" y="700" on="1"/>
        <pt x="525" y="0" on="1"/>
        <pt x="400" y="0" on="1"/>
        <pt x="356" y="175" on="1"/>
      </contour>
      <contour>
        <pt x="272" y="540" on="1"/>
        <pt x="268" y="540" on="1"/>
        <pt x="200" y="255" on="1"/>
        <pt x="339" y="255" on="1"/>
      </contour>
    </TTGlyph>
    <TTGlyph name="AE" xMin="0" yMin="0" xMax="715" yMax="700">
      <contour>
        <pt x="240" y="700" on="1"/>
        <pt x="715" y="700" on="1"/>
        <pt x="715" y="620" on="1"/>
        <pt x="470" y="620" on="1"/>
        <pt x="470" y="405" on="1"/>
        <pt x="685" y="405" on="1"/>
        <pt x="685" y="325" on="1"/>
        <pt x="470" y="325" on="1"/>
        <pt x="470" y="80" on="1"/>
        <pt x="715" y="80" on="1"/>
        <pt x="715" y="0" on="1"/>
        <pt x="350" y="0" on="1"/>
        <pt x="350" y="175" on="1"/>
        <pt x="180" y="175" on="1"/>
        <pt x="119" y="0" on="1"/>
        <pt x="0" y="0" on="1"/>
      </contour>
      <contour>
        <pt x="207" y="255" on="1"/>
        <pt x="350" y="255" on="1"/>
        <pt x="350" y="620" on="1"/>
        <pt x="331" y="620" on="1"/>
      </contour>
    </TTGlyph>
    <TTGlyph name="Aacute" xMin="15" yMin="0" xMax="525" yMax="880">
      <contour>
        <pt x="230" y="750" on="1"/>
        <pt x="265" y="880" on="1"/>
        <pt x="380" y="880" on="1"/>
        <pt x="305" y="750" on="1"/>
      </contour>
      <contour>
        <pt x="184" y="175" on="1"/>
        <pt x="140" y="0" on="1"/>
        <pt x="15" y="0" on="1"/>
        <pt x="195" y="700" on="1"/>
        <pt x="345" y="700" on="1"/>
        <pt x="525" y="0" on="1"/>
        <pt x="400" y="0" on="1"/>
        <pt x="356" y="175" on="1"/>
      </contour>
      <contour>
        <pt x="272" y="540" on="1"/>
        <pt x="268" y="540" on="1"/>
        <pt x="200" y="255" on="1"/>
        <pt x="339" y="255" on="1"/>
      </contour>
    </TTGlyph>
    <TTGlyph name="Acircumflex" xMin="15" yMin="0" xMax="525" yMax="880">
      <contour>
        <pt x="138" y="750" on="1"/>
        <pt x="218" y="880" on="1"/>
        <pt x="323" y="880" on="1"/>
        <pt x="403" y="750" on="1"/>
        <pt x="326" y="750" on="1"/>
        <pt x="270" y="820" on="1"/>
        <pt x="214" y="750" on="1"/>
      </contour>
      <contour>
        <pt x="184" y="175" on="1"/>
        <pt x="140" y="0" on="1"/>
        <pt x="15" y="0" on="1"/>
        <pt x="195" y="700" on="1"/>
        <pt x="345" y="700" on="1"/>
        <pt x="525" y="0" on="1"/>
        <pt x="400" y="0" on="1"/>
        <pt x="356" y="175" on="1"/>
      </contour>
      <contour>
        <pt x="272" y="540" on="1"/>
        <pt x="268" y="540" on="1"/>
        <pt x="200" y="255" on="1"/>
        <pt x="339" y="255" on="1"/>
      </contour>
    </TTGlyph>
    <TTGlyph name="Adieresis" xMin="15" yMin="0" xMax="525" yMax="870">
      <contour>
        <pt x="245" y="870" on="1"/>
        <pt x="245" y="750" on="1"/>
        <pt x="135" y="750" on="1"/>
        <pt x="135" y="870" on="1"/>
      </contour>
      <contour>
        <pt x="405" y="870" on="1"/>
        <pt x="405" y="750" on="1"/>
        <pt x="295" y="750" on="1"/>
        <pt x="295" y="870" on="1"/>
      </contour>
      <contour>
        <pt x="184" y="175" on="1"/>
        <pt x="140" y="0" on="1"/>
        <pt x="15" y="0" on="1"/>
        <pt x="195" y="700" on="1"/>
        <pt x="345" y="700" on="1"/>
        <pt x="525" y="0" on="1"/>
        <pt x="400" y="0" on="1"/>
        <pt x="356" y="175" on="1"/>
      </contour>
      <contour>
        <pt x="272" y="540" on="1"/>
        <pt x="268" y="540" on="1"/>
        <pt x="200" y="255" on="1"/>
        <pt x="339" y="255" on="1"/>
      </contour>
    </TTGlyph>
    <TTGlyph name="Agrave" xMin="15" yMin="0" xMax="525" yMax="880">
      <contour>
        <pt x="240" y="750" on="1"/>
        <pt x="165" y="880" on="1"/>
        <pt x="280" y="880" on="1"/>
        <pt x="315" y="750" on="1"/>
      </contour>
      <contour>
        <pt x="184" y="175" on="1"/>
        <pt x="140" y="0" on="1"/>
        <pt x="15" y="0" on="1"/>
        <pt x="195" y="700" on="1"/>
        <pt x="345" y="700" on="1"/>
        <pt x="525" y="0" on="1"/>
        <pt x="400" y="0" on="1"/>
        <pt x="356" y="175" on="1"/>
      </contour>
      <contour>
        <pt x="272" y="540" on="1"/>
        <pt x="268" y="540" on="1"/>
        <pt x="200" y="255" on="1"/>
        <pt x="339" y="255" on="1"/>
      </contour>
    </TTGlyph>
    <TTGlyph name="Amacron" xMin="15" yMin="0" xMax="525" yMax="830">
      <contour>
        <pt x="150" y="830" on="1"/>
        <pt x="390" y="830" on="1"/>
        <pt x="390" y="760" on="1"/>
        <pt x="150" y="760" on="1"/>
      </contour>
      <contour>
        <pt x="184" y="175" on="1"/>
        <pt x="140" y="0" on="1"/>
        <pt x="15" y="0" on="1"/>
        <pt x="195" y="700" on="1"/>
        <pt x="345" y="700" on="1"/>
        <pt x="525" y="0" on="1"/>
        <pt x="400" y="0" on="1"/>
        <pt x="356" y="175" on="1"/>
      </contour>
      <contour>
        <pt x="272" y="540" on="1"/>
        <pt x="268" y="540" on="1"/>
        <pt x="200" y="255" on="1"/>
        <pt x="339" y="255" on="1"/>
      </contour>
    </TTGlyph>
    <TTGlyph name="Aogonek" xMin="14" yMin="-160" xMax="559" yMax="700">
      <contour>
        <pt x="183" y="175" on="1"/>
        <pt x="139" y="0" on="1"/>
        <pt x="14" y="0" on="1"/>
        <pt x="194" y="700" on="1"/>
        <pt x="344" y="700" on="1"/>
        <pt x="524" y="0" on="1"/>
        <pt x="469" y="0" on="1"/>
        <pt x="469" y="-45" on="1"/>
        <pt x="469" y="-100" on="0"/>
        <pt x="523" y="-100" on="1"/>
        <pt x="559" y="-100" on="1"/>
        <pt x="559" y="-145" on="1"/>
        <pt x="549" y="-149" on="0"/>
        <pt x="538" y="-153" on="1"/>
        <pt x="528" y="-156" on="0"/>
        <pt x="500" y="-160" on="0"/>
        <pt x="483" y="-160" on="1"/>
        <pt x="441" y="-160" on="0"/>
        <pt x="393" y="-114" on="0"/>
        <pt x="393" y="-80" on="1"/>
        <pt x="393" y="-61" on="0"/>
        <pt x="401" y="-32" on="0"/>
        <pt x="406" y="-21" on="1"/>
        <pt x="411" y="-9" on="0"/>
        <pt x="419" y="0" on="1"/>
        <pt x="399" y="0" on="1"/>
        <pt x="355" y="175" on="1"/>
      </contour>
      <contour>
        <pt x="271" y="540" on="1"/>
        <pt x="267" y="540" on="1"/>
        <pt x="199" y="255" on="1"/>
        <pt x="338" y="255" on="1"/>
      </contour>
    </TTGlyph>
    <TTGlyph name="Aring" xMin="15" yMin="0" xMax="525" yMax="895">
      <contour>
        <pt x="300" y="810" on="1"/>
        <pt x="300" y="825" on="0"/>
        <pt x="281" y="840" on="0"/>
        <pt x="270" y="840" on="1"/>
        <pt x="259" y="840" on="0"/>
        <pt x="240" y="825" on="0"/>
        <pt x="240" y="810" on="1"/>
        <pt x="240" y="795" on="0"/>
        <pt x="259" y="780" on="0"/>
        <pt x="270" y="780" on="1"/>
        <pt x="281" y="780" on="0"/>
        <pt x="300" y="795" on="0"/>
      </contour>
      <contour>
        <pt x="365" y="810" on="1"/>
        <pt x="365" y="772" on="0"/>
        <pt x="312" y="725" on="0"/>
        <pt x="270" y="725" on="1"/>
        <pt x="228" y="725" on="0"/>
        <pt x="175" y="772" on="0"/>
        <pt x="175" y="810" on="1"/>
        <pt x="175" y="848" on="0"/>
        <pt x="228" y="895" on="0"/>
        <pt x="270" y="895" on="1"/>
        <pt x="312" y="895" on="0"/>
        <pt x="365" y="848" on="0"/>
      </contour>
      <contour>
        <pt x="184" y="175" on="1"/>
        <pt x="140" y="0" on="1"/>
        <pt x="15" y="0" on="1"/>
        <pt x="195" y="700" on="1"/>
        <pt x="345" y="700" on="1"/>
        <pt x="525" y="0" on="1"/>
        <pt x="400" y="0" on="1"/>
        <pt x="356" y="175" on="1"/>
      </contour>
      <contour>
        <pt x="272" y="540" on="1"/>
        <pt x="268" y="540" on="1"/>
        <pt x="200" y="255" on="1"/>
        <pt x="339" y="255" on="1"/>
      </contour>
    </TTGlyph>
    <TTGlyph name="Atilde" xMin="15" yMin="0" xMax="525" yMax="875">
      <contour>
        <pt x="330" y="755" on="1"/>
        <pt x="330" y="795" on="0"/>
        <pt x="305" y="795" on="1"/>
        <pt x="296" y="795" on="0"/>
        <pt x="278" y="779" on="0"/>
        <pt x="257" y="761" on="0"/>
        <pt x="232" y="745" on="0"/>
        <pt x="215" y="745" on="1"/>
        <pt x="198" y="745" on="0"/>
        <pt x="170" y="757" on="0"/>
        <pt x="151" y="785" on="0"/>
        <pt x="140" y="831" on="0"/>
        <pt x="140" y="865" on="1"/>
        <pt x="200" y="865" on="1"/>
        <pt x="200" y="825" on="0"/>
        <pt x="225" y="825" on="1"/>
        <pt x="234" y="825" on="0"/>
        <pt x="252" y="841" on="0"/>
        <pt x="273" y="859" on="0"/>
        <pt x="298" y="875" on="0"/>
        <pt x="315" y="875" on="1"/>
        <pt x="349" y="875" on="0"/>
        <pt x="390" y="822" on="0"/>
        <pt x="390" y="755" on="1"/>
      </contour>
      <contour>
        <pt x="184" y="175" on="1"/>
        <pt x="140" y="0" on="1"/>
        <pt x="15" y="0" on="1"/>
        <pt x="195" y="700" on="1"/>
        <pt x="345" y="700" on="1"/>
        <pt x="525" y="0" on="1"/>
        <pt x="400" y="0" on="1"/>
        <pt x="356" y="175" on="1"/>
      </contour>
      <contour>
        <pt x="272" y="540" on="1"/>
        <pt x="268" y="540" on="1"/>
        <pt x="200" y="255" on="1"/>
        <pt x="339" y="255" on="1"/>
      </contour>
    </TTGlyph>
    <TTGlyph name="B" xMin="70" yMin="-10" xMax="495" yMax="710">
      <contour>
        <pt x="370" y="373" on="1"/>
        <pt x="430" y="352" on="0"/>
        <pt x="495" y="258" on="0"/>
        <pt x="495" y="190" on="1"/>
        <pt x="495" y="92" on="0"/>
        <pt x="380" y="-10" on="0"/>
        <pt x="245" y="-10" on="1"/>
        <pt x="188" y="-10" on="0"/>
        <pt x="108" y="-1" on="0"/>
        <pt x="70" y="10" on="1"/>
        <pt x="70" y="690" on="1"/>
        <pt x="108" y="701" on="0"/>
        <pt x="188" y="710" on="0"/>
        <pt x="245" y="710" on="1"/>
        <pt x="358" y="710" on="0"/>
        <pt x="465" y="612" on="0"/>
        <pt x="465" y="525" on="1"/>
        <pt x="465" y="480" on="0"/>
        <pt x="415" y="398" on="0"/>
        <pt x="370" y="377" on="1"/>
      </contour>
      <contour>
        <pt x="190" y="330" on="1"/>
        <pt x="190" y="65" on="1"/>
        <pt x="245" y="65" on="1"/>
        <pt x="309" y="65" on="0"/>
        <pt x="370" y="127" on="0"/>
        <pt x="370" y="195" on="1"/>
        <pt x="370" y="267" on="0"/>
        <pt x="309" y="330" on="0"/>
        <pt x="245" y="330" on="1"/>
      </contour>
      <contour>
        <pt x="235" y="405" on="1"/>
        <pt x="284" y="405" on="0"/>
        <pt x="340" y="463" on="0"/>
        <pt x="340" y="520" on="1"/>
        <pt x="340" y="577" on="0"/>
        <pt x="284" y="635" on="0"/>
        <pt x="235" y="635" on="1"/>
        <pt x="190" y="635" on="1"/>
        <pt x="190" y="405" on="1"/>
      </contour>
    </TTGlyph>
    <TTGlyph name="C" xMin="45" yMin="-10" xMax="440" yMax="710">
      <contour>
        <pt x="280" y="-10" on="1"/>
        <pt x="222" y="-10" on="0"/>
        <pt x="134" y="24" on="0"/>
        <pt x="75" y="106" on="0"/>
        <pt x="45" y="245" on="0"/>
        <pt x="45" y="350" on="1"/>
        <pt x="45" y="455" on="0"/>
        <pt x="75" y="594" on="0"/>
        <pt x="132" y="676" on="0"/>
        <pt x="216" y="710" on="0"/>
        <pt x="270" y="710" on="1"/>
        <pt x="323" y="710" on="0"/>
        <pt x="407" y="698" on="0"/>
        <pt x="430" y="690" on="1"/>
        <pt x="430" y="635" on="1"/>
        <pt x="310" y="635" on="1"/>
        <pt x="278" y="635" on="0"/>
        <pt x="225" y="609" on="0"/>
        <pt x="186" y="545" on="0"/>
        <pt x="165" y="434" on="0"/>
        <pt x="165" y="350" on="1"/>
        <pt x="165" y="266" on="0"/>
        <pt x="187" y="155" on="0"/>
        <pt x="227" y="91" on="0"/>
        <pt x="284" y="65" on="0"/>
        <pt x="320" y="65" on="1"/>
        <pt x="440" y="65" on="1"/>
        <pt x="440" y="10" on="1"/>
        <pt x="417" y="2" on="0"/>
        <pt x="333" y="-10" on="0"/>
      </contour>
    </TTGlyph>
    <TTGlyph name="Cacute" xMin="45" yMin="-10" xMax="440" yMax="880">
      <contour>
        <pt x="280" y="-10" on="1"/>
        <pt x="222" y="-10" on="0"/>
        <pt x="134" y="24" on="0"/>
        <pt x="75" y="106" on="0"/>
        <pt x="45" y="245" on="0"/>
        <pt x="45" y="350" on="1"/>
        <pt x="45" y="455" on="0"/>
        <pt x="75" y="594" on="0"/>
        <pt x="132" y="676" on="0"/>
        <pt x="216" y="710" on="0"/>
        <pt x="270" y="710" on="1"/>
        <pt x="323" y="710" on="0"/>
        <pt x="407" y="698" on="0"/>
        <pt x="430" y="690" on="1"/>
        <pt x="430" y="635" on="1"/>
        <pt x="310" y="635" on="1"/>
        <pt x="278" y="635" on="0"/>
        <pt x="225" y="609" on="0"/>
        <pt x="186" y="545" on="0"/>
        <pt x="165" y="434" on="0"/>
        <pt x="165" y="350" on="1"/>
        <pt x="165" y="266" on="0"/>
        <pt x="187" y="155" on="0"/>
        <pt x="227" y="91" on="0"/>
        <pt x="284" y="65" on="0"/>
        <pt x="320" y="65" on="1"/>
        <pt x="440" y="65" on="1"/>
        <pt x="440" y="10" on="1"/>
        <pt x="417" y="2" on="0"/>
        <pt x="333" y="-10" on="0"/>
      </contour>
      <contour>
        <pt x="225" y="750" on="1"/>
        <pt x="260" y="880" on="1"/>
        <pt x="375" y="880" on="1"/>
        <pt x="300" y="750" on="1"/>
      </contour>
    </TTGlyph>
    <TTGlyph name="Ccaron" xMin="45" yMin="-10" xMax="440" yMax="890">
      <contour>
        <pt x="280" y="-10" on="1"/>
        <pt x="222" y="-10" on="0"/>
        <pt x="134" y="24" on="0"/>
        <pt x="75" y="106" on="0"/>
        <pt x="45" y="245" on="0"/>
        <pt x="45" y="350" on="1"/>
        <pt x="45" y="455" on="0"/>
        <pt x="75" y="594" on="0"/>
        <pt x="132" y="676" on="0"/>
        <pt x="216" y="710" on="0"/>
        <pt x="270" y="710" on="1"/>
        <pt x="323" y="710" on="0"/>
        <pt x="407" y="698" on="0"/>
        <pt x="430" y="690" on="1"/>
        <pt x="430" y="635" on="1"/>
        <pt x="310" y="635" on="1"/>
        <pt x="278" y="635" on="0"/>
        <pt x="225" y="609" on="0"/>
        <pt x="186" y="545" on="0"/>
        <pt x="165" y="434" on="0"/>
        <pt x="165" y="350" on="1"/>
        <pt x="165" y="266" on="0"/>
        <pt x="187" y="155" on="0"/>
        <pt x="227" y="91" on="0"/>
        <pt x="284" y="65" on="0"/>
        <pt x="320" y="65" on="1"/>
        <pt x="440" y="65" on="1"/>
        <pt x="440" y="10" on="1"/>
        <pt x="417" y="2" on="0"/>
        <pt x="333" y="-10" on="0"/>
      </contour>
      <contour>
        <pt x="209" y="890" on="1"/>
        <pt x="265" y="820" on="1"/>
        <pt x="321" y="890" on="1"/>
        <pt x="398" y="890" on="1"/>
        <pt x="318" y="760" on="1"/>
        <pt x="213" y="760" on="1"/>
        <pt x="133" y="890" on="1"/>
      </contour>
    </TTGlyph>
    <TTGlyph name="Ccedilla" xMin="45" yMin="-170" xMax="440" yMax="710">
      <contour>
        <pt x="275" y="-10" on="1"/>
        <pt x="275" y="-30" on="1"/>
        <pt x="290" y="-30" on="1"/>
        <pt x="335" y="-30" on="0"/>
        <pt x="380" y="-70" on="0"/>
        <pt x="380" y="-100" on="1"/>
        <pt x="380" y="-130" on="0"/>
        <pt x="329" y="-170" on="0"/>
        <pt x="280" y="-170" on="1"/>
        <pt x="261" y="-170" on="0"/>
        <pt x="233" y="-166" on="0"/>
        <pt x="224" y="-163" on="1"/>
        <pt x="213" y="-159" on="0"/>
        <pt x="205" y="-155" on="1"/>
        <pt x="205" y="-121" on="1"/>
        <pt x="270" y="-121" on="1"/>
        <pt x="293" y="-121" on="0"/>
        <pt x="305" y="-108" on="0"/>
        <pt x="305" y="-100" on="1"/>
        <pt x="305" y="-92" on="0"/>
        <pt x="294" y="-79" on="0"/>
        <pt x="275" y="-79" on="1"/>
        <pt x="220" y="-79" on="1"/>
        <pt x="220" y="-4" on="1"/>
        <pt x="177" y="4" on="0"/>
        <pt x="112" y="50" on="0"/>
        <pt x="68" y="134" on="0"/>
        <pt x="45" y="261" on="0"/>
        <pt x="45" y="350" on="1"/>
        <pt x="45" y="455" on="0"/>
        <pt x="75" y="594" on="0"/>
        <pt x="132" y="676" on="0"/>
        <pt x="216" y="710" on="0"/>
        <pt x="270" y="710" on="1"/>
        <pt x="323" y="710" on="0"/>
        <pt x="407" y="698" on="0"/>
        <pt x="430" y="690" on="1"/>
        <pt x="430" y="635" on="1"/>
        <pt x="310" y="635" on="1"/>
        <pt x="278" y="635" on="0"/>
        <pt x="225" y="609" on="0"/>
        <pt x="186" y="545" on="0"/>
        <pt x="165" y="434" on="0"/>
        <pt x="165" y="350" on="1"/>
        <pt x="165" y="266" on="0"/>
        <pt x="187" y="155" on="0"/>
        <pt x="227" y="91" on="0"/>
        <pt x="284" y="65" on="0"/>
        <pt x="320" y="65" on="1"/>
        <pt x="440" y="65" on="1"/>
        <pt x="440" y="10" on="1"/>
        <pt x="417" y="2" on="0"/>
        <pt x="338" y="-10" on="0"/>
        <pt x="285" y="-10" on="1"/>
      </contour>
    </TTGlyph>
    <TTGlyph name="D" xMin="70" yMin="-10" xMax="500" yMax="710">
      <contour>
        <pt x="500" y="350" on="1"/>
        <pt x="500" y="249" on="0"/>
        <pt x="467" y="111" on="0"/>
        <pt x="402" y="27" on="0"/>
        <pt x="307" y="-10" on="0"/>
        <pt x="245" y="-10" on="1"/>
        <pt x="188" y="-10" on="0"/>
        <pt x="108" y="-1" on="0"/>
        <pt x="70" y="10" on="1"/>
        <pt x="70" y="690" on="1"/>
        <pt x="108" y="701" on="0"/>
        <pt x="188" y="710" on="0"/>
        <pt x="245" y="710" on="1"/>
        <pt x="307" y="710" on="0"/>
        <pt x="402" y="673" on="0"/>
        <pt x="467" y="589" on="0"/>
        <pt x="500" y="451" on="0"/>
      </contour>
      <contour>
        <pt x="380" y="350" on="1"/>
        <pt x="380" y="434" on="0"/>
        <pt x="360" y="545" on="0"/>
        <pt x="325" y="609" on="0"/>
        <pt x="275" y="635" on="0"/>
        <pt x="245" y="635" on="1"/>
        <pt x="190" y="635" on="1"/>
        <pt x="190" y="65" on="1"/>
        <pt x="245" y="65" on="1"/>
        <pt x="275" y="65" on="0"/>
        <pt x="325" y="91" on="0"/>
        <pt x="360" y="155" on="0"/>
        <pt x="380" y="266" on="0"/>
      </contour>
    </TTGlyph>
    <TTGlyph name="E" xMin="70" yMin="0" xMax="435" yMax="700">
      <contour>
        <pt x="190" y="80" on="1"/>
        <pt x="435" y="80" on="1"/>
        <pt x="435" y="0" on="1"/>
        <pt x="70" y="0" on="1"/>
        <pt x="70" y="700" on="1"/>
        <pt x="435" y="700" on="1"/>
        <pt x="435" y="620" on="1"/>
        <pt x="190" y="620" on="1"/>
        <pt x="190" y="405" on="1"/>
        <pt x="405" y="405" on="1"/>
        <pt x="405" y="325" on="1"/>
        <pt x="190" y="325" on="1"/>
      </contour>
    </TTGlyph>
    <TTGlyph name="Eacute" xMin="70" yMin="0" xMax="435" yMax="880">
      <contour>
        <pt x="190" y="80" on="1"/>
        <pt x="435" y="80" on="1"/>
        <pt x="435" y="0" on="1"/>
        <pt x="70" y="0" on="1"/>
        <pt x="70" y="700" on="1"/>
        <pt x="435" y="700" on="1"/>
        <pt x="435" y="620" on="1"/>
        <pt x="190" y="620" on="1"/>
        <pt x="190" y="405" on="1"/>
        <pt x="405" y="405" on="1"/>
        <pt x="405" y="325" on="1"/>
        <pt x="190" y="325" on="1"/>
      </contour>
      <contour>
        <pt x="215" y="750" on="1"/>
        <pt x="250" y="880" on="1"/>
        <pt x="365" y="880" on="1"/>
        <pt x="290" y="750" on="1"/>
      </contour>
    </TTGlyph>
    <TTGlyph name="Ecircumflex" xMin="70" yMin="0" xMax="435" yMax="880">
      <contour>
        <pt x="190" y="80" on="1"/>
        <pt x="435" y="80" on="1"/>
        <pt x="435" y="0" on="1"/>
        <pt x="70" y="0" on="1"/>
        <pt x="70" y="700" on="1"/>
        <pt x="435" y="700" on="1"/>
        <pt x="435" y="620" on="1"/>
        <pt x="190" y="620" on="1"/>
        <pt x="190" y="405" on="1"/>
        <pt x="405" y="405" on="1"/>
        <pt x="405" y="325" on="1"/>
        <pt x="190" y="325" on="1"/>
      </contour>
      <contour>
        <pt x="120" y="750" on="1"/>
        <pt x="200" y="880" on="1"/>
        <pt x="305" y="880" on="1"/>
        <pt x="385" y="750" on="1"/>
        <pt x="308" y="750" on="1"/>
        <pt x="252" y="820" on="1"/>
        <pt x="196" y="750" on="1"/>
      </contour>
    </TTGlyph>
    <TTGlyph name="Edieresis" xMin="70" yMin="0" xMax="435" yMax="880">
      <contour>
        <pt x="190" y="80" on="1"/>
        <pt x="435" y="80" on="1"/>
        <pt x="435" y="0" on="1"/>
        <pt x="70" y="0" on="1"/>
        <pt x="70" y="700" on="1"/>
        <pt x="435" y="700" on="1"/>
        <pt x="435" y="620" on="1"/>
        <pt x="190" y="620" on="1"/>
        <pt x="190" y="405" on="1"/>
        <pt x="405" y="405" on="1"/>
        <pt x="405" y="325" on="1"/>
        <pt x="190" y="325" on="1"/>
      </contour>
      <contour>
        <pt x="225" y="880" on="1"/>
        <pt x="225" y="760" on="1"/>
        <pt x="115" y="760" on="1"/>
        <pt x="115" y="880" on="1"/>
      </contour>
      <contour>
        <pt x="385" y="880" on="1"/>
        <pt x="385" y="760" on="1"/>
        <pt x="275" y="760" on="1"/>
        <pt x="275" y="880" on="1"/>
      </contour>
    </TTGlyph>
    <TTGlyph name="Edotaccent" xMin="70" yMin="0" xMax="435" yMax="880">
      <contour>
        <pt x="190" y="80" on="1"/>
        <pt x="435" y="80" on="1"/>
        <pt x="435" y="0" on="1"/>
        <pt x="70" y="0" on="1"/>
        <pt x="70" y="700" on="1"/>
        <pt x="435" y="700" on="1"/>
        <pt x="435" y="620" on="1"/>
        <pt x="190" y="620" on="1"/>
        <pt x="190" y="405" on="1"/>
        <pt x="405" y="405" on="1"/>
        <pt x="405" y="325" on="1"/>
        <pt x="190" y="325" on="1"/>
      </contour>
      <contour>
        <pt x="315" y="880" on="1"/>
        <pt x="315" y="760" on="1"/>
        <pt x="205" y="760" on="1"/>
        <pt x="205" y="880" on="1"/>
      </contour>
    </TTGlyph>
    <TTGlyph name="Egrave" xMin="70" yMin="0" xMax="435" yMax="880">
      <contour>
        <pt x="190" y="80" on="1"/>
        <pt x="435" y="80" on="1"/>
        <pt x="435" y="0" on="1"/>
        <pt x="70" y="0" on="1"/>
        <pt x="70" y="700" on="1"/>
        <pt x="435" y="700" on="1"/>
        <pt x="435" y="620" on="1"/>
        <pt x="190" y="620" on="1"/>
        <pt x="190" y="405" on="1"/>
        <pt x="405" y="405" on="1"/>
        <pt x="405" y="325" on="1"/>
        <pt x="190" y="325" on="1"/>
      </contour>
      <contour>
        <pt x="230" y="750" on="1"/>
        <pt x="155" y="880" on="1"/>
        <pt x="270" y="880" on="1"/>
        <pt x="305" y="750" on="1"/>
      </contour>
    </TTGlyph>
    <TTGlyph name="Emacron" xMin="70" yMin="0" xMax="435" yMax="830">
      <contour>
        <pt x="190" y="80" on="1"/>
        <pt x="435" y="80" on="1"/>
        <pt x="435" y="0" on="1"/>
        <pt x="70" y="0" on="1"/>
        <pt x="70" y="700" on="1"/>
        <pt x="435" y="700" on="1"/>
        <pt x="435" y="620" on="1"/>
        <pt x="190" y="620" on="1"/>
        <pt x="190" y="405" on="1"/>
        <pt x="405" y="405" on="1"/>
        <pt x="405" y="325" on="1"/>
        <pt x="190" y="325" on="1"/>
      </contour>
      <contour>
        <pt x="135" y="830" on="1"/>
        <pt x="375" y="830" on="1"/>
        <pt x="375" y="760" on="1"/>
        <pt x="135" y="760" on="1"/>
      </contour>
    </TTGlyph>
    <TTGlyph name="Eogonek" xMin="70" yMin="-160" xMax="475" yMax="700">
      <contour>
        <pt x="70" y="0" on="1"/>
        <pt x="70" y="700" on="1"/>
        <pt x="435" y="700" on="1"/>
        <pt x="435" y="620" on="1"/>
        <pt x="190" y="620" on="1"/>
        <pt x="190" y="405" on="1"/>
        <pt x="405" y="405" on="1"/>
        <pt x="405" y="325" on="1"/>
        <pt x="190" y="325" on="1"/>
        <pt x="190" y="80" on="1"/>
        <pt x="435" y="80" on="1"/>
        <pt x="435" y="0" on="1"/>
        <pt x="385" y="0" on="1"/>
        <pt x="385" y="-45" on="1"/>
        <pt x="385" y="-100" on="0"/>
        <pt x="439" y="-100" on="1"/>
        <pt x="475" y="-100" on="1"/>
        <pt x="475" y="-145" on="1"/>
        <pt x="465" y="-149" on="0"/>
        <pt x="454" y="-153" on="1"/>
        <pt x="444" y="-156" on="0"/>
        <pt x="416" y="-160" on="0"/>
        <pt x="399" y="-160" on="1"/>
        <pt x="357" y="-160" on="0"/>
        <pt x="309" y="-114" on="0"/>
        <pt x="309" y="-80" on="1"/>
        <pt x="309" y="-61" on="0"/>
        <pt x="317" y="-32" on="0"/>
        <pt x="322" y="-21" on="1"/>
        <pt x="327" y="-9" on="0"/>
        <pt x="335" y="0" on="1"/>
      </contour>
    </TTGlyph>
    <TTGlyph name="Eth" xMin="10" yMin="-10" xMax="515" yMax="710">
      <contour>
        <pt x="10" y="395" on="1"/>
        <pt x="85" y="395" on="1"/>
        <pt x="85" y="690" on="1"/>
        <pt x="123" y="701" on="0"/>
        <pt x="203" y="710" on="0"/>
        <pt x="260" y="710" on="1"/>
        <pt x="322" y="710" on="0"/>
        <pt x="417" y="673" on="0"/>
        <pt x="482" y="589" on="0"/>
        <pt x="515" y="451" on="0"/>
        <pt x="515" y="350" on="1"/>
        <pt x="515" y="249" on="0"/>
        <pt x="482" y="111" on="0"/>
        <pt x="417" y="27" on="0"/>
        <pt x="322" y="-10" on="0"/>
        <pt x="260" y="-10" on="1"/>
        <pt x="203" y="-10" on="0"/>
        <pt x="123" y="-1" on="0"/>
        <pt x="85" y="10" on="1"/>
        <pt x="85" y="315" on="1"/>
        <pt x="10" y="315" on="1"/>
      </contour>
      <contour>
        <pt x="395" y="350" on="1"/>
        <pt x="395" y="434" on="0"/>
        <pt x="375" y="545" on="0"/>
        <pt x="340" y="609" on="0"/>
        <pt x="290" y="635" on="0"/>
        <pt x="260" y="635" on="1"/>
        <pt x="205" y="635" on="1"/>
        <pt x="205" y="395" on="1"/>
        <pt x="310" y="395" on="1"/>
        <pt x="310" y="315" on="1"/>
        <pt x="205" y="315" on="1"/>
        <pt x="205" y="65" on="1"/>
        <pt x="260" y="65" on="1"/>
        <pt x="290" y="65" on="0"/>
        <pt x="340" y="91" on="0"/>
        <pt x="375" y="155" on="0"/>
        <pt x="395" y="266" on="0"/>
      </contour>
    </TTGlyph>
    <TTGlyph name="Euro" xMin="10" yMin="-10" xMax="465" yMax="710">
      <contour>
        <pt x="305" y="-10" on="1"/>
        <pt x="255" y="-10" on="0"/>
        <pt x="176" y="14" on="0"/>
        <pt x="119" y="72" on="0"/>
        <pt x="82" y="168" on="0"/>
        <pt x="75" y="240" on="1"/>
        <pt x="10" y="240" on="1"/>
        <pt x="20" y="315" on="1"/>
        <pt x="70" y="315" on="1"/>
        <pt x="70" y="385" on="1"/>
        <pt x="10" y="385" on="1"/>
        <pt x="20" y="460" on="1"/>
        <pt x="75" y="460" on="1"/>
        <pt x="82" y="532" on="0"/>
        <pt x="118" y="628" on="0"/>
        <pt x="173" y="686" on="0"/>
        <pt x="248" y="710" on="0"/>
        <pt x="295" y="710" on="1"/>
        <pt x="348" y="710" on="0"/>
        <pt x="432" y="698" on="0"/>
        <pt x="455" y="690" on="1"/>
        <pt x="455" y="635" on="1"/>
        <pt x="335" y="635" on="1"/>
        <pt x="309" y="635" on="0"/>
        <pt x="264" y="618" on="0"/>
        <pt x="228" y="578" on="0"/>
        <pt x="203" y="511" on="0"/>
        <pt x="196" y="460" on="1"/>
        <pt x="395" y="460" on="1"/>
        <pt x="380" y="385" on="1"/>
        <pt x="190" y="385" on="1"/>
        <pt x="190" y="315" on="1"/>
        <pt x="365" y="315" on="1"/>
        <pt x="350" y="240" on="1"/>
        <pt x="196" y="240" on="1"/>
        <pt x="203" y="189" on="0"/>
        <pt x="229" y="122" on="0"/>
        <pt x="267" y="81" on="0"/>
        <pt x="316" y="65" on="0"/>
        <pt x="345" y="65" on="1"/>
        <pt x="465" y="65" on="1"/>
        <pt x="465" y="10" on="1"/>
        <pt x="442" y="2" on="0"/>
        <pt x="358" y="-10" on="0"/>
      </contour>
    </TTGlyph>
    <TTGlyph name="F" xMin="70" yMin="0" xMax="435" yMax="700">
      <contour>
        <pt x="190" y="0" on="1"/>
        <pt x="70" y="0" on="1"/>
        <pt x="70" y="700" on="1"/>
        <pt x="435" y="700" on="1"/>
        <pt x="435" y="620" on="1"/>
        <pt x="190" y="620" on="1"/>
        <pt x="190" y="390" on="1"/>
        <pt x="395" y="390" on="1"/>
        <pt x="395" y="310" on="1"/>
        <pt x="190" y="310" on="1"/>
      </contour>
    </TTGlyph>
    <TTGlyph name="G" xMin="45" yMin="-10" xMax="465" yMax="710">
      <contour>
        <pt x="465" y="10" on="1"/>
        <pt x="442" y="2" on="0"/>
        <pt x="357" y="-10" on="0"/>
        <pt x="300" y="-10" on="1"/>
        <pt x="234" y="-10" on="0"/>
        <pt x="138" y="24" on="0"/>
        <pt x="75" y="106" on="0"/>
        <pt x="45" y="245" on="0"/>
        <pt x="45" y="350" on="1"/>
        <pt x="45" y="455" on="0"/>
        <pt x="75" y="594" on="0"/>
        <pt x="134" y="676" on="0"/>
        <pt x="222" y="710" on="0"/>
        <pt x="280" y="710" on="1"/>
        <pt x="333" y="710" on="0"/>
        <pt x="417" y="698" on="0"/>
        <pt x="440" y="690" on="1"/>
        <pt x="440" y="635" on="1"/>
        <pt x="310" y="635" on="1"/>
        <pt x="278" y="635" on="0"/>
        <pt x="225" y="609" on="0"/>
        <pt x="186" y="545" on="0"/>
        <pt x="165" y="434" on="0"/>
        <pt x="165" y="350" on="1"/>
        <pt x="165" y="266" on="0"/>
        <pt x="187" y="155" on="0"/>
        <pt x="227" y="91" on="0"/>
        <pt x="284" y="65" on="0"/>
        <pt x="320" y="65" on="1"/>
        <pt x="345" y="65" on="1"/>
        <pt x="345" y="380" on="1"/>
        <pt x="465" y="380" on="1"/>
      </contour>
    </TTGlyph>
    <TTGlyph name="Gbreve" xMin="45" yMin="-10" xMax="465" yMax="885">
      <contour>
        <pt x="465" y="10" on="1"/>
        <pt x="442" y="2" on="0"/>
        <pt x="357" y="-10" on="0"/>
        <pt x="300" y="-10" on="1"/>
        <pt x="234" y="-10" on="0"/>
        <pt x="138" y="24" on="0"/>
        <pt x="75" y="106" on="0"/>
        <pt x="45" y="245" on="0"/>
        <pt x="45" y="350" on="1"/>
        <pt x="45" y="455" on="0"/>
        <pt x="75" y="594" on="0"/>
        <pt x="134" y="676" on="0"/>
        <pt x="222" y="710" on="0"/>
        <pt x="280" y="710" on="1"/>
        <pt x="333" y="710" on="0"/>
        <pt x="417" y="698" on="0"/>
        <pt x="440" y="690" on="1"/>
        <pt x="440" y="635" on="1"/>
        <pt x="310" y="635" on="1"/>
        <pt x="278" y="635" on="0"/>
        <pt x="225" y="609" on="0"/>
        <pt x="186" y="545" on="0"/>
        <pt x="165" y="434" on="0"/>
        <pt x="165" y="350" on="1"/>
        <pt x="165" y="266" on="0"/>
        <pt x="187" y="155" on="0"/>
        <pt x="227" y="91" on="0"/>
        <pt x="284" y="65" on="0"/>
        <pt x="320" y="65" on="1"/>
        <pt x="345" y="65" on="1"/>
        <pt x="345" y="380" on="1"/>
        <pt x="465" y="380" on="1"/>
      </contour>
      <contour>
        <pt x="280" y="840" on="1"/>
        <pt x="310" y="840" on="0"/>
        <pt x="360" y="870" on="0"/>
        <pt x="375" y="885" on="1"/>
        <pt x="425" y="835" on="1"/>
        <pt x="402" y="797" on="0"/>
        <pt x="329" y="755" on="0"/>
        <pt x="280" y="755" on="1"/>
        <pt x="231" y="755" on="0"/>
        <pt x="158" y="797" on="0"/>
        <pt x="135" y="835" on="1"/>
        <pt x="185" y="885" on="1"/>
        <pt x="200" y="870" on="0"/>
        <pt x="250" y="840" on="0"/>
      </contour>
    </TTGlyph>
    <TTGlyph name="Gcommaaccent" xMin="45" yMin="-220" xMax="465" yMax="710">
      <contour>
        <pt x="465" y="10" on="1"/>
        <pt x="442" y="2" on="0"/>
        <pt x="357" y="-10" on="0"/>
        <pt x="300" y="-10" on="1"/>
        <pt x="234" y="-10" on="0"/>
        <pt x="138" y="24" on="0"/>
        <pt x="75" y="106" on="0"/>
        <pt x="45" y="245" on="0"/>
        <pt x="45" y="350" on="1"/>
        <pt x="45" y="455" on="0"/>
        <pt x="75" y="594" on="0"/>
        <pt x="134" y="676" on="0"/>
        <pt x="222" y="710" on="0"/>
        <pt x="280" y="710" on="1"/>
        <pt x="333" y="710" on="0"/>
        <pt x="417" y="698" on="0"/>
        <pt x="440" y="690" on="1"/>
        <pt x="440" y="635" on="1"/>
        <pt x="310" y="635" on="1"/>
        <pt x="278" y="635" on="0"/>
        <pt x="225" y="609" on="0"/>
        <pt x="186" y="545" on="0"/>
        <pt x="165" y="434" on="0"/>
        <pt x="165" y="350" on="1"/>
        <pt x="165" y="266" on="0"/>
        <pt x="187" y="155" on="0"/>
        <pt x="227" y="91" on="0"/>
        <pt x="284" y="65" on="0"/>
        <pt x="320" y="65" on="1"/>
        <pt x="345" y="65" on="1"/>
        <pt x="345" y="380" on="1"/>
        <pt x="465" y="380" on="1"/>
      </contour>
      <contour>
        <pt x="230" y="-70" on="1"/>
        <pt x="340" y="-70" on="1"/>
        <pt x="305" y="-220" on="1"/>
        <pt x="230" y="-220" on="1"/>
      </contour>
    </TTGlyph>
    <TTGlyph name="H" xMin="70" yMin="0" xMax="490" yMax="700">
      <contour>
        <pt x="490" y="700" on="1"/>
        <pt x="490" y="0" on="1"/>
        <pt x="370" y="0" on="1"/>
        <pt x="370" y="315" on="1"/>
        <pt x="190" y="315" on="1"/>
        <pt x="190" y="0" on="1"/>
        <pt x="70" y="0" on="1"/>
        <pt x="70" y="700" on="1"/>
        <pt x="190" y="700" on="1"/>
        <pt x="190" y="395" on="1"/>
        <pt x="370" y="395" on="1"/>
        <pt x="370" y="700" on="1"/>
      </contour>
    </TTGlyph>
    <TTGlyph name="I" xMin="70" yMin="0" xMax="190" yMax="700">
      <contour>
        <pt x="190" y="700" on="1"/>
        <pt x="190" y="0" on="1"/>
        <pt x="70" y="0" on="1"/>
        <pt x="70" y="700" on="1"/>
      </contour>
    </TTGlyph>
    <TTGlyph name="Iacute" xMin="70" yMin="0" xMax="240" yMax="880">
      <contour>
        <pt x="190" y="700" on="1"/>
        <pt x="190" y="0" on="1"/>
        <pt x="70" y="0" on="1"/>
        <pt x="70" y="700" on="1"/>
      </contour>
      <contour>
        <pt x="90" y="750" on="1"/>
        <pt x="125" y="880" on="1"/>
        <pt x="240" y="880" on="1"/>
        <pt x="165" y="750" on="1"/>
      </contour>
    </TTGlyph>
    <TTGlyph name="Icircumflex" xMin="-15" yMin="0" xMax="250" yMax="880">
      <contour>
        <pt x="175" y="700" on="1"/>
        <pt x="175" y="0" on="1"/>
        <pt x="55" y="0" on="1"/>
        <pt x="55" y="700" on="1"/>
      </contour>
      <contour>
        <pt x="-15" y="750" on="1"/>
        <pt x="65" y="880" on="1"/>
        <pt x="170" y="880" on="1"/>
        <pt x="250" y="750" on="1"/>
        <pt x="173" y="750" on="1"/>
        <pt x="117" y="820" on="1"/>
        <pt x="61" y="750" on="1"/>
      </contour>
    </TTGlyph>
    <TTGlyph name="Idieresis" xMin="-10" yMin="0" xMax="260" yMax="880">
      <contour>
        <pt x="185" y="700" on="1"/>
        <pt x="185" y="0" on="1"/>
        <pt x="65" y="0" on="1"/>
        <pt x="65" y="700" on="1"/>
      </contour>
      <contour>
        <pt x="100" y="880" on="1"/>
        <pt x="100" y="760" on="1"/>
        <pt x="-10" y="760" on="1"/>
        <pt x="-10" y="880" on="1"/>
      </contour>
      <contour>
        <pt x="260" y="880" on="1"/>
        <pt x="260" y="760" on="1"/>
        <pt x="150" y="760" on="1"/>
        <pt x="150" y="880" on="1"/>
      </contour>
    </TTGlyph>
    <TTGlyph name="Idotaccent" xMin="70" yMin="0" xMax="190" yMax="880">
      <contour>
        <pt x="190" y="700" on="1"/>
        <pt x="190" y="0" on="1"/>
        <pt x="70" y="0" on="1"/>
        <pt x="70" y="700" on="1"/>
      </contour>
      <contour>
        <pt x="185" y="880" on="1"/>
        <pt x="185" y="760" on="1"/>
        <pt x="75" y="760" on="1"/>
        <pt x="75" y="880" on="1"/>
      </contour>
    </TTGlyph>
    <TTGlyph name="Igrave" xMin="15" yMin="0" xMax="185" yMax="880">
      <contour>
        <pt x="185" y="700" on="1"/>
        <pt x="185" y="0" on="1"/>
        <pt x="65" y="0" on="1"/>
        <pt x="65" y="700" on="1"/>
      </contour>
      <contour>
        <pt x="90" y="750" on="1"/>
        <pt x="15" y="880" on="1"/>
        <pt x="130" y="880" on="1"/>
        <pt x="165" y="750" on="1"/>
      </contour>
    </TTGlyph>
    <TTGlyph name="Imacron" xMin="-5" yMin="0" xMax="235" yMax="820">
      <contour>
        <pt x="55" y="700" on="1"/>
        <pt x="175" y="700" on="1"/>
        <pt x="175" y="0" on="1"/>
        <pt x="55" y="0" on="1"/>
      </contour>
      <contour>
        <pt x="-5" y="820" on="1"/>
        <pt x="235" y="820" on="1"/>
        <pt x="235" y="750" on="1"/>
        <pt x="-5" y="750" on="1"/>
      </contour>
    </TTGlyph>
    <TTGlyph name="Iogonek" xMin="50" yMin="-160" xMax="216" yMax="700">
      <contour>
        <pt x="56" y="0" on="1"/>
        <pt x="56" y="700" on="1"/>
        <pt x="176" y="700" on="1"/>
        <pt x="176" y="0" on="1"/>
        <pt x="126" y="0" on="1"/>
        <pt x="126" y="-45" on="1"/>
        <pt x="126" y="-100" on="0"/>
        <pt x="180" y="-100" on="1"/>
        <pt x="216" y="-100" on="1"/>
        <pt x="216" y="-145" on="1"/>
        <pt x="206" y="-149" on="0"/>
        <pt x="195" y="-153" on="1"/>
        <pt x="185" y="-156" on="0"/>
        <pt x="157" y="-160" on="0"/>
        <pt x="140" y="-160" on="1"/>
        <pt x="98" y="-160" on="0"/>
        <pt x="50" y="-114" on="0"/>
        <pt x="50" y="-80" on="1"/>
        <pt x="50" y="-61" on="0"/>
        <pt x="58" y="-32" on="0"/>
        <pt x="63" y="-21" on="1"/>
        <pt x="68" y="-9" on="0"/>
        <pt x="76" y="0" on="1"/>
      </contour>
    </TTGlyph>
    <TTGlyph name="Itilde" xMin="-5" yMin="0" xMax="245" yMax="876">
      <contour>
        <pt x="60" y="700" on="1"/>
        <pt x="180" y="700" on="1"/>
        <pt x="180" y="0" on="1"/>
        <pt x="60" y="0" on="1"/>
      </contour>
      <contour>
        <pt x="185" y="756" on="1"/>
        <pt x="185" y="796" on="0"/>
        <pt x="160" y="796" on="1"/>
        <pt x="151" y="796" on="0"/>
        <pt x="133" y="780" on="0"/>
        <pt x="112" y="762" on="0"/>
        <pt x="87" y="746" on="0"/>
        <pt x="70" y="746" on="1"/>
        <pt x="53" y="746" on="0"/>
        <pt x="25" y="758" on="0"/>
        <pt x="6" y="786" on="0"/>
        <pt x="-5" y="832" on="0"/>
        <pt x="-5" y="866" on="1"/>
        <pt x="55" y="866" on="1"/>
        <pt x="55" y="826" on="0"/>
        <pt x="80" y="826" on="1"/>
        <pt x="89" y="826" on="0"/>
        <pt x="107" y="842" on="0"/>
        <pt x="128" y="860" on="0"/>
        <pt x="153" y="876" on="0"/>
        <pt x="170" y="876" on="1"/>
        <pt x="204" y="876" on="0"/>
        <pt x="245" y="823" on="0"/>
        <pt x="245" y="756" on="1"/>
      </contour>
    </TTGlyph>
    <TTGlyph name="J" xMin="0" yMin="-10" xMax="315" yMax="700">
      <contour>
        <pt x="100" y="65" on="1"/>
        <pt x="121" y="65" on="0"/>
        <pt x="155" y="82" on="0"/>
        <pt x="181" y="122" on="0"/>
        <pt x="195" y="189" on="0"/>
        <pt x="195" y="240" on="1"/>
        <pt x="195" y="700" on="1"/>
        <pt x="315" y="700" on="1"/>
        <pt x="315" y="240" on="1"/>
        <pt x="315" y="105" on="0"/>
        <pt x="209" y="-10" on="0"/>
        <pt x="100" y="-10" on="1"/>
        <pt x="70" y="-10" on="0"/>
        <pt x="19" y="2" on="0"/>
        <pt x="0" y="10" on="1"/>
        <pt x="0" y="65" on="1"/>
      </contour>
    </TTGlyph>
    <TTGlyph name="Jcircumflex" xMin="0" yMin="-10" xMax="388" yMax="870">
      <contour>
        <pt x="100" y="65" on="1"/>
        <pt x="121" y="65" on="0"/>
        <pt x="155" y="82" on="0"/>
        <pt x="181" y="122" on="0"/>
        <pt x="195" y="189" on="0"/>
        <pt x="195" y="240" on="1"/>
        <pt x="195" y="700" on="1"/>
        <pt x="315" y="700" on="1"/>
        <pt x="315" y="240" on="1"/>
        <pt x="315" y="105" on="0"/>
        <pt x="209" y="-10" on="0"/>
        <pt x="100" y="-10" on="1"/>
        <pt x="70" y="-10" on="0"/>
        <pt x="19" y="2" on="0"/>
        <pt x="0" y="10" on="1"/>
        <pt x="0" y="65" on="1"/>
      </contour>
      <contour>
        <pt x="123" y="740" on="1"/>
        <pt x="203" y="870" on="1"/>
        <pt x="308" y="870" on="1"/>
        <pt x="388" y="740" on="1"/>
        <pt x="311" y="740" on="1"/>
        <pt x="255" y="810" on="1"/>
        <pt x="199" y="740" on="1"/>
      </contour>
    </TTGlyph>
    <TTGlyph name="K" xMin="70" yMin="0" xMax="510" yMax="700">
      <contour>
        <pt x="510" y="0" on="1"/>
        <pt x="375" y="0" on="1"/>
        <pt x="190" y="330" on="1"/>
        <pt x="190" y="0" on="1"/>
        <pt x="70" y="0" on="1"/>
        <pt x="70" y="700" on="1"/>
        <pt x="190" y="700" on="1"/>
        <pt x="190" y="380" on="1"/>
        <pt x="355" y="700" on="1"/>
        <pt x="490" y="700" on="1"/>
        <pt x="305" y="355" on="1"/>
      </contour>
    </TTGlyph>
    <TTGlyph name="Kcommaaccent" xMin="70" yMin="-200" xMax="510" yMax="700">
      <contour>
        <pt x="215" y="-50" on="1"/>
        <pt x="325" y="-50" on="1"/>
        <pt x="290" y="-200" on="1"/>
        <pt x="215" y="-200" on="1"/>
      </contour>
      <contour>
        <pt x="510" y="0" on="1"/>
        <pt x="375" y="0" on="1"/>
        <pt x="190" y="330" on="1"/>
        <pt x="190" y="0" on="1"/>
        <pt x="70" y="0" on="1"/>
        <pt x="70" y="700" on="1"/>
        <pt x="190" y="700" on="1"/>
        <pt x="190" y="380" on="1"/>
        <pt x="355" y="700" on="1"/>
        <pt x="490" y="700" on="1"/>
        <pt x="305" y="355" on="1"/>
      </contour>
    </TTGlyph>
    <TTGlyph name="L" xMin="70" yMin="0" xMax="435" yMax="700">
      <contour>
        <pt x="190" y="80" on="1"/>
        <pt x="435" y="80" on="1"/>
        <pt x="435" y="0" on="1"/>
        <pt x="70" y="0" on="1"/>
        <pt x="70" y="700" on="1"/>
        <pt x="190" y="700" on="1"/>
      </contour>
    </TTGlyph>
    <TTGlyph name="Lcommaaccent" xMin="70" yMin="-210" xMax="435" yMax="700">
      <contour>
        <pt x="190" y="80" on="1"/>
        <pt x="435" y="80" on="1"/>
        <pt x="435" y="0" on="1"/>
        <pt x="70" y="0" on="1"/>
        <pt x="70" y="700" on="1"/>
        <pt x="190" y="700" on="1"/>
      </contour>
      <contour>
        <pt x="205" y="-60" on="1"/>
        <pt x="315" y="-60" on="1"/>
        <pt x="280" y="-210" on="1"/>
        <pt x="205" y="-210" on="1"/>
      </contour>
    </TTGlyph>
    <TTGlyph name="Lslash" xMin="-10" yMin="0" xMax="435" yMax="700">
      <contour>
        <pt x="190" y="448" on="1"/>
        <pt x="235" y="480" on="1"/>
        <pt x="280" y="420" on="1"/>
        <pt x="190" y="355" on="1"/>
        <pt x="190" y="80" on="1"/>
        <pt x="435" y="80" on="1"/>
        <pt x="435" y="0" on="1"/>
        <pt x="70" y="0" on="1"/>
        <pt x="70" y="270" on="1"/>
        <pt x="35" y="245" on="1"/>
        <pt x="-10" y="305" on="1"/>
        <pt x="70" y="362" on="1"/>
        <pt x="70" y="700" on="1"/>
        <pt x="190" y="700" on="1"/>
      </contour>
    </TTGlyph>
    <TTGlyph name="M" xMin="50" yMin="0" xMax="710" yMax="700">
      <contour>
        <pt x="220" y="700" on="1"/>
        <pt x="378" y="225" on="1"/>
        <pt x="382" y="225" on="1"/>
        <pt x="540" y="700" on="1"/>
        <pt x="670" y="700" on="1"/>
        <pt x="710" y="0" on="1"/>
        <pt x="595" y="0" on="1"/>
        <pt x="568" y="474" on="1"/>
        <pt x="564" y="474" on="1"/>
        <pt x="435" y="85" on="1"/>
        <pt x="325" y="85" on="1"/>
        <pt x="196" y="474" on="1"/>
        <pt x="192" y="474" on="1"/>
        <pt x="165" y="0" on="1"/>
        <pt x="50" y="0" on="1"/>
        <pt x="90" y="700" on="1"/>
      </contour>
    </TTGlyph>
    <TTGlyph name="N" xMin="70" yMin="0" xMax="500" yMax="700">
      <contour>
        <pt x="190" y="460" on="1"/>
        <pt x="185" y="460" on="1"/>
        <pt x="185" y="0" on="1"/>
        <pt x="70" y="0" on="1"/>
        <pt x="70" y="700" on="1"/>
        <pt x="190" y="700" on="1"/>
        <pt x="380" y="240" on="1"/>
        <pt x="385" y="240" on="1"/>
        <pt x="385" y="700" on="1"/>
        <pt x="500" y="700" on="1"/>
        <pt x="500" y="0" on="1"/>
        <pt x="380" y="0" on="1"/>
      </contour>
    </TTGlyph>
    <TTGlyph name="Nacute" xMin="70" yMin="0" xMax="500" yMax="880">
      <contour>
        <pt x="190" y="460" on="1"/>
        <pt x="185" y="460" on="1"/>
        <pt x="185" y="0" on="1"/>
        <pt x="70" y="0" on="1"/>
        <pt x="70" y="700" on="1"/>
        <pt x="190" y="700" on="1"/>
        <pt x="380" y="240" on="1"/>
        <pt x="385" y="240" on="1"/>
        <pt x="385" y="700" on="1"/>
        <pt x="500" y="700" on="1"/>
        <pt x="500" y="0" on="1"/>
        <pt x="380" y="0" on="1"/>
      </contour>
      <contour>
        <pt x="245" y="750" on="1"/>
        <pt x="280" y="880" on="1"/>
        <pt x="395" y="880" on="1"/>
        <pt x="320" y="750" on="1"/>
      </contour>
    </TTGlyph>
    <TTGlyph name="Ncommaaccent" xMin="70" yMin="-200" xMax="500" yMax="700">
      <contour>
        <pt x="190" y="460" on="1"/>
        <pt x="185" y="460" on="1"/>
        <pt x="185" y="0" on="1"/>
        <pt x="70" y="0" on="1"/>
        <pt x="70" y="700" on="1"/>
        <pt x="190" y="700" on="1"/>
        <pt x="380" y="240" on="1"/>
        <pt x="385" y="240" on="1"/>
        <pt x="385" y="700" on="1"/>
        <pt x="500" y="700" on="1"/>
        <pt x="500" y="0" on="1"/>
        <pt x="380" y="0" on="1"/>
      </contour>
      <contour>
        <pt x="225" y="-50" on="1"/>
        <pt x="335" y="-50" on="1"/>
        <pt x="300" y="-200" on="1"/>
        <pt x="225" y="-200" on="1"/>
      </contour>
    </TTGlyph>
    <TTGlyph name="Ntilde" xMin="70" yMin="0" xMax="500" yMax="875">
      <contour>
        <pt x="190" y="460" on="1"/>
        <pt x="185" y="460" on="1"/>
        <pt x="185" y="0" on="1"/>
        <pt x="70" y="0" on="1"/>
        <pt x="70" y="700" on="1"/>
        <pt x="190" y="700" on="1"/>
        <pt x="380" y="240" on="1"/>
        <pt x="385" y="240" on="1"/>
        <pt x="385" y="700" on="1"/>
        <pt x="500" y="700" on="1"/>
        <pt x="500" y="0" on="1"/>
        <pt x="380" y="0" on="1"/>
      </contour>
      <contour>
        <pt x="340" y="755" on="1"/>
        <pt x="340" y="795" on="0"/>
        <pt x="315" y="795" on="1"/>
        <pt x="306" y="795" on="0"/>
        <pt x="288" y="779" on="0"/>
        <pt x="267" y="761" on="0"/>
        <pt x="242" y="745" on="0"/>
        <pt x="225" y="745" on="1"/>
        <pt x="208" y="745" on="0"/>
        <pt x="180" y="757" on="0"/>
        <pt x="161" y="785" on="0"/>
        <pt x="150" y="831" on="0"/>
        <pt x="150" y="865" on="1"/>
        <pt x="210" y="865" on="1"/>
        <pt x="210" y="825" on="0"/>
        <pt x="235" y="825" on="1"/>
        <pt x="244" y="825" on="0"/>
        <pt x="262" y="841" on="0"/>
        <pt x="283" y="859" on="0"/>
        <pt x="308" y="875" on="0"/>
        <pt x="325" y="875" on="1"/>
        <pt x="359" y="875" on="0"/>
        <pt x="400" y="822" on="0"/>
        <pt x="400" y="755" on="1"/>
      </contour>
    </TTGlyph>
    <TTGlyph name="O" xMin="45" yMin="-10" xMax="505" yMax="710">
      <contour>
        <pt x="275" y="60" on="1"/>
        <pt x="296" y="60" on="0"/>
        <pt x="335" y="86" on="0"/>
        <pt x="366" y="152" on="0"/>
        <pt x="385" y="264" on="0"/>
        <pt x="385" y="350" on="1"/>
        <pt x="385" y="436" on="0"/>
        <pt x="366" y="548" on="0"/>
        <pt x="335" y="614" on="0"/>
        <pt x="296" y="640" on="0"/>
        <pt x="275" y="640" on="1"/>
        <pt x="254" y="640" on="0"/>
        <pt x="215" y="614" on="0"/>
        <pt x="184" y="548" on="0"/>
        <pt x="165" y="436" on="0"/>
        <pt x="165" y="350" on="1"/>
        <pt x="165" y="264" on="0"/>
        <pt x="184" y="152" on="0"/>
        <pt x="215" y="86" on="0"/>
        <pt x="254" y="60" on="0"/>
      </contour>
      <contour>
        <pt x="275" y="710" on="1"/>
        <pt x="327" y="710" on="0"/>
        <pt x="412" y="673" on="0"/>
        <pt x="472" y="589" on="0"/>
        <pt x="505" y="451" on="0"/>
        <pt x="505" y="350" on="1"/>
        <pt x="505" y="249" on="0"/>
        <pt x="472" y="111" on="0"/>
        <pt x="412" y="27" on="0"/>
        <pt x="327" y="-10" on="0"/>
        <pt x="275" y="-10" on="1"/>
        <pt x="222" y="-10" on="0"/>
        <pt x="137" y="27" on="0"/>
        <pt x="77" y="111" on="0"/>
        <pt x="45" y="249" on="0"/>
        <pt x="45" y="350" on="1"/>
        <pt x="45" y="451" on="0"/>
        <pt x="77" y="589" on="0"/>
        <pt x="137" y="673" on="0"/>
        <pt x="222" y="710" on="0"/>
      </contour>
    </TTGlyph>
    <TTGlyph name="OE" xMin="40" yMin="0" xMax="725" yMax="700">
      <contour>
        <pt x="725" y="700" on="1"/>
        <pt x="725" y="620" on="1"/>
        <pt x="480" y="620" on="1"/>
        <pt x="480" y="405" on="1"/>
        <pt x="695" y="405" on="1"/>
        <pt x="695" y="325" on="1"/>
        <pt x="480" y="325" on="1"/>
        <pt x="480" y="80" on="1"/>
        <pt x="725" y="80" on="1"/>
        <pt x="725" y="0" on="1"/>
        <pt x="345" y="0" on="1"/>
        <pt x="199" y="0" on="0"/>
        <pt x="40" y="170" on="0"/>
        <pt x="40" y="350" on="1"/>
        <pt x="40" y="530" on="0"/>
        <pt x="199" y="700" on="0"/>
        <pt x="345" y="700" on="1"/>
      </contour>
      <contour>
        <pt x="360" y="620" on="1"/>
        <pt x="345" y="620" on="1"/>
        <pt x="302" y="620" on="0"/>
        <pt x="233" y="592" on="0"/>
        <pt x="185" y="528" on="0"/>
        <pt x="160" y="425" on="0"/>
        <pt x="160" y="350" on="1"/>
        <pt x="160" y="275" on="0"/>
        <pt x="185" y="172" on="0"/>
        <pt x="233" y="108" on="0"/>
        <pt x="302" y="80" on="0"/>
        <pt x="345" y="80" on="1"/>
        <pt x="360" y="80" on="1"/>
      </contour>
    </TTGlyph>
    <TTGlyph name="Oacute" xMin="45" yMin="-10" xMax="505" yMax="890">
      <contour>
        <pt x="275" y="60" on="1"/>
        <pt x="296" y="60" on="0"/>
        <pt x="335" y="86" on="0"/>
        <pt x="366" y="152" on="0"/>
        <pt x="385" y="264" on="0"/>
        <pt x="385" y="350" on="1"/>
        <pt x="385" y="436" on="0"/>
        <pt x="366" y="548" on="0"/>
        <pt x="335" y="614" on="0"/>
        <pt x="296" y="640" on="0"/>
        <pt x="275" y="640" on="1"/>
        <pt x="254" y="640" on="0"/>
        <pt x="215" y="614" on="0"/>
        <pt x="184" y="548" on="0"/>
        <pt x="165" y="436" on="0"/>
        <pt x="165" y="350" on="1"/>
        <pt x="165" y="264" on="0"/>
        <pt x="184" y="152" on="0"/>
        <pt x="215" y="86" on="0"/>
        <pt x="254" y="60" on="0"/>
      </contour>
      <contour>
        <pt x="275" y="710" on="1"/>
        <pt x="327" y="710" on="0"/>
        <pt x="412" y="673" on="0"/>
        <pt x="472" y="589" on="0"/>
        <pt x="505" y="451" on="0"/>
        <pt x="505" y="350" on="1"/>
        <pt x="505" y="249" on="0"/>
        <pt x="472" y="111" on="0"/>
        <pt x="412" y="27" on="0"/>
        <pt x="327" y="-10" on="0"/>
        <pt x="275" y="-10" on="1"/>
        <pt x="222" y="-10" on="0"/>
        <pt x="137" y="27" on="0"/>
        <pt x="77" y="111" on="0"/>
        <pt x="45" y="249" on="0"/>
        <pt x="45" y="350" on="1"/>
        <pt x="45" y="451" on="0"/>
        <pt x="77" y="589" on="0"/>
        <pt x="137" y="673" on="0"/>
        <pt x="222" y="710" on="0"/>
      </contour>
      <contour>
        <pt x="230" y="760" on="1"/>
        <pt x="265" y="890" on="1"/>
        <pt x="380" y="890" on="1"/>
        <pt x="305" y="760" on="1"/>
      </contour>
    </TTGlyph>
    <TTGlyph name="Ocircumflex" xMin="45" yMin="-10" xMax="505" yMax="890">
      <contour>
        <pt x="275" y="60" on="1"/>
        <pt x="296" y="60" on="0"/>
        <pt x="335" y="86" on="0"/>
        <pt x="366" y="152" on="0"/>
        <pt x="385" y="264" on="0"/>
        <pt x="385" y="350" on="1"/>
        <pt x="385" y="436" on="0"/>
        <pt x="366" y="548" on="0"/>
        <pt x="335" y="614" on="0"/>
        <pt x="296" y="640" on="0"/>
        <pt x="275" y="640" on="1"/>
        <pt x="254" y="640" on="0"/>
        <pt x="215" y="614" on="0"/>
        <pt x="184" y="548" on="0"/>
        <pt x="165" y="436" on="0"/>
        <pt x="165" y="350" on="1"/>
        <pt x="165" y="264" on="0"/>
        <pt x="184" y="152" on="0"/>
        <pt x="215" y="86" on="0"/>
        <pt x="254" y="60" on="0"/>
      </contour>
      <contour>
        <pt x="275" y="710" on="1"/>
        <pt x="327" y="710" on="0"/>
        <pt x="412" y="673" on="0"/>
        <pt x="472" y="589" on="0"/>
        <pt x="505" y="451" on="0"/>
        <pt x="505" y="350" on="1"/>
        <pt x="505" y="249" on="0"/>
        <pt x="472" y="111" on="0"/>
        <pt x="412" y="27" on="0"/>
        <pt x="327" y="-10" on="0"/>
        <pt x="275" y="-10" on="1"/>
        <pt x="222" y="-10" on="0"/>
        <pt x="137" y="27" on="0"/>
        <pt x="77" y="111" on="0"/>
        <pt x="45" y="249" on="0"/>
        <pt x="45" y="350" on="1"/>
        <pt x="45" y="451" on="0"/>
        <pt x="77" y="589" on="0"/>
        <pt x="137" y="673" on="0"/>
        <pt x="222" y="710" on="0"/>
      </contour>
      <contour>
        <pt x="145" y="760" on="1"/>
        <pt x="225" y="890" on="1"/>
        <pt x="330" y="890" on="1"/>
        <pt x="410" y="760" on="1"/>
        <pt x="333" y="760" on="1"/>
        <pt x="277" y="830" on="1"/>
        <pt x="221" y="760" on="1"/>
      </contour>
    </TTGlyph>
    <TTGlyph name="Odieresis" xMin="45" yMin="-10" xMax="505" yMax="880">
      <contour>
        <pt x="275" y="60" on="1"/>
        <pt x="296" y="60" on="0"/>
        <pt x="335" y="86" on="0"/>
        <pt x="366" y="152" on="0"/>
        <pt x="385" y="264" on="0"/>
        <pt x="385" y="350" on="1"/>
        <pt x="385" y="436" on="0"/>
        <pt x="366" y="548" on="0"/>
        <pt x="335" y="614" on="0"/>
        <pt x="296" y="640" on="0"/>
        <pt x="275" y="640" on="1"/>
        <pt x="254" y="640" on="0"/>
        <pt x="215" y="614" on="0"/>
        <pt x="184" y="548" on="0"/>
        <pt x="165" y="436" on="0"/>
        <pt x="165" y="350" on="1"/>
        <pt x="165" y="264" on="0"/>
        <pt x="184" y="152" on="0"/>
        <pt x="215" y="86" on="0"/>
        <pt x="254" y="60" on="0"/>
      </contour>
      <contour>
        <pt x="275" y="710" on="1"/>
        <pt x="327" y="710" on="0"/>
        <pt x="412" y="673" on="0"/>
        <pt x="472" y="589" on="0"/>
        <pt x="505" y="451" on="0"/>
        <pt x="505" y="350" on="1"/>
        <pt x="505" y="249" on="0"/>
        <pt x="472" y="111" on="0"/>
        <pt x="412" y="27" on="0"/>
        <pt x="327" y="-10" on="0"/>
        <pt x="275" y="-10" on="1"/>
        <pt x="222" y="-10" on="0"/>
        <pt x="137" y="27" on="0"/>
        <pt x="77" y="111" on="0"/>
        <pt x="45" y="249" on="0"/>
        <pt x="45" y="350" on="1"/>
        <pt x="45" y="451" on="0"/>
        <pt x="77" y="589" on="0"/>
        <pt x="137" y="673" on="0"/>
        <pt x="222" y="710" on="0"/>
      </contour>
      <contour>
        <pt x="250" y="880" on="1"/>
        <pt x="250" y="760" on="1"/>
        <pt x="140" y="760" on="1"/>
        <pt x="140" y="880" on="1"/>
      </contour>
      <contour>
        <pt x="410" y="880" on="1"/>
        <pt x="410" y="760" on="1"/>
        <pt x="300" y="760" on="1"/>
        <pt x="300" y="880" on="1"/>
      </contour>
    </TTGlyph>
    <TTGlyph name="Ograve" xMin="45" yMin="-10" xMax="505" yMax="890">
      <contour>
        <pt x="275" y="60" on="1"/>
        <pt x="296" y="60" on="0"/>
        <pt x="335" y="86" on="0"/>
        <pt x="366" y="152" on="0"/>
        <pt x="385" y="264" on="0"/>
        <pt x="385" y="350" on="1"/>
        <pt x="385" y="436" on="0"/>
        <pt x="366" y="548" on="0"/>
        <pt x="335" y="614" on="0"/>
        <pt x="296" y="640" on="0"/>
        <pt x="275" y="640" on="1"/>
        <pt x="254" y="640" on="0"/>
        <pt x="215" y="614" on="0"/>
        <pt x="184" y="548" on="0"/>
        <pt x="165" y="436" on="0"/>
        <pt x="165" y="350" on="1"/>
        <pt x="165" y="264" on="0"/>
        <pt x="184" y="152" on="0"/>
        <pt x="215" y="86" on="0"/>
        <pt x="254" y="60" on="0"/>
      </contour>
      <contour>
        <pt x="275" y="710" on="1"/>
        <pt x="327" y="710" on="0"/>
        <pt x="412" y="673" on="0"/>
        <pt x="472" y="589" on="0"/>
        <pt x="505" y="451" on="0"/>
        <pt x="505" y="350" on="1"/>
        <pt x="505" y="249" on="0"/>
        <pt x="472" y="111" on="0"/>
        <pt x="412" y="27" on="0"/>
        <pt x="327" y="-10" on="0"/>
        <pt x="275" y="-10" on="1"/>
        <pt x="222" y="-10" on="0"/>
        <pt x="137" y="27" on="0"/>
        <pt x="77" y="111" on="0"/>
        <pt x="45" y="249" on="0"/>
        <pt x="45" y="350" on="1"/>
        <pt x="45" y="451" on="0"/>
        <pt x="77" y="589" on="0"/>
        <pt x="137" y="673" on="0"/>
        <pt x="222" y="710" on="0"/>
      </contour>
      <contour>
        <pt x="240" y="760" on="1"/>
        <pt x="165" y="890" on="1"/>
        <pt x="280" y="890" on="1"/>
        <pt x="315" y="760" on="1"/>
      </contour>
    </TTGlyph>
    <TTGlyph name="Omacron" xMin="45" yMin="-10" xMax="505" yMax="830">
      <contour>
        <pt x="275" y="60" on="1"/>
        <pt x="296" y="60" on="0"/>
        <pt x="335" y="86" on="0"/>
        <pt x="366" y="152" on="0"/>
        <pt x="385" y="264" on="0"/>
        <pt x="385" y="350" on="1"/>
        <pt x="385" y="436" on="0"/>
        <pt x="366" y="548" on="0"/>
        <pt x="335" y="614" on="0"/>
        <pt x="296" y="640" on="0"/>
        <pt x="275" y="640" on="1"/>
        <pt x="254" y="640" on="0"/>
        <pt x="215" y="614" on="0"/>
        <pt x="184" y="548" on="0"/>
        <pt x="165" y="436" on="0"/>
        <pt x="165" y="350" on="1"/>
        <pt x="165" y="264" on="0"/>
        <pt x="184" y="152" on="0"/>
        <pt x="215" y="86" on="0"/>
        <pt x="254" y="60" on="0"/>
      </contour>
      <contour>
        <pt x="275" y="710" on="1"/>
        <pt x="327" y="710" on="0"/>
        <pt x="412" y="673" on="0"/>
        <pt x="472" y="589" on="0"/>
        <pt x="505" y="451" on="0"/>
        <pt x="505" y="350" on="1"/>
        <pt x="505" y="249" on="0"/>
        <pt x="472" y="111" on="0"/>
        <pt x="412" y="27" on="0"/>
        <pt x="327" y="-10" on="0"/>
        <pt x="275" y="-10" on="1"/>
        <pt x="222" y="-10" on="0"/>
        <pt x="137" y="27" on="0"/>
        <pt x="77" y="111" on="0"/>
        <pt x="45" y="249" on="0"/>
        <pt x="45" y="350" on="1"/>
        <pt x="45" y="451" on="0"/>
        <pt x="77" y="589" on="0"/>
        <pt x="137" y="673" on="0"/>
        <pt x="222" y="710" on="0"/>
      </contour>
      <contour>
        <pt x="155" y="830" on="1"/>
        <pt x="395" y="830" on="1"/>
        <pt x="395" y="760" on="1"/>
        <pt x="155" y="760" on="1"/>
      </contour>
    </TTGlyph>
    <TTGlyph name="Oslash" xMin="25" yMin="-10" xMax="525" yMax="710">
      <contour>
        <pt x="78" y="125" on="1"/>
        <pt x="62" y="167" on="0"/>
        <pt x="45" y="277" on="0"/>
        <pt x="45" y="350" on="1"/>
        <pt x="45" y="451" on="0"/>
        <pt x="77" y="589" on="0"/>
        <pt x="137" y="673" on="0"/>
        <pt x="222" y="710" on="0"/>
        <pt x="275" y="710" on="1"/>
        <pt x="326" y="710" on="0"/>
        <pt x="408" y="676" on="0"/>
        <pt x="438" y="637" on="1"/>
        <pt x="475" y="690" on="1"/>
        <pt x="525" y="650" on="1"/>
        <pt x="472" y="575" on="1"/>
        <pt x="488" y="533" on="0"/>
        <pt x="505" y="423" on="0"/>
        <pt x="505" y="350" on="1"/>
        <pt x="505" y="249" on="0"/>
        <pt x="472" y="111" on="0"/>
        <pt x="412" y="27" on="0"/>
        <pt x="327" y="-10" on="0"/>
        <pt x="275" y="-10" on="1"/>
        <pt x="224" y="-10" on="0"/>
        <pt x="142" y="24" on="0"/>
        <pt x="112" y="62" on="1"/>
        <pt x="75" y="10" on="1"/>
        <pt x="25" y="50" on="1"/>
      </contour>
      <contour>
        <pt x="165" y="350" on="1"/>
        <pt x="165" y="323" on="0"/>
        <pt x="167" y="275" on="0"/>
        <pt x="169" y="254" on="1"/>
        <pt x="366" y="535" on="1"/>
        <pt x="351" y="595" on="0"/>
        <pt x="301" y="640" on="0"/>
        <pt x="275" y="640" on="1"/>
        <pt x="254" y="640" on="0"/>
        <pt x="215" y="614" on="0"/>
        <pt x="184" y="548" on="0"/>
        <pt x="165" y="436" on="0"/>
      </contour>
      <contour>
        <pt x="275" y="60" on="1"/>
        <pt x="296" y="60" on="0"/>
        <pt x="335" y="86" on="0"/>
        <pt x="366" y="152" on="0"/>
        <pt x="385" y="264" on="0"/>
        <pt x="385" y="350" on="1"/>
        <pt x="385" y="377" on="0"/>
        <pt x="383" y="424" on="0"/>
        <pt x="381" y="445" on="1"/>
        <pt x="183" y="164" on="1"/>
        <pt x="199" y="105" on="0"/>
        <pt x="248" y="60" on="0"/>
      </contour>
    </TTGlyph>
    <TTGlyph name="Otilde" xMin="45" yMin="-10" xMax="505" yMax="885">
      <contour>
        <pt x="275" y="60" on="1"/>
        <pt x="296" y="60" on="0"/>
        <pt x="335" y="86" on="0"/>
        <pt x="366" y="152" on="0"/>
        <pt x="385" y="264" on="0"/>
        <pt x="385" y="350" on="1"/>
        <pt x="385" y="436" on="0"/>
        <pt x="366" y="548" on="0"/>
        <pt x="335" y="614" on="0"/>
        <pt x="296" y="640" on="0"/>
        <pt x="275" y="640" on="1"/>
        <pt x="254" y="640" on="0"/>
        <pt x="215" y="614" on="0"/>
        <pt x="184" y="548" on="0"/>
        <pt x="165" y="436" on="0"/>
        <pt x="165" y="350" on="1"/>
        <pt x="165" y="264" on="0"/>
        <pt x="184" y="152" on="0"/>
        <pt x="215" y="86" on="0"/>
        <pt x="254" y="60" on="0"/>
      </contour>
      <contour>
        <pt x="275" y="710" on="1"/>
        <pt x="327" y="710" on="0"/>
        <pt x="412" y="673" on="0"/>
        <pt x="472" y="589" on="0"/>
        <pt x="505" y="451" on="0"/>
        <pt x="505" y="350" on="1"/>
        <pt x="505" y="249" on="0"/>
        <pt x="472" y="111" on="0"/>
        <pt x="412" y="27" on="0"/>
        <pt x="327" y="-10" on="0"/>
        <pt x="275" y="-10" on="1"/>
        <pt x="222" y="-10" on="0"/>
        <pt x="137" y="27" on="0"/>
        <pt x="77" y="111" on="0"/>
        <pt x="45" y="249" on="0"/>
        <pt x="45" y="350" on="1"/>
        <pt x="45" y="451" on="0"/>
        <pt x="77" y="589" on="0"/>
        <pt x="137" y="673" on="0"/>
        <pt x="222" y="710" on="0"/>
      </contour>
      <contour>
        <pt x="335" y="765" on="1"/>
        <pt x="335" y="805" on="0"/>
        <pt x="310" y="805" on="1"/>
        <pt x="301" y="805" on="0"/>
        <pt x="283" y="789" on="0"/>
        <pt x="262" y="771" on="0"/>
        <pt x="237" y="755" on="0"/>
        <pt x="220" y="755" on="1"/>
        <pt x="203" y="755" on="0"/>
        <pt x="175" y="767" on="0"/>
        <pt x="156" y="795" on="0"/>
        <pt x="145" y="841" on="0"/>
        <pt x="145" y="875" on="1"/>
        <pt x="205" y="875" on="1"/>
        <pt x="205" y="835" on="0"/>
        <pt x="230" y="835" on="1"/>
        <pt x="239" y="835" on="0"/>
        <pt x="257" y="851" on="0"/>
        <pt x="278" y="869" on="0"/>
        <pt x="303" y="885" on="0"/>
        <pt x="320" y="885" on="1"/>
        <pt x="354" y="885" on="0"/>
        <pt x="395" y="832" on="0"/>
        <pt x="395" y="765" on="1"/>
      </contour>
    </TTGlyph>
    <TTGlyph name="P" xMin="70" yMin="0" xMax="480" yMax="710">
      <contour>
        <pt x="245" y="280" on="1"/>
        <pt x="273" y="280" on="0"/>
        <pt x="316" y="297" on="0"/>
        <pt x="345" y="338" on="0"/>
        <pt x="360" y="407" on="0"/>
        <pt x="360" y="460" on="1"/>
        <pt x="360" y="511" on="0"/>
        <pt x="345" y="578" on="0"/>
        <pt x="316" y="618" on="0"/>
        <pt x="273" y="635" on="0"/>
        <pt x="245" y="635" on="1"/>
        <pt x="190" y="635" on="1"/>
        <pt x="190" y="280" on="1"/>
      </contour>
      <contour>
        <pt x="190" y="0" on="1"/>
        <pt x="70" y="0" on="1"/>
        <pt x="70" y="690" on="1"/>
        <pt x="108" y="701" on="0"/>
        <pt x="188" y="710" on="0"/>
        <pt x="245" y="710" on="1"/>
        <pt x="307" y="710" on="0"/>
        <pt x="396" y="682" on="0"/>
        <pt x="453" y="622" on="0"/>
        <pt x="480" y="527" on="0"/>
        <pt x="480" y="460" on="1"/>
        <pt x="480" y="389" on="0"/>
        <pt x="454" y="290" on="0"/>
        <pt x="402" y="228" on="0"/>
        <pt x="326" y="200" on="0"/>
        <pt x="275" y="200" on="1"/>
        <pt x="269" y="200" on="0"/>
        <pt x="248" y="202" on="0"/>
        <pt x="224" y="205" on="0"/>
        <pt x="199" y="208" on="0"/>
        <pt x="190" y="210" on="1"/>
      </contour>
    </TTGlyph>
    <TTGlyph name="Q" xMin="45" yMin="-10" xMax="550" yMax="710">
      <contour>
        <pt x="275" y="710" on="1"/>
        <pt x="327" y="710" on="0"/>
        <pt x="412" y="673" on="0"/>
        <pt x="472" y="589" on="0"/>
        <pt x="505" y="451" on="0"/>
        <pt x="505" y="350" on="1"/>
        <pt x="505" y="237" on="0"/>
        <pt x="460" y="98" on="0"/>
        <pt x="430" y="60" on="1"/>
        <pt x="475" y="60" on="0"/>
        <pt x="527" y="48" on="0"/>
        <pt x="550" y="40" on="1"/>
        <pt x="550" y="-10" on="1"/>
        <pt x="275" y="-10" on="1"/>
        <pt x="222" y="-10" on="0"/>
        <pt x="137" y="27" on="0"/>
        <pt x="77" y="111" on="0"/>
        <pt x="45" y="249" on="0"/>
        <pt x="45" y="350" on="1"/>
        <pt x="45" y="451" on="0"/>
        <pt x="77" y="589" on="0"/>
        <pt x="137" y="673" on="0"/>
        <pt x="222" y="710" on="0"/>
      </contour>
      <contour>
        <pt x="275" y="60" on="1"/>
        <pt x="296" y="60" on="0"/>
        <pt x="335" y="86" on="0"/>
        <pt x="366" y="152" on="0"/>
        <pt x="385" y="264" on="0"/>
        <pt x="385" y="350" on="1"/>
        <pt x="385" y="436" on="0"/>
        <pt x="366" y="548" on="0"/>
        <pt x="335" y="614" on="0"/>
        <pt x="296" y="640" on="0"/>
        <pt x="275" y="640" on="1"/>
        <pt x="254" y="640" on="0"/>
        <pt x="215" y="614" on="0"/>
        <pt x="184" y="548" on="0"/>
        <pt x="165" y="436" on="0"/>
        <pt x="165" y="350" on="1"/>
        <pt x="165" y="260" on="0"/>
        <pt x="185" y="147" on="0"/>
        <pt x="217" y="83" on="0"/>
        <pt x="256" y="60" on="0"/>
      </contour>
    </TTGlyph>
    <TTGlyph name="R" xMin="70" yMin="0" xMax="505" yMax="710">
      <contour>
        <pt x="480" y="470" on="1"/>
        <pt x="480" y="419" on="0"/>
        <pt x="464" y="346" on="0"/>
        <pt x="435" y="295" on="0"/>
        <pt x="394" y="261" on="0"/>
        <pt x="370" y="250" on="1"/>
        <pt x="505" y="0" on="1"/>
        <pt x="370" y="0" on="1"/>
        <pt x="255" y="225" on="1"/>
        <pt x="190" y="225" on="1"/>
        <pt x="190" y="0" on="1"/>
        <pt x="70" y="0" on="1"/>
        <pt x="70" y="690" on="1"/>
        <pt x="108" y="701" on="0"/>
        <pt x="188" y="710" on="0"/>
        <pt x="245" y="710" on="1"/>
        <pt x="307" y="710" on="0"/>
        <pt x="396" y="683" on="0"/>
        <pt x="453" y="625" on="0"/>
        <pt x="480" y="534" on="0"/>
      </contour>
      <contour>
        <pt x="245" y="305" on="1"/>
        <pt x="273" y="305" on="0"/>
        <pt x="316" y="321" on="0"/>
        <pt x="345" y="360" on="0"/>
        <pt x="360" y="423" on="0"/>
        <pt x="360" y="470" on="1"/>
        <pt x="360" y="517" on="0"/>
        <pt x="345" y="580" on="0"/>
        <pt x="316" y="619" on="0"/>
        <pt x="273" y="635" on="0"/>
        <pt x="245" y="635" on="1"/>
        <pt x="190" y="635" on="1"/>
        <pt x="190" y="305" on="1"/>
      </contour>
    </TTGlyph>
    <TTGlyph name="Racute" xMin="70" yMin="0" xMax="505" yMax="880">
      <contour>
        <pt x="480" y="470" on="1"/>
        <pt x="480" y="419" on="0"/>
        <pt x="464" y="346" on="0"/>
        <pt x="435" y="295" on="0"/>
        <pt x="394" y="261" on="0"/>
        <pt x="370" y="250" on="1"/>
        <pt x="505" y="0" on="1"/>
        <pt x="370" y="0" on="1"/>
        <pt x="255" y="225" on="1"/>
        <pt x="190" y="225" on="1"/>
        <pt x="190" y="0" on="1"/>
        <pt x="70" y="0" on="1"/>
        <pt x="70" y="690" on="1"/>
        <pt x="108" y="701" on="0"/>
        <pt x="188" y="710" on="0"/>
        <pt x="245" y="710" on="1"/>
        <pt x="307" y="710" on="0"/>
        <pt x="396" y="683" on="0"/>
        <pt x="453" y="625" on="0"/>
        <pt x="480" y="534" on="0"/>
      </contour>
      <contour>
        <pt x="245" y="305" on="1"/>
        <pt x="273" y="305" on="0"/>
        <pt x="316" y="321" on="0"/>
        <pt x="345" y="360" on="0"/>
        <pt x="360" y="423" on="0"/>
        <pt x="360" y="470" on="1"/>
        <pt x="360" y="517" on="0"/>
        <pt x="345" y="580" on="0"/>
        <pt x="316" y="619" on="0"/>
        <pt x="273" y="635" on="0"/>
        <pt x="245" y="635" on="1"/>
        <pt x="190" y="635" on="1"/>
        <pt x="190" y="305" on="1"/>
      </contour>
      <contour>
        <pt x="205" y="750" on="1"/>
        <pt x="240" y="880" on="1"/>
        <pt x="355" y="880" on="1"/>
        <pt x="280" y="750" on="1"/>
      </contour>
    </TTGlyph>
    <TTGlyph name="Rcaron" xMin="70" yMin="0" xMax="505" yMax="880">
      <contour>
        <pt x="480" y="470" on="1"/>
        <pt x="480" y="419" on="0"/>
        <pt x="464" y="346" on="0"/>
        <pt x="435" y="295" on="0"/>
        <pt x="394" y="261" on="0"/>
        <pt x="370" y="250" on="1"/>
        <pt x="505" y="0" on="1"/>
        <pt x="370" y="0" on="1"/>
        <pt x="255" y="225" on="1"/>
        <pt x="190" y="225" on="1"/>
        <pt x="190" y="0" on="1"/>
        <pt x="70" y="0" on="1"/>
        <pt x="70" y="690" on="1"/>
        <pt x="108" y="701" on="0"/>
        <pt x="188" y="710" on="0"/>
        <pt x="245" y="710" on="1"/>
        <pt x="307" y="710" on="0"/>
        <pt x="396" y="683" on="0"/>
        <pt x="453" y="625" on="0"/>
        <pt x="480" y="534" on="0"/>
      </contour>
      <contour>
        <pt x="245" y="305" on="1"/>
        <pt x="273" y="305" on="0"/>
        <pt x="316" y="321" on="0"/>
        <pt x="345" y="360" on="0"/>
        <pt x="360" y="423" on="0"/>
        <pt x="360" y="470" on="1"/>
        <pt x="360" y="517" on="0"/>
        <pt x="345" y="580" on="0"/>
        <pt x="316" y="619" on="0"/>
        <pt x="273" y="635" on="0"/>
        <pt x="245" y="635" on="1"/>
        <pt x="190" y="635" on="1"/>
        <pt x="190" y="305" on="1"/>
      </contour>
      <contour>
        <pt x="189" y="880" on="1"/>
        <pt x="245" y="810" on="1"/>
        <pt x="301" y="880" on="1"/>
        <pt x="378" y="880" on="1"/>
        <pt x="298" y="750" on="1"/>
        <pt x="193" y="750" on="1"/>
        <pt x="113" y="880" on="1"/>
      </contour>
    </TTGlyph>
    <TTGlyph name="Rcommaaccent" xMin="70" yMin="-200" xMax="505" yMax="710">
      <contour>
        <pt x="480" y="470" on="1"/>
        <pt x="480" y="419" on="0"/>
        <pt x="464" y="346" on="0"/>
        <pt x="435" y="295" on="0"/>
        <pt x="394" y="261" on="0"/>
        <pt x="370" y="250" on="1"/>
        <pt x="505" y="0" on="1"/>
        <pt x="370" y="0" on="1"/>
        <pt x="255" y="225" on="1"/>
        <pt x="190" y="225" on="1"/>
        <pt x="190" y="0" on="1"/>
        <pt x="70" y="0" on="1"/>
        <pt x="70" y="690" on="1"/>
        <pt x="108" y="701" on="0"/>
        <pt x="188" y="710" on="0"/>
        <pt x="245" y="710" on="1"/>
        <pt x="307" y="710" on="0"/>
        <pt x="396" y="683" on="0"/>
        <pt x="453" y="625" on="0"/>
        <pt x="480" y="534" on="0"/>
      </contour>
      <contour>
        <pt x="245" y="305" on="1"/>
        <pt x="273" y="305" on="0"/>
        <pt x="316" y="321" on="0"/>
        <pt x="345" y="360" on="0"/>
        <pt x="360" y="423" on="0"/>
        <pt x="360" y="470" on="1"/>
        <pt x="360" y="517" on="0"/>
        <pt x="345" y="580" on="0"/>
        <pt x="316" y="619" on="0"/>
        <pt x="273" y="635" on="0"/>
        <pt x="245" y="635" on="1"/>
        <pt x="190" y="635" on="1"/>
        <pt x="190" y="305" on="1"/>
      </contour>
      <contour>
        <pt x="225" y="-50" on="1"/>
        <pt x="335" y="-50" on="1"/>
        <pt x="300" y="-200" on="1"/>
        <pt x="225" y="-200" on="1"/>
      </contour>
    </TTGlyph>
    <TTGlyph name="S" xMin="30" yMin="-10" xMax="435" yMax="710">
      <contour>
        <pt x="30" y="530" on="1"/>
        <pt x="30" y="613" on="0"/>
        <pt x="133" y="710" on="0"/>
        <pt x="235" y="710" on="1"/>
        <pt x="288" y="710" on="0"/>
        <pt x="372" y="698" on="0"/>
        <pt x="395" y="690" on="1"/>
        <pt x="395" y="635" on="1"/>
        <pt x="255" y="635" on="1"/>
        <pt x="206" y="635" on="0"/>
        <pt x="150" y="579" on="0"/>
        <pt x="150" y="530" on="1"/>
        <pt x="150" y="486" on="0"/>
        <pt x="192" y="434" on="0"/>
        <pt x="256" y="397" on="0"/>
        <pt x="329" y="365" on="0"/>
        <pt x="393" y="316" on="0"/>
        <pt x="435" y="241" on="0"/>
        <pt x="435" y="180" on="1"/>
        <pt x="435" y="90" on="0"/>
        <pt x="322" y="-10" on="0"/>
        <pt x="195" y="-10" on="1"/>
        <pt x="142" y="-10" on="0"/>
        <pt x="58" y="2" on="0"/>
        <pt x="35" y="10" on="1"/>
        <pt x="35" y="65" on="1"/>
        <pt x="175" y="65" on="1"/>
        <pt x="250" y="65" on="0"/>
        <pt x="315" y="123" on="0"/>
        <pt x="315" y="180" on="1"/>
        <pt x="315" y="221" on="0"/>
        <pt x="273" y="270" on="0"/>
        <pt x="209" y="305" on="0"/>
        <pt x="136" y="337" on="0"/>
        <pt x="72" y="388" on="0"/>
        <pt x="30" y="466" on="0"/>
      </contour>
    </TTGlyph>
    <TTGlyph name="Sacute" xMin="30" yMin="-10" xMax="435" yMax="890">
      <contour>
        <pt x="30" y="530" on="1"/>
        <pt x="30" y="613" on="0"/>
        <pt x="133" y="710" on="0"/>
        <pt x="235" y="710" on="1"/>
        <pt x="288" y="710" on="0"/>
        <pt x="372" y="698" on="0"/>
        <pt x="395" y="690" on="1"/>
        <pt x="395" y="635" on="1"/>
        <pt x="255" y="635" on="1"/>
        <pt x="206" y="635" on="0"/>
        <pt x="150" y="579" on="0"/>
        <pt x="150" y="530" on="1"/>
        <pt x="150" y="486" on="0"/>
        <pt x="192" y="434" on="0"/>
        <pt x="256" y="397" on="0"/>
        <pt x="329" y="365" on="0"/>
        <pt x="393" y="316" on="0"/>
        <pt x="435" y="241" on="0"/>
        <pt x="435" y="180" on="1"/>
        <pt x="435" y="90" on="0"/>
        <pt x="322" y="-10" on="0"/>
        <pt x="195" y="-10" on="1"/>
        <pt x="142" y="-10" on="0"/>
        <pt x="58" y="2" on="0"/>
        <pt x="35" y="10" on="1"/>
        <pt x="35" y="65" on="1"/>
        <pt x="175" y="65" on="1"/>
        <pt x="250" y="65" on="0"/>
        <pt x="315" y="123" on="0"/>
        <pt x="315" y="180" on="1"/>
        <pt x="315" y="221" on="0"/>
        <pt x="273" y="270" on="0"/>
        <pt x="209" y="305" on="0"/>
        <pt x="136" y="337" on="0"/>
        <pt x="72" y="388" on="0"/>
        <pt x="30" y="466" on="0"/>
      </contour>
      <contour>
        <pt x="190" y="760" on="1"/>
        <pt x="225" y="890" on="1"/>
        <pt x="340" y="890" on="1"/>
        <pt x="265" y="760" on="1"/>
      </contour>
    </TTGlyph>
    <TTGlyph name="Scaron" xMin="30" yMin="-10" xMax="435" yMax="890">
      <contour>
        <pt x="30" y="530" on="1"/>
        <pt x="30" y="613" on="0"/>
        <pt x="133" y="710" on="0"/>
        <pt x="235" y="710" on="1"/>
        <pt x="288" y="710" on="0"/>
        <pt x="372" y="698" on="0"/>
        <pt x="395" y="690" on="1"/>
        <pt x="395" y="635" on="1"/>
        <pt x="255" y="635" on="1"/>
        <pt x="206" y="635" on="0"/>
        <pt x="150" y="579" on="0"/>
        <pt x="150" y="530" on="1"/>
        <pt x="150" y="486" on="0"/>
        <pt x="192" y="434" on="0"/>
        <pt x="256" y="397" on="0"/>
        <pt x="329" y="365" on="0"/>
        <pt x="393" y="316" on="0"/>
        <pt x="435" y="241" on="0"/>
        <pt x="435" y="180" on="1"/>
        <pt x="435" y="90" on="0"/>
        <pt x="322" y="-10" on="0"/>
        <pt x="195" y="-10" on="1"/>
        <pt x="142" y="-10" on="0"/>
        <pt x="58" y="2" on="0"/>
        <pt x="35" y="10" on="1"/>
        <pt x="35" y="65" on="1"/>
        <pt x="175" y="65" on="1"/>
        <pt x="250" y="65" on="0"/>
        <pt x="315" y="123" on="0"/>
        <pt x="315" y="180" on="1"/>
        <pt x="315" y="221" on="0"/>
        <pt x="273" y="270" on="0"/>
        <pt x="209" y="305" on="0"/>
        <pt x="136" y="337" on="0"/>
        <pt x="72" y="388" on="0"/>
        <pt x="30" y="466" on="0"/>
      </contour>
      <contour>
        <pt x="169" y="890" on="1"/>
        <pt x="225" y="820" on="1"/>
        <pt x="281" y="890" on="1"/>
        <pt x="358" y="890" on="1"/>
        <pt x="278" y="760" on="1"/>
        <pt x="173" y="760" on="1"/>
        <pt x="93" y="890" on="1"/>
      </contour>
    </TTGlyph>
    <TTGlyph name="Scedilla" xMin="30" yMin="-170" xMax="435" yMax="710">
      <contour>
        <pt x="255" y="-30" on="1"/>
        <pt x="300" y="-30" on="0"/>
        <pt x="345" y="-70" on="0"/>
        <pt x="345" y="-100" on="1"/>
        <pt x="345" y="-130" on="0"/>
        <pt x="294" y="-170" on="0"/>
        <pt x="245" y="-170" on="1"/>
        <pt x="226" y="-170" on="0"/>
        <pt x="198" y="-166" on="0"/>
        <pt x="189" y="-163" on="1"/>
        <pt x="178" y="-159" on="0"/>
        <pt x="170" y="-155" on="1"/>
        <pt x="170" y="-121" on="1"/>
        <pt x="235" y="-121" on="1"/>
        <pt x="258" y="-121" on="0"/>
        <pt x="270" y="-108" on="0"/>
        <pt x="270" y="-100" on="1"/>
        <pt x="270" y="-92" on="0"/>
        <pt x="259" y="-79" on="0"/>
        <pt x="240" y="-79" on="1"/>
        <pt x="185" y="-79" on="1"/>
        <pt x="185" y="-10" on="1"/>
        <pt x="135" y="-9" on="0"/>
        <pt x="56" y="2" on="0"/>
        <pt x="35" y="10" on="1"/>
        <pt x="35" y="65" on="1"/>
        <pt x="175" y="65" on="1"/>
        <pt x="250" y="65" on="0"/>
        <pt x="315" y="123" on="0"/>
        <pt x="315" y="180" on="1"/>
        <pt x="315" y="221" on="0"/>
        <pt x="273" y="270" on="0"/>
        <pt x="209" y="305" on="0"/>
        <pt x="136" y="337" on="0"/>
        <pt x="72" y="388" on="0"/>
        <pt x="30" y="466" on="0"/>
        <pt x="30" y="530" on="1"/>
        <pt x="30" y="613" on="0"/>
        <pt x="133" y="710" on="0"/>
        <pt x="235" y="710" on="1"/>
        <pt x="288" y="710" on="0"/>
        <pt x="372" y="698" on="0"/>
        <pt x="395" y="690" on="1"/>
        <pt x="395" y="635" on="1"/>
        <pt x="255" y="635" on="1"/>
        <pt x="206" y="635" on="0"/>
        <pt x="150" y="579" on="0"/>
        <pt x="150" y="530" on="1"/>
        <pt x="150" y="486" on="0"/>
        <pt x="192" y="434" on="0"/>
        <pt x="256" y="397" on="0"/>
        <pt x="329" y="365" on="0"/>
        <pt x="393" y="316" on="0"/>
        <pt x="435" y="241" on="0"/>
        <pt x="435" y="180" on="1"/>
        <pt x="435" y="98" on="0"/>
        <pt x="343" y="0" on="0"/>
        <pt x="240" y="-8" on="1"/>
        <pt x="240" y="-30" on="1"/>
      </contour>
    </TTGlyph>
    <TTGlyph name="T" xMin="10" yMin="0" xMax="440" yMax="700">
      <contour>
        <pt x="10" y="700" on="1"/>
        <pt x="440" y="700" on="1"/>
        <pt x="440" y="620" on="1"/>
        <pt x="285" y="620" on="1"/>
        <pt x="285" y="0" on="1"/>
        <pt x="165" y="0" on="1"/>
        <pt x="165" y="620" on="1"/>
        <pt x="10" y="620" on="1"/>
      </contour>
    </TTGlyph>
    <TTGlyph name="Thorn" xMin="70" yMin="-10" xMax="490" yMax="710">
      <contour>
        <pt x="190" y="635" on="1"/>
        <pt x="348" y="627" on="0"/>
        <pt x="490" y="482" on="0"/>
        <pt x="490" y="350" on="1"/>
        <pt x="490" y="218" on="0"/>
        <pt x="348" y="73" on="0"/>
        <pt x="190" y="65" on="1"/>
        <pt x="190" y="-10" on="1"/>
        <pt x="70" y="-10" on="1"/>
        <pt x="70" y="710" on="1"/>
        <pt x="190" y="710" on="1"/>
      </contour>
      <contour>
        <pt x="190" y="140" on="1"/>
        <pt x="273" y="144" on="0"/>
        <pt x="370" y="252" on="0"/>
        <pt x="370" y="350" on="1"/>
        <pt x="370" y="448" on="0"/>
        <pt x="273" y="556" on="0"/>
        <pt x="190" y="560" on="1"/>
      </contour>
    </TTGlyph>
    <TTGlyph name="U" xMin="60" yMin="-10" xMax="490" yMax="700">
      <contour>
        <pt x="275" y="60" on="1"/>
        <pt x="296" y="60" on="0"/>
        <pt x="330" y="77" on="0"/>
        <pt x="356" y="118" on="0"/>
        <pt x="370" y="187" on="0"/>
        <pt x="370" y="240" on="1"/>
        <pt x="370" y="700" on="1"/>
        <pt x="490" y="700" on="1"/>
        <pt x="490" y="240" on="1"/>
        <pt x="490" y="105" on="0"/>
        <pt x="384" y="-10" on="0"/>
        <pt x="275" y="-10" on="1"/>
        <pt x="166" y="-10" on="0"/>
        <pt x="60" y="105" on="0"/>
        <pt x="60" y="240" on="1"/>
        <pt x="60" y="700" on="1"/>
        <pt x="180" y="700" on="1"/>
        <pt x="180" y="240" on="1"/>
        <pt x="180" y="187" on="0"/>
        <pt x="194" y="118" on="0"/>
        <pt x="220" y="77" on="0"/>
        <pt x="254" y="60" on="0"/>
      </contour>
    </TTGlyph>
    <TTGlyph name="Uacute" xMin="60" yMin="-10" xMax="490" yMax="870">
      <contour>
        <pt x="275" y="60" on="1"/>
        <pt x="296" y="60" on="0"/>
        <pt x="330" y="77" on="0"/>
        <pt x="356" y="118" on="0"/>
        <pt x="370" y="187" on="0"/>
        <pt x="370" y="240" on="1"/>
        <pt x="370" y="700" on="1"/>
        <pt x="490" y="700" on="1"/>
        <pt x="490" y="240" on="1"/>
        <pt x="490" y="105" on="0"/>
        <pt x="384" y="-10" on="0"/>
        <pt x="275" y="-10" on="1"/>
        <pt x="166" y="-10" on="0"/>
        <pt x="60" y="105" on="0"/>
        <pt x="60" y="240" on="1"/>
        <pt x="60" y="700" on="1"/>
        <pt x="180" y="700" on="1"/>
        <pt x="180" y="240" on="1"/>
        <pt x="180" y="187" on="0"/>
        <pt x="194" y="118" on="0"/>
        <pt x="220" y="77" on="0"/>
        <pt x="254" y="60" on="0"/>
      </contour>
      <contour>
        <pt x="230" y="740" on="1"/>
        <pt x="265" y="870" on="1"/>
        <pt x="380" y="870" on="1"/>
        <pt x="305" y="740" on="1"/>
      </contour>
    </TTGlyph>
    <TTGlyph name="Ucircumflex" xMin="60" yMin="-10" xMax="490" yMax="870">
      <contour>
        <pt x="275" y="60" on="1"/>
        <pt x="296" y="60" on="0"/>
        <pt x="330" y="77" on="0"/>
        <pt x="356" y="118" on="0"/>
        <pt x="370" y="187" on="0"/>
        <pt x="370" y="240" on="1"/>
        <pt x="370" y="700" on="1"/>
        <pt x="490" y="700" on="1"/>
        <pt x="490" y="240" on="1"/>
        <pt x="490" y="105" on="0"/>
        <pt x="384" y="-10" on="0"/>
        <pt x="275" y="-10" on="1"/>
        <pt x="166" y="-10" on="0"/>
        <pt x="60" y="105" on="0"/>
        <pt x="60" y="240" on="1"/>
        <pt x="60" y="700" on="1"/>
        <pt x="180" y="700" on="1"/>
        <pt x="180" y="240" on="1"/>
        <pt x="180" y="187" on="0"/>
        <pt x="194" y="118" on="0"/>
        <pt x="220" y="77" on="0"/>
        <pt x="254" y="60" on="0"/>
      </contour>
      <contour>
        <pt x="143" y="740" on="1"/>
        <pt x="223" y="870" on="1"/>
        <pt x="328" y="870" on="1"/>
        <pt x="408" y="740" on="1"/>
        <pt x="331" y="740" on="1"/>
        <pt x="275" y="810" on="1"/>
        <pt x="219" y="740" on="1"/>
      </contour>
    </TTGlyph>
    <TTGlyph name="Udieresis" xMin="60" yMin="-10" xMax="490" yMax="860">
      <contour>
        <pt x="275" y="60" on="1"/>
        <pt x="296" y="60" on="0"/>
        <pt x="330" y="77" on="0"/>
        <pt x="356" y="118" on="0"/>
        <pt x="370" y="187" on="0"/>
        <pt x="370" y="240" on="1"/>
        <pt x="370" y="700" on="1"/>
        <pt x="490" y="700" on="1"/>
        <pt x="490" y="240" on="1"/>
        <pt x="490" y="105" on="0"/>
        <pt x="384" y="-10" on="0"/>
        <pt x="275" y="-10" on="1"/>
        <pt x="166" y="-10" on="0"/>
        <pt x="60" y="105" on="0"/>
        <pt x="60" y="240" on="1"/>
        <pt x="60" y="700" on="1"/>
        <pt x="180" y="700" on="1"/>
        <pt x="180" y="240" on="1"/>
        <pt x="180" y="187" on="0"/>
        <pt x="194" y="118" on="0"/>
        <pt x="220" y="77" on="0"/>
        <pt x="254" y="60" on="0"/>
      </contour>
      <contour>
        <pt x="250" y="860" on="1"/>
        <pt x="250" y="740" on="1"/>
        <pt x="140" y="740" on="1"/>
        <pt x="140" y="860" on="1"/>
      </contour>
      <contour>
        <pt x="410" y="860" on="1"/>
        <pt x="410" y="740" on="1"/>
        <pt x="300" y="740" on="1"/>
        <pt x="300" y="860" on="1"/>
      </contour>
    </TTGlyph>
    <TTGlyph name="Ugrave" xMin="60" yMin="-10" xMax="490" yMax="870">
      <contour>
        <pt x="275" y="60" on="1"/>
        <pt x="296" y="60" on="0"/>
        <pt x="330" y="77" on="0"/>
        <pt x="356" y="118" on="0"/>
        <pt x="370" y="187" on="0"/>
        <pt x="370" y="240" on="1"/>
        <pt x="370" y="700" on="1"/>
        <pt x="490" y="700" on="1"/>
        <pt x="490" y="240" on="1"/>
        <pt x="490" y="105" on="0"/>
        <pt x="384" y="-10" on="0"/>
        <pt x="275" y="-10" on="1"/>
        <pt x="166" y="-10" on="0"/>
        <pt x="60" y="105" on="0"/>
        <pt x="60" y="240" on="1"/>
        <pt x="60" y="700" on="1"/>
        <pt x="180" y="700" on="1"/>
        <pt x="180" y="240" on="1"/>
        <pt x="180" y="187" on="0"/>
        <pt x="194" y="118" on="0"/>
        <pt x="220" y="77" on="0"/>
        <pt x="254" y="60" on="0"/>
      </contour>
      <contour>
        <pt x="245" y="740" on="1"/>
        <pt x="170" y="870" on="1"/>
        <pt x="285" y="870" on="1"/>
        <pt x="320" y="740" on="1"/>
      </contour>
    </TTGlyph>
    <TTGlyph name="Umacron" xMin="60" yMin="-10" xMax="490" yMax="830">
      <contour>
        <pt x="275" y="60" on="1"/>
        <pt x="296" y="60" on="0"/>
        <pt x="330" y="77" on="0"/>
        <pt x="356" y="118" on="0"/>
        <pt x="370" y="187" on="0"/>
        <pt x="370" y="240" on="1"/>
        <pt x="370" y="700" on="1"/>
        <pt x="490" y="700" on="1"/>
        <pt x="490" y="240" on="1"/>
        <pt x="490" y="105" on="0"/>
        <pt x="384" y="-10" on="0"/>
        <pt x="275" y="-10" on="1"/>
        <pt x="166" y="-10" on="0"/>
        <pt x="60" y="105" on="0"/>
        <pt x="60" y="240" on="1"/>
        <pt x="60" y="700" on="1"/>
        <pt x="180" y="700" on="1"/>
        <pt x="180" y="240" on="1"/>
        <pt x="180" y="187" on="0"/>
        <pt x="194" y="118" on="0"/>
        <pt x="220" y="77" on="0"/>
        <pt x="254" y="60" on="0"/>
      </contour>
      <contour>
        <pt x="155" y="830" on="1"/>
        <pt x="395" y="830" on="1"/>
        <pt x="395" y="760" on="1"/>
        <pt x="155" y="760" on="1"/>
      </contour>
    </TTGlyph>
    <TTGlyph name="Uogonek" xMin="60" yMin="-160" xMax="490" yMax="700">
      <contour>
        <pt x="275" y="60" on="1"/>
        <pt x="296" y="60" on="0"/>
        <pt x="330" y="77" on="0"/>
        <pt x="356" y="118" on="0"/>
        <pt x="370" y="187" on="0"/>
        <pt x="370" y="240" on="1"/>
        <pt x="370" y="700" on="1"/>
        <pt x="490" y="700" on="1"/>
        <pt x="490" y="240" on="1"/>
        <pt x="490" y="176" on="0"/>
        <pt x="467" y="85" on="0"/>
        <pt x="419" y="25" on="0"/>
        <pt x="348" y="-6" on="0"/>
        <pt x="300" y="-9" on="1"/>
        <pt x="300" y="-45" on="1"/>
        <pt x="300" y="-100" on="0"/>
        <pt x="354" y="-100" on="1"/>
        <pt x="390" y="-100" on="1"/>
        <pt x="390" y="-145" on="1"/>
        <pt x="380" y="-149" on="0"/>
        <pt x="369" y="-153" on="1"/>
        <pt x="359" y="-156" on="0"/>
        <pt x="331" y="-160" on="0"/>
        <pt x="314" y="-160" on="1"/>
        <pt x="272" y="-160" on="0"/>
        <pt x="224" y="-114" on="0"/>
        <pt x="224" y="-80" on="1"/>
        <pt x="224" y="-54" on="0"/>
        <pt x="238" y="-18" on="0"/>
        <pt x="243" y="-9" on="1"/>
        <pt x="151" y="-2" on="0"/>
        <pt x="60" y="115" on="0"/>
        <pt x="60" y="240" on="1"/>
        <pt x="60" y="700" on="1"/>
        <pt x="180" y="700" on="1"/>
        <pt x="180" y="240" on="1"/>
        <pt x="180" y="187" on="0"/>
        <pt x="194" y="118" on="0"/>
        <pt x="220" y="77" on="0"/>
        <pt x="254" y="60" on="0"/>
      </contour>
    </TTGlyph>
    <TTGlyph name="V" xMin="15" yMin="0" xMax="505" yMax="700">
      <contour>
        <pt x="140" y="700" on="1"/>
        <pt x="258" y="155" on="1"/>
        <pt x="262" y="155" on="1"/>
        <pt x="380" y="700" on="1"/>
        <pt x="505" y="700" on="1"/>
        <pt x="335" y="0" on="1"/>
        <pt x="185" y="0" on="1"/>
        <pt x="15" y="700" on="1"/>
      </contour>
    </TTGlyph>
    <TTGlyph name="W" xMin="15" yMin="0" xMax="735" yMax="700">
      <contour>
        <pt x="325" y="570" on="1"/>
        <pt x="425" y="570" on="1"/>
        <pt x="521" y="195" on="1"/>
        <pt x="525" y="195" on="1"/>
        <pt x="610" y="700" on="1"/>
        <pt x="735" y="700" on="1"/>
        <pt x="610" y="0" on="1"/>
        <pt x="480" y="0" on="1"/>
        <pt x="377" y="390" on="1"/>
        <pt x="373" y="390" on="1"/>
        <pt x="270" y="0" on="1"/>
        <pt x="140" y="0" on="1"/>
        <pt x="15" y="700" on="1"/>
        <pt x="140" y="700" on="1"/>
        <pt x="225" y="195" on="1"/>
        <pt x="229" y="195" on="1"/>
      </contour>
    </TTGlyph>
    <TTGlyph name="X" xMin="10" yMin="0" xMax="480" yMax="700">
      <contour>
        <pt x="150" y="700" on="1"/>
        <pt x="245" y="440" on="1"/>
        <pt x="340" y="700" on="1"/>
        <pt x="465" y="700" on="1"/>
        <pt x="335" y="360" on="1"/>
        <pt x="480" y="0" on="1"/>
        <pt x="355" y="0" on="1"/>
        <pt x="245" y="285" on="1"/>
        <pt x="135" y="0" on="1"/>
        <pt x="10" y="0" on="1"/>
        <pt x="155" y="360" on="1"/>
        <pt x="25" y="700" on="1"/>
      </contour>
    </TTGlyph>
    <TTGlyph name="Y" xMin="5" yMin="0" xMax="475" yMax="700">
      <contour>
        <pt x="238" y="365" on="1"/>
        <pt x="242" y="365" on="1"/>
        <pt x="350" y="700" on="1"/>
        <pt x="475" y="700" on="1"/>
        <pt x="300" y="210" on="1"/>
        <pt x="300" y="0" on="1"/>
        <pt x="180" y="0" on="1"/>
        <pt x="180" y="210" on="1"/>
        <pt x="5" y="700" on="1"/>
        <pt x="130" y="700" on="1"/>
      </contour>
    </TTGlyph>
    <TTGlyph name="Yacute" xMin="5" yMin="0" xMax="475" yMax="870">
      <contour>
        <pt x="238" y="365" on="1"/>
        <pt x="242" y="365" on="1"/>
        <pt x="350" y="700" on="1"/>
        <pt x="475" y="700" on="1"/>
        <pt x="300" y="210" on="1"/>
        <pt x="300" y="0" on="1"/>
        <pt x="180" y="0" on="1"/>
        <pt x="180" y="210" on="1"/>
        <pt x="5" y="700" on="1"/>
        <pt x="130" y="700" on="1"/>
      </contour>
      <contour>
        <pt x="199" y="740" on="1"/>
        <pt x="234" y="870" on="1"/>
        <pt x="349" y="870" on="1"/>
        <pt x="274" y="740" on="1"/>
      </contour>
    </TTGlyph>
    <TTGlyph name="Ydieresis" xMin="5" yMin="0" xMax="475" yMax="880">
      <contour>
        <pt x="238" y="365" on="1"/>
        <pt x="242" y="365" on="1"/>
        <pt x="350" y="700" on="1"/>
        <pt x="475" y="700" on="1"/>
        <pt x="300" y="210" on="1"/>
        <pt x="300" y="0" on="1"/>
        <pt x="180" y="0" on="1"/>
        <pt x="180" y="210" on="1"/>
        <pt x="5" y="700" on="1"/>
        <pt x="130" y="700" on="1"/>
      </contour>
      <contour>
        <pt x="215" y="880" on="1"/>
        <pt x="215" y="760" on="1"/>
        <pt x="105" y="760" on="1"/>
        <pt x="105" y="880" on="1"/>
      </contour>
      <contour>
        <pt x="375" y="880" on="1"/>
        <pt x="375" y="760" on="1"/>
        <pt x="265" y="760" on="1"/>
        <pt x="265" y="880" on="1"/>
      </contour>
    </TTGlyph>
    <TTGlyph name="Z" xMin="20" yMin="0" xMax="415" yMax="700">
      <contour>
        <pt x="155" y="80" on="1"/>
        <pt x="410" y="80" on="1"/>
        <pt x="410" y="0" on="1"/>
        <pt x="20" y="0" on="1"/>
        <pt x="20" y="75" on="1"/>
        <pt x="280" y="620" on="1"/>
        <pt x="25" y="620" on="1"/>
        <pt x="25" y="700" on="1"/>
        <pt x="415" y="700" on="1"/>
        <pt x="415" y="625" on="1"/>
      </contour>
    </TTGlyph>
    <TTGlyph name="Zacute" xMin="20" yMin="0" xMax="415" yMax="880">
      <contour>
        <pt x="175" y="750" on="1"/>
        <pt x="210" y="880" on="1"/>
        <pt x="325" y="880" on="1"/>
        <pt x="250" y="750" on="1"/>
      </contour>
      <contour>
        <pt x="155" y="80" on="1"/>
        <pt x="410" y="80" on="1"/>
        <pt x="410" y="0" on="1"/>
        <pt x="20" y="0" on="1"/>
        <pt x="20" y="75" on="1"/>
        <pt x="280" y="620" on="1"/>
        <pt x="25" y="620" on="1"/>
        <pt x="25" y="700" on="1"/>
        <pt x="415" y="700" on="1"/>
        <pt x="415" y="625" on="1"/>
      </contour>
    </TTGlyph>
    <TTGlyph name="Zcaron" xMin="20" yMin="0" xMax="415" yMax="890">
      <contour>
        <pt x="174" y="890" on="1"/>
        <pt x="230" y="820" on="1"/>
        <pt x="286" y="890" on="1"/>
        <pt x="363" y="890" on="1"/>
        <pt x="283" y="760" on="1"/>
        <pt x="178" y="760" on="1"/>
        <pt x="98" y="890" on="1"/>
      </contour>
      <contour>
        <pt x="155" y="80" on="1"/>
        <pt x="410" y="80" on="1"/>
        <pt x="410" y="0" on="1"/>
        <pt x="20" y="0" on="1"/>
        <pt x="20" y="75" on="1"/>
        <pt x="280" y="620" on="1"/>
        <pt x="25" y="620" on="1"/>
        <pt x="25" y="700" on="1"/>
        <pt x="415" y="700" on="1"/>
        <pt x="415" y="625" on="1"/>
      </contour>
    </TTGlyph>
    <TTGlyph name="Zdotaccent" xMin="20" yMin="0" xMax="415" yMax="880">
      <contour>
        <pt x="275" y="880" on="1"/>
        <pt x="275" y="760" on="1"/>
        <pt x="165" y="760" on="1"/>
        <pt x="165" y="880" on="1"/>
      </contour>
      <contour>
        <pt x="155" y="80" on="1"/>
        <pt x="410" y="80" on="1"/>
        <pt x="410" y="0" on="1"/>
        <pt x="20" y="0" on="1"/>
        <pt x="20" y="75" on="1"/>
        <pt x="280" y="620" on="1"/>
        <pt x="25" y="620" on="1"/>
        <pt x="25" y="700" on="1"/>
        <pt x="415" y="700" on="1"/>
        <pt x="415" y="625" on="1"/>
      </contour>
    </TTGlyph>
    <TTGlyph name="a" xMin="40" yMin="-10" xMax="410" yMax="510">
      <contour>
        <pt x="290" y="240" on="1"/>
        <pt x="235" y="240" on="1"/>
        <pt x="222" y="240" on="0"/>
        <pt x="195" y="232" on="0"/>
        <pt x="174" y="211" on="0"/>
        <pt x="160" y="176" on="0"/>
        <pt x="160" y="150" on="1"/>
        <pt x="160" y="124" on="0"/>
        <pt x="174" y="89" on="0"/>
        <pt x="195" y="68" on="0"/>
        <pt x="222" y="60" on="0"/>
        <pt x="235" y="60" on="1"/>
        <pt x="254" y="60" on="0"/>
        <pt x="282" y="72" on="0"/>
        <pt x="290" y="80" on="1"/>
      </contour>
      <contour>
        <pt x="195" y="-10" on="1"/>
        <pt x="163" y="-10" on="0"/>
        <pt x="107" y="3" on="0"/>
        <pt x="65" y="39" on="0"/>
        <pt x="40" y="101" on="0"/>
        <pt x="40" y="150" on="1"/>
        <pt x="40" y="199" on="0"/>
        <pt x="65" y="261" on="0"/>
        <pt x="109" y="297" on="0"/>
        <pt x="169" y="310" on="0"/>
        <pt x="205" y="310" on="1"/>
        <pt x="228" y="310" on="0"/>
        <pt x="271" y="304" on="0"/>
        <pt x="290" y="300" on="1"/>
        <pt x="290" y="340" on="1"/>
        <pt x="290" y="400" on="0"/>
        <pt x="234" y="440" on="0"/>
        <pt x="185" y="440" on="1"/>
        <pt x="85" y="440" on="1"/>
        <pt x="85" y="490" on="1"/>
        <pt x="108" y="498" on="0"/>
        <pt x="175" y="510" on="0"/>
        <pt x="205" y="510" on="1"/>
        <pt x="256" y="510" on="0"/>
        <pt x="332" y="496" on="0"/>
        <pt x="384" y="459" on="0"/>
        <pt x="410" y="392" on="0"/>
        <pt x="410" y="340" on="1"/>
        <pt x="410" y="0" on="1"/>
        <pt x="325" y="0" on="1"/>
        <pt x="310" y="30" on="1"/>
        <pt x="305" y="30" on="1"/>
        <pt x="289" y="15" on="0"/>
        <pt x="237" y="-10" on="0"/>
      </contour>
    </TTGlyph>
    <TTGlyph name="aacute" xMin="40" yMin="-10" xMax="410" yMax="690">
      <contour>
        <pt x="290" y="240" on="1"/>
        <pt x="235" y="240" on="1"/>
        <pt x="222" y="240" on="0"/>
        <pt x="195" y="232" on="0"/>
        <pt x="174" y="211" on="0"/>
        <pt x="160" y="176" on="0"/>
        <pt x="160" y="150" on="1"/>
        <pt x="160" y="124" on="0"/>
        <pt x="174" y="89" on="0"/>
        <pt x="195" y="68" on="0"/>
        <pt x="222" y="60" on="0"/>
        <pt x="235" y="60" on="1"/>
        <pt x="254" y="60" on="0"/>
        <pt x="282" y="72" on="0"/>
        <pt x="290" y="80" on="1"/>
      </contour>
      <contour>
        <pt x="195" y="-10" on="1"/>
        <pt x="163" y="-10" on="0"/>
        <pt x="107" y="3" on="0"/>
        <pt x="65" y="39" on="0"/>
        <pt x="40" y="101" on="0"/>
        <pt x="40" y="150" on="1"/>
        <pt x="40" y="199" on="0"/>
        <pt x="65" y="261" on="0"/>
        <pt x="109" y="297" on="0"/>
        <pt x="169" y="310" on="0"/>
        <pt x="205" y="310" on="1"/>
        <pt x="228" y="310" on="0"/>
        <pt x="271" y="304" on="0"/>
        <pt x="290" y="300" on="1"/>
        <pt x="290" y="340" on="1"/>
        <pt x="290" y="400" on="0"/>
        <pt x="234" y="440" on="0"/>
        <pt x="185" y="440" on="1"/>
        <pt x="85" y="440" on="1"/>
        <pt x="85" y="490" on="1"/>
        <pt x="108" y="498" on="0"/>
        <pt x="175" y="510" on="0"/>
        <pt x="205" y="510" on="1"/>
        <pt x="256" y="510" on="0"/>
        <pt x="332" y="496" on="0"/>
        <pt x="384" y="459" on="0"/>
        <pt x="410" y="392" on="0"/>
        <pt x="410" y="340" on="1"/>
        <pt x="410" y="0" on="1"/>
        <pt x="325" y="0" on="1"/>
        <pt x="310" y="30" on="1"/>
        <pt x="305" y="30" on="1"/>
        <pt x="289" y="15" on="0"/>
        <pt x="237" y="-10" on="0"/>
      </contour>
      <contour>
        <pt x="195" y="560" on="1"/>
        <pt x="230" y="690" on="1"/>
        <pt x="345" y="690" on="1"/>
        <pt x="270" y="560" on="1"/>
      </contour>
    </TTGlyph>
    <TTGlyph name="acircumflex" xMin="40" yMin="-10" xMax="410" yMax="680">
      <contour>
        <pt x="290" y="240" on="1"/>
        <pt x="235" y="240" on="1"/>
        <pt x="222" y="240" on="0"/>
        <pt x="195" y="232" on="0"/>
        <pt x="174" y="211" on="0"/>
        <pt x="160" y="176" on="0"/>
        <pt x="160" y="150" on="1"/>
        <pt x="160" y="124" on="0"/>
        <pt x="174" y="89" on="0"/>
        <pt x="195" y="68" on="0"/>
        <pt x="222" y="60" on="0"/>
        <pt x="235" y="60" on="1"/>
        <pt x="254" y="60" on="0"/>
        <pt x="282" y="72" on="0"/>
        <pt x="290" y="80" on="1"/>
      </contour>
      <contour>
        <pt x="195" y="-10" on="1"/>
        <pt x="163" y="-10" on="0"/>
        <pt x="107" y="3" on="0"/>
        <pt x="65" y="39" on="0"/>
        <pt x="40" y="101" on="0"/>
        <pt x="40" y="150" on="1"/>
        <pt x="40" y="199" on="0"/>
        <pt x="65" y="261" on="0"/>
        <pt x="109" y="297" on="0"/>
        <pt x="169" y="310" on="0"/>
        <pt x="205" y="310" on="1"/>
        <pt x="228" y="310" on="0"/>
        <pt x="271" y="304" on="0"/>
        <pt x="290" y="300" on="1"/>
        <pt x="290" y="340" on="1"/>
        <pt x="290" y="400" on="0"/>
        <pt x="234" y="440" on="0"/>
        <pt x="185" y="440" on="1"/>
        <pt x="85" y="440" on="1"/>
        <pt x="85" y="490" on="1"/>
        <pt x="108" y="498" on="0"/>
        <pt x="175" y="510" on="0"/>
        <pt x="205" y="510" on="1"/>
        <pt x="256" y="510" on="0"/>
        <pt x="332" y="496" on="0"/>
        <pt x="384" y="459" on="0"/>
        <pt x="410" y="392" on="0"/>
        <pt x="410" y="340" on="1"/>
        <pt x="410" y="0" on="1"/>
        <pt x="325" y="0" on="1"/>
        <pt x="310" y="30" on="1"/>
        <pt x="305" y="30" on="1"/>
        <pt x="289" y="15" on="0"/>
        <pt x="237" y="-10" on="0"/>
      </contour>
      <contour>
        <pt x="110" y="550" on="1"/>
        <pt x="190" y="680" on="1"/>
        <pt x="295" y="680" on="1"/>
        <pt x="375" y="550" on="1"/>
        <pt x="298" y="550" on="1"/>
        <pt x="242" y="620" on="1"/>
        <pt x="186" y="550" on="1"/>
      </contour>
    </TTGlyph>
    <TTGlyph name="acute" xMin="20" yMin="560" xMax="170" yMax="690">
      <contour>
        <pt x="20" y="560" on="1"/>
        <pt x="55" y="690" on="1"/>
        <pt x="170" y="690" on="1"/>
        <pt x="95" y="560" on="1"/>
      </contour>
    </TTGlyph>
    <TTGlyph name="adieresis" xMin="40" yMin="-10" xMax="410" yMax="680">
      <contour>
        <pt x="290" y="240" on="1"/>
        <pt x="235" y="240" on="1"/>
        <pt x="222" y="240" on="0"/>
        <pt x="195" y="232" on="0"/>
        <pt x="174" y="211" on="0"/>
        <pt x="160" y="176" on="0"/>
        <pt x="160" y="150" on="1"/>
        <pt x="160" y="124" on="0"/>
        <pt x="174" y="89" on="0"/>
        <pt x="195" y="68" on="0"/>
        <pt x="222" y="60" on="0"/>
        <pt x="235" y="60" on="1"/>
        <pt x="254" y="60" on="0"/>
        <pt x="282" y="72" on="0"/>
        <pt x="290" y="80" on="1"/>
      </contour>
      <contour>
        <pt x="195" y="-10" on="1"/>
        <pt x="163" y="-10" on="0"/>
        <pt x="107" y="3" on="0"/>
        <pt x="65" y="39" on="0"/>
        <pt x="40" y="101" on="0"/>
        <pt x="40" y="150" on="1"/>
        <pt x="40" y="199" on="0"/>
        <pt x="65" y="261" on="0"/>
        <pt x="109" y="297" on="0"/>
        <pt x="169" y="310" on="0"/>
        <pt x="205" y="310" on="1"/>
        <pt x="228" y="310" on="0"/>
        <pt x="271" y="304" on="0"/>
        <pt x="290" y="300" on="1"/>
        <pt x="290" y="340" on="1"/>
        <pt x="290" y="400" on="0"/>
        <pt x="234" y="440" on="0"/>
        <pt x="185" y="440" on="1"/>
        <pt x="85" y="440" on="1"/>
        <pt x="85" y="490" on="1"/>
        <pt x="108" y="498" on="0"/>
        <pt x="175" y="510" on="0"/>
        <pt x="205" y="510" on="1"/>
        <pt x="256" y="510" on="0"/>
        <pt x="332" y="496" on="0"/>
        <pt x="384" y="459" on="0"/>
        <pt x="410" y="392" on="0"/>
        <pt x="410" y="340" on="1"/>
        <pt x="410" y="0" on="1"/>
        <pt x="325" y="0" on="1"/>
        <pt x="310" y="30" on="1"/>
        <pt x="305" y="30" on="1"/>
        <pt x="289" y="15" on="0"/>
        <pt x="237" y="-10" on="0"/>
      </contour>
      <contour>
        <pt x="215" y="680" on="1"/>
        <pt x="215" y="560" on="1"/>
        <pt x="105" y="560" on="1"/>
        <pt x="105" y="680" on="1"/>
      </contour>
      <contour>
        <pt x="375" y="680" on="1"/>
        <pt x="375" y="560" on="1"/>
        <pt x="265" y="560" on="1"/>
        <pt x="265" y="680" on="1"/>
      </contour>
    </TTGlyph>
    <TTGlyph name="ae" xMin="40" yMin="-10" xMax="670" yMax="510">
      <contour>
        <pt x="290" y="220" on="1"/>
        <pt x="235" y="220" on="1"/>
        <pt x="222" y="220" on="0"/>
        <pt x="195" y="212" on="0"/>
        <pt x="174" y="193" on="0"/>
        <pt x="160" y="162" on="0"/>
        <pt x="160" y="140" on="1"/>
        <pt x="160" y="117" on="0"/>
        <pt x="174" y="87" on="0"/>
        <pt x="195" y="68" on="0"/>
        <pt x="222" y="60" on="0"/>
        <pt x="235" y="60" on="1"/>
        <pt x="254" y="60" on="0"/>
        <pt x="282" y="72" on="0"/>
        <pt x="290" y="80" on="1"/>
      </contour>
      <contour>
        <pt x="550" y="290" on="1"/>
        <pt x="550" y="337" on="0"/>
        <pt x="539" y="397" on="0"/>
        <pt x="521" y="432" on="0"/>
        <pt x="495" y="445" on="0"/>
        <pt x="480" y="445" on="1"/>
        <pt x="465" y="445" on="0"/>
        <pt x="439" y="432" on="0"/>
        <pt x="421" y="397" on="0"/>
        <pt x="410" y="337" on="0"/>
        <pt x="410" y="290" on="1"/>
      </contour>
      <contour>
        <pt x="205" y="-10" on="1"/>
        <pt x="169" y="-10" on="0"/>
        <pt x="109" y="3" on="0"/>
        <pt x="65" y="37" on="0"/>
        <pt x="40" y="95" on="0"/>
        <pt x="40" y="140" on="1"/>
        <pt x="40" y="185" on="0"/>
        <pt x="65" y="243" on="0"/>
        <pt x="109" y="277" on="0"/>
        <pt x="169" y="290" on="0"/>
        <pt x="205" y="290" on="1"/>
        <pt x="228" y="290" on="0"/>
        <pt x="271" y="284" on="0"/>
        <pt x="290" y="280" on="1"/>
        <pt x="290" y="340" on="1"/>
        <pt x="290" y="400" on="0"/>
        <pt x="234" y="440" on="0"/>
        <pt x="185" y="440" on="1"/>
        <pt x="85" y="440" on="1"/>
        <pt x="85" y="490" on="1"/>
        <pt x="108" y="498" on="0"/>
        <pt x="175" y="510" on="0"/>
        <pt x="205" y="510" on="1"/>
        <pt x="262" y="510" on="0"/>
        <pt x="332" y="476" on="0"/>
        <pt x="355" y="450" on="1"/>
        <pt x="378" y="476" on="0"/>
        <pt x="438" y="510" on="0"/>
        <pt x="480" y="510" on="1"/>
        <pt x="525" y="510" on="0"/>
        <pt x="596" y="481" on="0"/>
        <pt x="644" y="418" on="0"/>
        <pt x="670" y="319" on="0"/>
        <pt x="670" y="250" on="1"/>
        <pt x="670" y="220" on="1"/>
        <pt x="410" y="220" on="1"/>
        <pt x="410" y="130" on="0"/>
        <pt x="471" y="60" on="0"/>
        <pt x="535" y="60" on="1"/>
        <pt x="645" y="60" on="1"/>
        <pt x="645" y="10" on="1"/>
        <pt x="622" y="2" on="0"/>
        <pt x="553" y="-10" on="0"/>
        <pt x="515" y="-10" on="1"/>
        <pt x="451" y="-10" on="0"/>
        <pt x="378" y="24" on="0"/>
        <pt x="355" y="50" on="1"/>
        <pt x="344" y="37" on="0"/>
        <pt x="317" y="15" on="0"/>
        <pt x="281" y="-1" on="0"/>
        <pt x="235" y="-10" on="0"/>
      </contour>
    </TTGlyph>
    <TTGlyph name="afii10017" xMin="15" yMin="0" xMax="525" yMax="700">
      <contour>
        <pt x="184" y="175" on="1"/>
        <pt x="140" y="0" on="1"/>
        <pt x="15" y="0" on="1"/>
        <pt x="195" y="700" on="1"/>
        <pt x="345" y="700" on="1"/>
        <pt x="525" y="0" on="1"/>
        <pt x="400" y="0" on="1"/>
        <pt x="356" y="175" on="1"/>
      </contour>
      <contour>
        <pt x="272" y="540" on="1"/>
        <pt x="268" y="540" on="1"/>
        <pt x="200" y="255" on="1"/>
        <pt x="339" y="255" on="1"/>
      </contour>
    </TTGlyph>
    <TTGlyph name="afii10018" xMin="70" yMin="-10" xMax="480" yMax="700">
      <contour>
        <pt x="190" y="430" on="1"/>
        <pt x="245" y="430" on="1"/>
        <pt x="369" y="430" on="0"/>
        <pt x="480" y="321" on="0"/>
        <pt x="480" y="205" on="1"/>
        <pt x="480" y="96" on="0"/>
        <pt x="369" y="-10" on="0"/>
        <pt x="245" y="-10" on="1"/>
        <pt x="188" y="-10" on="0"/>
        <pt x="108" y="-1" on="0"/>
        <pt x="70" y="10" on="1"/>
        <pt x="70" y="700" on="1"/>
        <pt x="445" y="700" on="1"/>
        <pt x="445" y="620" on="1"/>
        <pt x="190" y="620" on="1"/>
      </contour>
      <contour>
        <pt x="190" y="350" on="1"/>
        <pt x="190" y="65" on="1"/>
        <pt x="245" y="65" on="1"/>
        <pt x="302" y="65" on="0"/>
        <pt x="360" y="130" on="0"/>
        <pt x="360" y="205" on="1"/>
        <pt x="360" y="284" on="0"/>
        <pt x="302" y="350" on="0"/>
        <pt x="245" y="350" on="1"/>
      </contour>
    </TTGlyph>
    <TTGlyph name="afii10019" xMin="70" yMin="-10" xMax="495" yMax="710">
      <contour>
        <pt x="370" y="373" on="1"/>
        <pt x="430" y="352" on="0"/>
        <pt x="495" y="258" on="0"/>
        <pt x="495" y="190" on="1"/>
        <pt x="495" y="92" on="0"/>
        <pt x="380" y="-10" on="0"/>
        <pt x="245" y="-10" on="1"/>
        <pt x="188" y="-10" on="0"/>
        <pt x="108" y="-1" on="0"/>
        <pt x="70" y="10" on="1"/>
        <pt x="70" y="690" on="1"/>
        <pt x="108" y="701" on="0"/>
        <pt x="188" y="710" on="0"/>
        <pt x="245" y="710" on="1"/>
        <pt x="358" y="710" on="0"/>
        <pt x="465" y="612" on="0"/>
        <pt x="465" y="525" on="1"/>
        <pt x="465" y="480" on="0"/>
        <pt x="415" y="398" on="0"/>
        <pt x="370" y="377" on="1"/>
      </contour>
      <contour>
        <pt x="190" y="330" on="1"/>
        <pt x="190" y="65" on="1"/>
        <pt x="245" y="65" on="1"/>
        <pt x="309" y="65" on="0"/>
        <pt x="370" y="127" on="0"/>
        <pt x="370" y="195" on="1"/>
        <pt x="370" y="267" on="0"/>
        <pt x="309" y="330" on="0"/>
        <pt x="245" y="330" on="1"/>
      </contour>
      <contour>
        <pt x="235" y="405" on="1"/>
        <pt x="284" y="405" on="0"/>
        <pt x="340" y="463" on="0"/>
        <pt x="340" y="520" on="1"/>
        <pt x="340" y="577" on="0"/>
        <pt x="284" y="635" on="0"/>
        <pt x="235" y="635" on="1"/>
        <pt x="190" y="635" on="1"/>
        <pt x="190" y="405" on="1"/>
      </contour>
    </TTGlyph>
    <TTGlyph name="afii10020" xMin="70" yMin="0" xMax="415" yMax="700">
      <contour>
        <pt x="70" y="700" on="1"/>
        <pt x="415" y="700" on="1"/>
        <pt x="415" y="620" on="1"/>
        <pt x="190" y="620" on="1"/>
        <pt x="190" y="0" on="1"/>
        <pt x="70" y="0" on="1"/>
      </contour>
    </TTGlyph>
    <TTGlyph name="afii10021" xMin="10" yMin="-150" xMax="555" yMax="700">
      <contour>
        <pt x="370" y="80" on="1"/>
        <pt x="370" y="630" on="1"/>
        <pt x="247" y="630" on="1"/>
        <pt x="230" y="275" on="1"/>
        <pt x="228" y="224" on="0"/>
        <pt x="212" y="151" on="0"/>
        <pt x="203" y="127" on="1"/>
        <pt x="192" y="99" on="0"/>
        <pt x="180" y="80" on="1"/>
      </contour>
      <contour>
        <pt x="125" y="0" on="1"/>
        <pt x="121" y="-45" on="0"/>
        <pt x="100" y="-120" on="0"/>
        <pt x="85" y="-150" on="1"/>
        <pt x="10" y="-150" on="1"/>
        <pt x="10" y="80" on="1"/>
        <pt x="60" y="80" on="1"/>
        <pt x="72" y="99" on="0"/>
        <pt x="83" y="127" on="1"/>
        <pt x="92" y="151" on="0"/>
        <pt x="108" y="224" on="0"/>
        <pt x="110" y="275" on="1"/>
        <pt x="130" y="700" on="1"/>
        <pt x="490" y="700" on="1"/>
        <pt x="490" y="80" on="1"/>
        <pt x="555" y="80" on="1"/>
        <pt x="555" y="-150" on="1"/>
        <pt x="480" y="-150" on="1"/>
        <pt x="465" y="-120" on="0"/>
        <pt x="444" y="-45" on="0"/>
        <pt x="440" y="0" on="1"/>
      </contour>
    </TTGlyph>
    <TTGlyph name="afii10022" xMin="70" yMin="0" xMax="435" yMax="700">
      <contour>
        <pt x="190" y="80" on="1"/>
        <pt x="435" y="80" on="1"/>
        <pt x="435" y="0" on="1"/>
        <pt x="70" y="0" on="1"/>
        <pt x="70" y="700" on="1"/>
        <pt x="435" y="700" on="1"/>
        <pt x="435" y="620" on="1"/>
        <pt x="190" y="620" on="1"/>
        <pt x="190" y="405" on="1"/>
        <pt x="405" y="405" on="1"/>
        <pt x="405" y="325" on="1"/>
        <pt x="190" y="325" on="1"/>
      </contour>
    </TTGlyph>
    <TTGlyph name="afii10023" xMin="70" yMin="0" xMax="435" yMax="880">
      <contour>
        <pt x="190" y="80" on="1"/>
        <pt x="435" y="80" on="1"/>
        <pt x="435" y="0" on="1"/>
        <pt x="70" y="0" on="1"/>
        <pt x="70" y="700" on="1"/>
        <pt x="435" y="700" on="1"/>
        <pt x="435" y="620" on="1"/>
        <pt x="190" y="620" on="1"/>
        <pt x="190" y="405" on="1"/>
        <pt x="405" y="405" on="1"/>
        <pt x="405" y="325" on="1"/>
        <pt x="190" y="325" on="1"/>
      </contour>
      <contour>
        <pt x="225" y="880" on="1"/>
        <pt x="225" y="760" on="1"/>
        <pt x="115" y="760" on="1"/>
        <pt x="115" y="880" on="1"/>
      </contour>
      <contour>
        <pt x="385" y="880" on="1"/>
        <pt x="385" y="760" on="1"/>
        <pt x="275" y="760" on="1"/>
        <pt x="275" y="880" on="1"/>
      </contour>
    </TTGlyph>
    <TTGlyph name="afii10024" xMin="5" yMin="-10" xMax="765" yMax="710">
      <contour>
        <pt x="210" y="367" on="1"/>
        <pt x="180" y="377" on="0"/>
        <pt x="138" y="430" on="0"/>
        <pt x="120" y="490" on="1"/>
        <pt x="90" y="590" on="1"/>
        <pt x="82" y="616" on="0"/>
        <pt x="49" y="645" on="0"/>
        <pt x="15" y="645" on="1"/>
        <pt x="15" y="700" on="1"/>
        <pt x="22" y="702" on="0"/>
        <pt x="33" y="705" on="1"/>
        <pt x="42" y="707" on="0"/>
        <pt x="68" y="710" on="0"/>
        <pt x="85" y="710" on="1"/>
        <pt x="141" y="710" on="0"/>
        <pt x="197" y="650" on="0"/>
        <pt x="215" y="590" on="1"/>
        <pt x="245" y="490" on="1"/>
        <pt x="259" y="441" on="0"/>
        <pt x="291" y="405" on="0"/>
        <pt x="310" y="405" on="1"/>
        <pt x="325" y="405" on="1"/>
        <pt x="325" y="700" on="1"/>
        <pt x="445" y="700" on="1"/>
        <pt x="445" y="405" on="1"/>
        <pt x="460" y="405" on="1"/>
        <pt x="479" y="405" on="0"/>
        <pt x="511" y="441" on="0"/>
        <pt x="525" y="490" on="1"/>
        <pt x="555" y="590" on="1"/>
        <pt x="573" y="650" on="0"/>
        <pt x="629" y="710" on="0"/>
        <pt x="685" y="710" on="1"/>
        <pt x="702" y="710" on="0"/>
        <pt x="728" y="707" on="0"/>
        <pt x="737" y="705" on="1"/>
        <pt x="748" y="702" on="0"/>
        <pt x="755" y="700" on="1"/>
        <pt x="755" y="645" on="1"/>
        <pt x="721" y="645" on="0"/>
        <pt x="688" y="616" on="0"/>
        <pt x="680" y="590" on="1"/>
        <pt x="650" y="490" on="1"/>
        <pt x="632" y="430" on="0"/>
        <pt x="590" y="377" on="0"/>
        <pt x="560" y="367" on="1"/>
        <pt x="560" y="363" on="1"/>
        <pt x="575" y="358" on="0"/>
        <pt x="605" y="341" on="0"/>
        <pt x="632" y="312" on="0"/>
        <pt x="653" y="270" on="0"/>
        <pt x="660" y="240" on="1"/>
        <pt x="690" y="110" on="1"/>
        <pt x="695" y="87" on="0"/>
        <pt x="731" y="55" on="0"/>
        <pt x="765" y="55" on="1"/>
        <pt x="765" y="0" on="1"/>
        <pt x="758" y="-3" on="0"/>
        <pt x="747" y="-5" on="1"/>
        <pt x="727" y="-10" on="0"/>
        <pt x="695" y="-10" on="1"/>
        <pt x="638" y="-10" on="0"/>
        <pt x="579" y="50" on="0"/>
        <pt x="565" y="110" on="1"/>
        <pt x="535" y="240" on="1"/>
        <pt x="524" y="289" on="0"/>
        <pt x="486" y="325" on="0"/>
        <pt x="460" y="325" on="1"/>
        <pt x="445" y="325" on="1"/>
        <pt x="445" y="0" on="1"/>
        <pt x="325" y="0" on="1"/>
        <pt x="325" y="325" on="1"/>
        <pt x="310" y="325" on="1"/>
        <pt x="284" y="325" on="0"/>
        <pt x="246" y="289" on="0"/>
        <pt x="235" y="240" on="1"/>
        <pt x="205" y="110" on="1"/>
        <pt x="191" y="50" on="0"/>
        <pt x="132" y="-10" on="0"/>
        <pt x="75" y="-10" on="1"/>
        <pt x="43" y="-10" on="0"/>
        <pt x="23" y="-5" on="1"/>
        <pt x="12" y="-3" on="0"/>
        <pt x="5" y="0" on="1"/>
        <pt x="5" y="55" on="1"/>
        <pt x="39" y="55" on="0"/>
        <pt x="75" y="87" on="0"/>
        <pt x="80" y="110" on="1"/>
        <pt x="110" y="240" on="1"/>
        <pt x="117" y="270" on="0"/>
        <pt x="138" y="312" on="0"/>
        <pt x="165" y="341" on="0"/>
        <pt x="195" y="358" on="0"/>
        <pt x="210" y="363" on="1"/>
      </contour>
    </TTGlyph>
    <TTGlyph name="afii10025" xMin="15" yMin="-10" xMax="415" yMax="710">
      <contour>
        <pt x="165" y="65" on="1"/>
        <pt x="229" y="65" on="0"/>
        <pt x="290" y="127" on="0"/>
        <pt x="290" y="195" on="1"/>
        <pt x="290" y="263" on="0"/>
        <pt x="229" y="325" on="0"/>
        <pt x="165" y="325" on="1"/>
        <pt x="85" y="325" on="1"/>
        <pt x="85" y="405" on="1"/>
        <pt x="155" y="405" on="1"/>
        <pt x="270" y="405" on="0"/>
        <pt x="270" y="530" on="1"/>
        <pt x="270" y="579" on="0"/>
        <pt x="212" y="635" on="0"/>
        <pt x="155" y="635" on="1"/>
        <pt x="25" y="635" on="1"/>
        <pt x="25" y="690" on="1"/>
        <pt x="48" y="698" on="0"/>
        <pt x="127" y="710" on="0"/>
        <pt x="165" y="710" on="1"/>
        <pt x="225" y="710" on="0"/>
        <pt x="312" y="685" on="0"/>
        <pt x="368" y="638" on="0"/>
        <pt x="395" y="571" on="0"/>
        <pt x="395" y="530" on="1"/>
        <pt x="395" y="466" on="0"/>
        <pt x="335" y="393" on="0"/>
        <pt x="290" y="372" on="1"/>
        <pt x="290" y="368" on="1"/>
        <pt x="350" y="351" on="0"/>
        <pt x="415" y="255" on="0"/>
        <pt x="415" y="195" on="1"/>
        <pt x="415" y="94" on="0"/>
        <pt x="300" y="-10" on="0"/>
        <pt x="165" y="-10" on="1"/>
        <pt x="120" y="-10" on="0"/>
        <pt x="38" y="2" on="0"/>
        <pt x="15" y="10" on="1"/>
        <pt x="15" y="65" on="1"/>
      </contour>
    </TTGlyph>
    <TTGlyph name="afii10026" xMin="70" yMin="0" xMax="500" yMax="700">
      <contour>
        <pt x="190" y="0" on="1"/>
        <pt x="70" y="0" on="1"/>
        <pt x="70" y="700" on="1"/>
        <pt x="185" y="700" on="1"/>
        <pt x="185" y="240" on="1"/>
        <pt x="190" y="240" on="1"/>
        <pt x="375" y="700" on="1"/>
        <pt x="500" y="700" on="1"/>
        <pt x="500" y="0" on="1"/>
        <pt x="385" y="0" on="1"/>
        <pt x="385" y="470" on="1"/>
        <pt x="380" y="470" on="1"/>
      </contour>
    </TTGlyph>
    <TTGlyph name="afii10027" xMin="70" yMin="0" xMax="500" yMax="885">
      <contour>
        <pt x="285" y="840" on="1"/>
        <pt x="315" y="840" on="0"/>
        <pt x="365" y="870" on="0"/>
        <pt x="380" y="885" on="1"/>
        <pt x="430" y="835" on="1"/>
        <pt x="407" y="797" on="0"/>
        <pt x="334" y="755" on="0"/>
        <pt x="285" y="755" on="1"/>
        <pt x="236" y="755" on="0"/>
        <pt x="163" y="797" on="0"/>
        <pt x="140" y="835" on="1"/>
        <pt x="190" y="885" on="1"/>
        <pt x="205" y="870" on="0"/>
        <pt x="255" y="840" on="0"/>
      </contour>
      <contour>
        <pt x="190" y="0" on="1"/>
        <pt x="70" y="0" on="1"/>
        <pt x="70" y="700" on="1"/>
        <pt x="185" y="700" on="1"/>
        <pt x="185" y="240" on="1"/>
        <pt x="190" y="240" on="1"/>
        <pt x="375" y="700" on="1"/>
        <pt x="500" y="700" on="1"/>
        <pt x="500" y="0" on="1"/>
        <pt x="385" y="0" on="1"/>
        <pt x="385" y="470" on="1"/>
        <pt x="380" y="470" on="1"/>
      </contour>
    </TTGlyph>
    <TTGlyph name="afii10028" xMin="70" yMin="-10" xMax="515" yMax="710">
      <contour>
        <pt x="310" y="363" on="1"/>
        <pt x="325" y="358" on="0"/>
        <pt x="355" y="341" on="0"/>
        <pt x="382" y="312" on="0"/>
        <pt x="403" y="270" on="0"/>
        <pt x="410" y="240" on="1"/>
        <pt x="440" y="110" on="1"/>
        <pt x="445" y="87" on="0"/>
        <pt x="481" y="55" on="0"/>
        <pt x="515" y="55" on="1"/>
        <pt x="515" y="0" on="1"/>
        <pt x="508" y="-3" on="0"/>
        <pt x="497" y="-5" on="1"/>
        <pt x="477" y="-10" on="0"/>
        <pt x="445" y="-10" on="1"/>
        <pt x="388" y="-10" on="0"/>
        <pt x="329" y="50" on="0"/>
        <pt x="315" y="110" on="1"/>
        <pt x="285" y="240" on="1"/>
        <pt x="274" y="289" on="0"/>
        <pt x="236" y="325" on="0"/>
        <pt x="210" y="325" on="1"/>
        <pt x="190" y="325" on="1"/>
        <pt x="190" y="0" on="1"/>
        <pt x="70" y="0" on="1"/>
        <pt x="70" y="700" on="1"/>
        <pt x="190" y="700" on="1"/>
        <pt x="190" y="405" on="1"/>
        <pt x="210" y="405" on="1"/>
        <pt x="229" y="405" on="0"/>
        <pt x="261" y="441" on="0"/>
        <pt x="275" y="490" on="1"/>
        <pt x="305" y="590" on="1"/>
        <pt x="323" y="650" on="0"/>
        <pt x="379" y="710" on="0"/>
        <pt x="435" y="710" on="1"/>
        <pt x="452" y="710" on="0"/>
        <pt x="478" y="707" on="0"/>
        <pt x="487" y="705" on="1"/>
        <pt x="498" y="702" on="0"/>
        <pt x="505" y="700" on="1"/>
        <pt x="505" y="645" on="1"/>
        <pt x="471" y="645" on="0"/>
        <pt x="438" y="616" on="0"/>
        <pt x="430" y="590" on="1"/>
        <pt x="400" y="490" on="1"/>
        <pt x="382" y="430" on="0"/>
        <pt x="340" y="377" on="0"/>
        <pt x="310" y="367" on="1"/>
      </contour>
    </TTGlyph>
    <TTGlyph name="afii10029" xMin="0" yMin="-10" xMax="490" yMax="700">
      <contour>
        <pt x="70" y="-10" on="1"/>
        <pt x="38" y="-10" on="0"/>
        <pt x="18" y="-5" on="1"/>
        <pt x="7" y="-3" on="0"/>
        <pt x="0" y="0" on="1"/>
        <pt x="0" y="55" on="1"/>
        <pt x="19" y="55" on="0"/>
        <pt x="51" y="71" on="0"/>
        <pt x="77" y="108" on="0"/>
        <pt x="93" y="167" on="0"/>
        <pt x="95" y="210" on="1"/>
        <pt x="120" y="700" on="1"/>
        <pt x="490" y="700" on="1"/>
        <pt x="490" y="0" on="1"/>
        <pt x="370" y="0" on="1"/>
        <pt x="370" y="620" on="1"/>
        <pt x="236" y="620" on="1"/>
        <pt x="215" y="210" on="1"/>
        <pt x="212" y="150" on="0"/>
        <pt x="188" y="66" on="0"/>
        <pt x="151" y="14" on="0"/>
        <pt x="100" y="-10" on="0"/>
      </contour>
    </TTGlyph>
    <TTGlyph name="afii10030" xMin="50" yMin="0" xMax="710" yMax="700">
      <contour>
        <pt x="220" y="700" on="1"/>
        <pt x="378" y="225" on="1"/>
        <pt x="382" y="225" on="1"/>
        <pt x="540" y="700" on="1"/>
        <pt x="670" y="700" on="1"/>
        <pt x="710" y="0" on="1"/>
        <pt x="595" y="0" on="1"/>
        <pt x="568" y="474" on="1"/>
        <pt x="564" y="474" on="1"/>
        <pt x="435" y="85" on="1"/>
        <pt x="325" y="85" on="1"/>
        <pt x="196" y="474" on="1"/>
        <pt x="192" y="474" on="1"/>
        <pt x="165" y="0" on="1"/>
        <pt x="50" y="0" on="1"/>
        <pt x="90" y="700" on="1"/>
      </contour>
    </TTGlyph>
    <TTGlyph name="afii10031" xMin="70" yMin="0" xMax="490" yMax="700">
      <contour>
        <pt x="490" y="700" on="1"/>
        <pt x="490" y="0" on="1"/>
        <pt x="370" y="0" on="1"/>
        <pt x="370" y="315" on="1"/>
        <pt x="190" y="315" on="1"/>
        <pt x="190" y="0" on="1"/>
        <pt x="70" y="0" on="1"/>
        <pt x="70" y="700" on="1"/>
        <pt x="190" y="700" on="1"/>
        <pt x="190" y="395" on="1"/>
        <pt x="370" y="395" on="1"/>
        <pt x="370" y="700" on="1"/>
      </contour>
    </TTGlyph>
    <TTGlyph name="afii10032" xMin="45" yMin="-10" xMax="505" yMax="710">
      <contour>
        <pt x="275" y="60" on="1"/>
        <pt x="296" y="60" on="0"/>
        <pt x="335" y="86" on="0"/>
        <pt x="366" y="152" on="0"/>
        <pt x="385" y="264" on="0"/>
        <pt x="385" y="350" on="1"/>
        <pt x="385" y="436" on="0"/>
        <pt x="366" y="548" on="0"/>
        <pt x="335" y="614" on="0"/>
        <pt x="296" y="640" on="0"/>
        <pt x="275" y="640" on="1"/>
        <pt x="254" y="640" on="0"/>
        <pt x="215" y="614" on="0"/>
        <pt x="184" y="548" on="0"/>
        <pt x="165" y="436" on="0"/>
        <pt x="165" y="350" on="1"/>
        <pt x="165" y="264" on="0"/>
        <pt x="184" y="152" on="0"/>
        <pt x="215" y="86" on="0"/>
        <pt x="254" y="60" on="0"/>
      </contour>
      <contour>
        <pt x="275" y="710" on="1"/>
        <pt x="327" y="710" on="0"/>
        <pt x="412" y="673" on="0"/>
        <pt x="472" y="589" on="0"/>
        <pt x="505" y="451" on="0"/>
        <pt x="505" y="350" on="1"/>
        <pt x="505" y="249" on="0"/>
        <pt x="472" y="111" on="0"/>
        <pt x="412" y="27" on="0"/>
        <pt x="327" y="-10" on="0"/>
        <pt x="275" y="-10" on="1"/>
        <pt x="222" y="-10" on="0"/>
        <pt x="137" y="27" on="0"/>
        <pt x="77" y="111" on="0"/>
        <pt x="45" y="249" on="0"/>
        <pt x="45" y="350" on="1"/>
        <pt x="45" y="451" on="0"/>
        <pt x="77" y="589" on="0"/>
        <pt x="137" y="673" on="0"/>
        <pt x="222" y="710" on="0"/>
      </contour>
    </TTGlyph>
    <TTGlyph name="afii10033" xMin="70" yMin="0" xMax="490" yMax="700">
      <contour>
        <pt x="490" y="700" on="1"/>
        <pt x="490" y="0" on="1"/>
        <pt x="370" y="0" on="1"/>
        <pt x="370" y="620" on="1"/>
        <pt x="190" y="620" on="1"/>
        <pt x="190" y="0" on="1"/>
        <pt x="70" y="0" on="1"/>
        <pt x="70" y="700" on="1"/>
      </contour>
    </TTGlyph>
    <TTGlyph name="afii10034" xMin="70" yMin="0" xMax="480" yMax="710">
      <contour>
        <pt x="245" y="280" on="1"/>
        <pt x="273" y="280" on="0"/>
        <pt x="316" y="297" on="0"/>
        <pt x="345" y="338" on="0"/>
        <pt x="360" y="407" on="0"/>
        <pt x="360" y="460" on="1"/>
        <pt x="360" y="511" on="0"/>
        <pt x="345" y="578" on="0"/>
        <pt x="316" y="618" on="0"/>
        <pt x="273" y="635" on="0"/>
        <pt x="245" y="635" on="1"/>
        <pt x="190" y="635" on="1"/>
        <pt x="190" y="280" on="1"/>
      </contour>
      <contour>
        <pt x="190" y="0" on="1"/>
        <pt x="70" y="0" on="1"/>
        <pt x="70" y="690" on="1"/>
        <pt x="108" y="701" on="0"/>
        <pt x="188" y="710" on="0"/>
        <pt x="245" y="710" on="1"/>
        <pt x="307" y="710" on="0"/>
        <pt x="396" y="682" on="0"/>
        <pt x="453" y="622" on="0"/>
        <pt x="480" y="527" on="0"/>
        <pt x="480" y="460" on="1"/>
        <pt x="480" y="389" on="0"/>
        <pt x="454" y="290" on="0"/>
        <pt x="402" y="228" on="0"/>
        <pt x="326" y="200" on="0"/>
        <pt x="275" y="200" on="1"/>
        <pt x="269" y="200" on="0"/>
        <pt x="248" y="202" on="0"/>
        <pt x="224" y="205" on="0"/>
        <pt x="199" y="208" on="0"/>
        <pt x="190" y="210" on="1"/>
      </contour>
    </TTGlyph>
    <TTGlyph name="afii10035" xMin="45" yMin="-10" xMax="440" yMax="710">
      <contour>
        <pt x="280" y="-10" on="1"/>
        <pt x="222" y="-10" on="0"/>
        <pt x="134" y="24" on="0"/>
        <pt x="75" y="106" on="0"/>
        <pt x="45" y="245" on="0"/>
        <pt x="45" y="350" on="1"/>
        <pt x="45" y="455" on="0"/>
        <pt x="75" y="594" on="0"/>
        <pt x="132" y="676" on="0"/>
        <pt x="216" y="710" on="0"/>
        <pt x="270" y="710" on="1"/>
        <pt x="323" y="710" on="0"/>
        <pt x="407" y="698" on="0"/>
        <pt x="430" y="690" on="1"/>
        <pt x="430" y="635" on="1"/>
        <pt x="310" y="635" on="1"/>
        <pt x="278" y="635" on="0"/>
        <pt x="225" y="609" on="0"/>
        <pt x="186" y="545" on="0"/>
        <pt x="165" y="434" on="0"/>
        <pt x="165" y="350" on="1"/>
        <pt x="165" y="266" on="0"/>
        <pt x="187" y="155" on="0"/>
        <pt x="227" y="91" on="0"/>
        <pt x="284" y="65" on="0"/>
        <pt x="320" y="65" on="1"/>
        <pt x="440" y="65" on="1"/>
        <pt x="440" y="10" on="1"/>
        <pt x="417" y="2" on="0"/>
        <pt x="333" y="-10" on="0"/>
      </contour>
    </TTGlyph>
    <TTGlyph name="afii10036" xMin="10" yMin="0" xMax="440" yMax="700">
      <contour>
        <pt x="10" y="700" on="1"/>
        <pt x="440" y="700" on="1"/>
        <pt x="440" y="620" on="1"/>
        <pt x="285" y="620" on="1"/>
        <pt x="285" y="0" on="1"/>
        <pt x="165" y="0" on="1"/>
        <pt x="165" y="620" on="1"/>
        <pt x="10" y="620" on="1"/>
      </contour>
    </TTGlyph>
    <TTGlyph name="afii10037" xMin="0" yMin="-10" xMax="475" yMax="700">
      <contour>
        <pt x="190" y="-10" on="1"/>
        <pt x="160" y="-10" on="0"/>
        <pt x="103" y="2" on="0"/>
        <pt x="80" y="10" on="1"/>
        <pt x="80" y="65" on="1"/>
        <pt x="150" y="65" on="1"/>
        <pt x="169" y="65" on="0"/>
        <pt x="199" y="76" on="0"/>
        <pt x="225" y="106" on="0"/>
        <pt x="246" y="159" on="0"/>
        <pt x="255" y="200" on="1"/>
        <pt x="195" y="200" on="0"/>
        <pt x="119" y="267" on="0"/>
        <pt x="105" y="320" on="1"/>
        <pt x="0" y="700" on="1"/>
        <pt x="120" y="700" on="1"/>
        <pt x="222" y="330" on="1"/>
        <pt x="228" y="307" on="0"/>
        <pt x="254" y="280" on="0"/>
        <pt x="270" y="280" on="1"/>
        <pt x="355" y="700" on="1"/>
        <pt x="475" y="700" on="1"/>
        <pt x="365" y="160" on="1"/>
        <pt x="331" y="-10" on="0"/>
      </contour>
    </TTGlyph>
    <TTGlyph name="afii10038" xMin="25" yMin="-20" xMax="685" yMax="720">
      <contour>
        <pt x="415" y="720" on="1"/>
        <pt x="415" y="655" on="1"/>
        <pt x="477" y="647" on="0"/>
        <pt x="577" y="601" on="0"/>
        <pt x="647" y="524" on="0"/>
        <pt x="685" y="417" on="0"/>
        <pt x="685" y="350" on="1"/>
        <pt x="685" y="282" on="0"/>
        <pt x="647" y="176" on="0"/>
        <pt x="577" y="99" on="0"/>
        <pt x="477" y="52" on="0"/>
        <pt x="415" y="45" on="1"/>
        <pt x="415" y="-20" on="1"/>
        <pt x="295" y="-20" on="1"/>
        <pt x="295" y="45" on="1"/>
        <pt x="233" y="52" on="0"/>
        <pt x="133" y="99" on="0"/>
        <pt x="63" y="176" on="0"/>
        <pt x="25" y="282" on="0"/>
        <pt x="25" y="350" on="1"/>
        <pt x="25" y="417" on="0"/>
        <pt x="63" y="524" on="0"/>
        <pt x="133" y="601" on="0"/>
        <pt x="233" y="647" on="0"/>
        <pt x="295" y="655" on="1"/>
        <pt x="295" y="720" on="1"/>
      </contour>
      <contour>
        <pt x="565" y="350" on="1"/>
        <pt x="565" y="404" on="0"/>
        <pt x="538" y="488" on="0"/>
        <pt x="495" y="547" on="0"/>
        <pt x="441" y="578" on="0"/>
        <pt x="415" y="580" on="1"/>
        <pt x="415" y="120" on="1"/>
        <pt x="441" y="122" on="0"/>
        <pt x="495" y="153" on="0"/>
        <pt x="538" y="212" on="0"/>
        <pt x="565" y="296" on="0"/>
      </contour>
      <contour>
        <pt x="145" y="350" on="1"/>
        <pt x="145" y="296" on="0"/>
        <pt x="172" y="212" on="0"/>
        <pt x="215" y="153" on="0"/>
        <pt x="269" y="122" on="0"/>
        <pt x="295" y="120" on="1"/>
        <pt x="295" y="580" on="1"/>
        <pt x="269" y="578" on="0"/>
        <pt x="215" y="547" on="0"/>
        <pt x="172" y="488" on="0"/>
        <pt x="145" y="404" on="0"/>
      </contour>
    </TTGlyph>
    <TTGlyph name="afii10039" xMin="15" yMin="0" xMax="485" yMax="700">
      <contour>
        <pt x="155" y="700" on="1"/>
        <pt x="250" y="440" on="1"/>
        <pt x="345" y="700" on="1"/>
        <pt x="470" y="700" on="1"/>
        <pt x="340" y="360" on="1"/>
        <pt x="485" y="0" on="1"/>
        <pt x="360" y="0" on="1"/>
        <pt x="250" y="285" on="1"/>
        <pt x="140" y="0" on="1"/>
        <pt x="15" y="0" on="1"/>
        <pt x="160" y="360" on="1"/>
        <pt x="30" y="700" on="1"/>
      </contour>
    </TTGlyph>
    <TTGlyph name="afii10040" xMin="70" yMin="-150" xMax="545" yMax="700">
      <contour>
        <pt x="70" y="0" on="1"/>
        <pt x="70" y="700" on="1"/>
        <pt x="190" y="700" on="1"/>
        <pt x="190" y="80" on="1"/>
        <pt x="360" y="80" on="1"/>
        <pt x="360" y="700" on="1"/>
        <pt x="480" y="700" on="1"/>
        <pt x="480" y="80" on="1"/>
        <pt x="545" y="80" on="1"/>
        <pt x="545" y="-150" on="1"/>
        <pt x="470" y="-150" on="1"/>
        <pt x="455" y="-120" on="0"/>
        <pt x="434" y="-45" on="0"/>
        <pt x="430" y="0" on="1"/>
      </contour>
    </TTGlyph>
    <TTGlyph name="afii10041" xMin="50" yMin="0" xMax="465" yMax="700">
      <contour>
        <pt x="250" y="250" on="1"/>
        <pt x="152" y="250" on="0"/>
        <pt x="50" y="353" on="0"/>
        <pt x="50" y="455" on="1"/>
        <pt x="50" y="700" on="1"/>
        <pt x="170" y="700" on="1"/>
        <pt x="170" y="455" on="1"/>
        <pt x="170" y="330" on="0"/>
        <pt x="290" y="330" on="1"/>
        <pt x="345" y="330" on="1"/>
        <pt x="345" y="700" on="1"/>
        <pt x="465" y="700" on="1"/>
        <pt x="465" y="0" on="1"/>
        <pt x="345" y="0" on="1"/>
        <pt x="345" y="260" on="1"/>
        <pt x="326" y="256" on="0"/>
        <pt x="269" y="250" on="0"/>
      </contour>
    </TTGlyph>
    <TTGlyph name="afii10042" xMin="70" yMin="0" xMax="720" yMax="700">
      <contour>
        <pt x="455" y="80" on="1"/>
        <pt x="600" y="80" on="1"/>
        <pt x="600" y="700" on="1"/>
        <pt x="720" y="700" on="1"/>
        <pt x="720" y="0" on="1"/>
        <pt x="70" y="0" on="1"/>
        <pt x="70" y="700" on="1"/>
        <pt x="190" y="700" on="1"/>
        <pt x="190" y="80" on="1"/>
        <pt x="335" y="80" on="1"/>
        <pt x="335" y="700" on="1"/>
        <pt x="455" y="700" on="1"/>
      </contour>
    </TTGlyph>
    <TTGlyph name="afii10043" xMin="70" yMin="-150" xMax="785" yMax="700">
      <contour>
        <pt x="70" y="0" on="1"/>
        <pt x="70" y="700" on="1"/>
        <pt x="190" y="700" on="1"/>
        <pt x="190" y="80" on="1"/>
        <pt x="335" y="80" on="1"/>
        <pt x="335" y="700" on="1"/>
        <pt x="455" y="700" on="1"/>
        <pt x="455" y="80" on="1"/>
        <pt x="600" y="80" on="1"/>
        <pt x="600" y="700" on="1"/>
        <pt x="720" y="700" on="1"/>
        <pt x="720" y="80" on="1"/>
        <pt x="785" y="80" on="1"/>
        <pt x="785" y="-150" on="1"/>
        <pt x="710" y="-150" on="1"/>
        <pt x="695" y="-120" on="0"/>
        <pt x="674" y="-45" on="0"/>
        <pt x="670" y="0" on="1"/>
      </contour>
    </TTGlyph>
    <TTGlyph name="afii10044" xMin="20" yMin="-10" xMax="540" yMax="700">
      <contour>
        <pt x="335" y="430" on="1"/>
        <pt x="437" y="430" on="0"/>
        <pt x="540" y="322" on="0"/>
        <pt x="540" y="205" on="1"/>
        <pt x="540" y="96" on="0"/>
        <pt x="429" y="-10" on="0"/>
        <pt x="305" y="-10" on="1"/>
        <pt x="248" y="-10" on="0"/>
        <pt x="168" y="-1" on="0"/>
        <pt x="130" y="10" on="1"/>
        <pt x="130" y="620" on="1"/>
        <pt x="20" y="620" on="1"/>
        <pt x="20" y="700" on="1"/>
        <pt x="250" y="700" on="1"/>
        <pt x="250" y="420" on="1"/>
        <pt x="259" y="422" on="0"/>
        <pt x="284" y="425" on="0"/>
        <pt x="308" y="428" on="0"/>
        <pt x="329" y="430" on="0"/>
      </contour>
      <contour>
        <pt x="250" y="350" on="1"/>
        <pt x="250" y="65" on="1"/>
        <pt x="305" y="65" on="1"/>
        <pt x="362" y="65" on="0"/>
        <pt x="420" y="130" on="0"/>
        <pt x="420" y="205" on="1"/>
        <pt x="420" y="246" on="0"/>
        <pt x="405" y="302" on="0"/>
        <pt x="376" y="336" on="0"/>
        <pt x="333" y="350" on="0"/>
        <pt x="305" y="350" on="1"/>
      </contour>
    </TTGlyph>
    <TTGlyph name="afii10045" xMin="70" yMin="-10" xMax="665" yMax="700">
      <contour>
        <pt x="665" y="700" on="1"/>
        <pt x="665" y="0" on="1"/>
        <pt x="545" y="0" on="1"/>
        <pt x="545" y="700" on="1"/>
      </contour>
      <contour>
        <pt x="190" y="350" on="1"/>
        <pt x="190" y="65" on="1"/>
        <pt x="245" y="65" on="1"/>
        <pt x="298" y="65" on="0"/>
        <pt x="355" y="130" on="0"/>
        <pt x="355" y="205" on="1"/>
        <pt x="355" y="246" on="0"/>
        <pt x="340" y="302" on="0"/>
        <pt x="312" y="336" on="0"/>
        <pt x="271" y="350" on="0"/>
        <pt x="245" y="350" on="1"/>
      </contour>
      <contour>
        <pt x="275" y="430" on="1"/>
        <pt x="373" y="430" on="0"/>
        <pt x="475" y="322" on="0"/>
        <pt x="475" y="205" on="1"/>
        <pt x="475" y="96" on="0"/>
        <pt x="366" y="-10" on="0"/>
        <pt x="245" y="-10" on="1"/>
        <pt x="188" y="-10" on="0"/>
        <pt x="108" y="-1" on="0"/>
        <pt x="70" y="10" on="1"/>
        <pt x="70" y="700" on="1"/>
        <pt x="190" y="700" on="1"/>
        <pt x="190" y="420" on="1"/>
        <pt x="199" y="422" on="0"/>
        <pt x="224" y="425" on="0"/>
        <pt x="248" y="428" on="0"/>
        <pt x="269" y="430" on="0"/>
      </contour>
    </TTGlyph>
    <TTGlyph name="afii10046" xMin="70" yMin="-10" xMax="480" yMax="700">
      <contour>
        <pt x="190" y="350" on="1"/>
        <pt x="190" y="65" on="1"/>
        <pt x="245" y="65" on="1"/>
        <pt x="302" y="65" on="0"/>
        <pt x="360" y="130" on="0"/>
        <pt x="360" y="205" on="1"/>
        <pt x="360" y="246" on="0"/>
        <pt x="345" y="302" on="0"/>
        <pt x="316" y="336" on="0"/>
        <pt x="273" y="350" on="0"/>
        <pt x="245" y="350" on="1"/>
      </contour>
      <contour>
        <pt x="275" y="430" on="1"/>
        <pt x="377" y="430" on="0"/>
        <pt x="480" y="322" on="0"/>
        <pt x="480" y="205" on="1"/>
        <pt x="480" y="96" on="0"/>
        <pt x="369" y="-10" on="0"/>
        <pt x="245" y="-10" on="1"/>
        <pt x="188" y="-10" on="0"/>
        <pt x="108" y="-1" on="0"/>
        <pt x="70" y="10" on="1"/>
        <pt x="70" y="700" on="1"/>
        <pt x="190" y="700" on="1"/>
        <pt x="190" y="420" on="1"/>
        <pt x="199" y="422" on="0"/>
        <pt x="224" y="425" on="0"/>
        <pt x="248" y="428" on="0"/>
        <pt x="269" y="430" on="0"/>
      </contour>
    </TTGlyph>
    <TTGlyph name="afii10047" xMin="15" yMin="-10" xMax="410" yMax="710">
      <contour>
        <pt x="85" y="400" on="1"/>
        <pt x="289" y="400" on="1"/>
        <pt x="286" y="469" on="0"/>
        <pt x="262" y="560" on="0"/>
        <pt x="225" y="614" on="0"/>
        <pt x="175" y="635" on="0"/>
        <pt x="145" y="635" on="1"/>
        <pt x="25" y="635" on="1"/>
        <pt x="25" y="690" on="1"/>
        <pt x="48" y="698" on="0"/>
        <pt x="132" y="710" on="0"/>
        <pt x="185" y="710" on="1"/>
        <pt x="239" y="710" on="0"/>
        <pt x="323" y="676" on="0"/>
        <pt x="380" y="594" on="0"/>
        <pt x="410" y="455" on="0"/>
        <pt x="410" y="350" on="1"/>
        <pt x="410" y="245" on="0"/>
        <pt x="380" y="106" on="0"/>
        <pt x="321" y="24" on="0"/>
        <pt x="233" y="-10" on="0"/>
        <pt x="175" y="-10" on="1"/>
        <pt x="122" y="-10" on="0"/>
        <pt x="38" y="2" on="0"/>
        <pt x="15" y="10" on="1"/>
        <pt x="15" y="65" on="1"/>
        <pt x="135" y="65" on="1"/>
        <pt x="169" y="65" on="0"/>
        <pt x="224" y="88" on="0"/>
        <pt x="264" y="147" on="0"/>
        <pt x="287" y="245" on="0"/>
        <pt x="289" y="320" on="1"/>
        <pt x="85" y="320" on="1"/>
      </contour>
    </TTGlyph>
    <TTGlyph name="afii10048" xMin="70" yMin="-10" xMax="700" yMax="710">
      <contour>
        <pt x="475" y="710" on="1"/>
        <pt x="526" y="710" on="0"/>
        <pt x="609" y="673" on="0"/>
        <pt x="668" y="589" on="0"/>
        <pt x="700" y="451" on="0"/>
        <pt x="700" y="350" on="1"/>
        <pt x="700" y="249" on="0"/>
        <pt x="668" y="111" on="0"/>
        <pt x="609" y="27" on="0"/>
        <pt x="526" y="-10" on="0"/>
        <pt x="475" y="-10" on="1"/>
        <pt x="426" y="-10" on="0"/>
        <pt x="347" y="23" on="0"/>
        <pt x="288" y="99" on="0"/>
        <pt x="254" y="223" on="0"/>
        <pt x="250" y="315" on="1"/>
        <pt x="190" y="315" on="1"/>
        <pt x="190" y="0" on="1"/>
        <pt x="70" y="0" on="1"/>
        <pt x="70" y="700" on="1"/>
        <pt x="190" y="700" on="1"/>
        <pt x="190" y="395" on="1"/>
        <pt x="251" y="395" on="1"/>
        <pt x="254" y="483" on="0"/>
        <pt x="290" y="604" on="0"/>
        <pt x="349" y="678" on="0"/>
        <pt x="428" y="710" on="0"/>
      </contour>
      <contour>
        <pt x="475" y="640" on="1"/>
        <pt x="456" y="640" on="0"/>
        <pt x="419" y="614" on="0"/>
        <pt x="389" y="548" on="0"/>
        <pt x="370" y="436" on="0"/>
        <pt x="370" y="350" on="1"/>
        <pt x="370" y="264" on="0"/>
        <pt x="389" y="152" on="0"/>
        <pt x="419" y="86" on="0"/>
        <pt x="456" y="60" on="0"/>
        <pt x="475" y="60" on="1"/>
        <pt x="494" y="60" on="0"/>
        <pt x="531" y="86" on="0"/>
        <pt x="561" y="152" on="0"/>
        <pt x="580" y="264" on="0"/>
        <pt x="580" y="350" on="1"/>
        <pt x="580" y="436" on="0"/>
        <pt x="561" y="548" on="0"/>
        <pt x="531" y="614" on="0"/>
        <pt x="494" y="640" on="0"/>
      </contour>
    </TTGlyph>
    <TTGlyph name="afii10049" xMin="10" yMin="-10" xMax="455" yMax="710">
      <contour>
        <pt x="335" y="360" on="1"/>
        <pt x="335" y="635" on="1"/>
        <pt x="280" y="635" on="1"/>
        <pt x="223" y="635" on="0"/>
        <pt x="165" y="572" on="0"/>
        <pt x="165" y="500" on="1"/>
        <pt x="165" y="425" on="0"/>
        <pt x="223" y="360" on="0"/>
        <pt x="280" y="360" on="1"/>
      </contour>
      <contour>
        <pt x="185" y="310" on="1"/>
        <pt x="164" y="314" on="0"/>
        <pt x="115" y="340" on="0"/>
        <pt x="73" y="387" on="0"/>
        <pt x="45" y="455" on="0"/>
        <pt x="45" y="500" on="1"/>
        <pt x="45" y="605" on="0"/>
        <pt x="156" y="710" on="0"/>
        <pt x="280" y="710" on="1"/>
        <pt x="337" y="710" on="0"/>
        <pt x="417" y="701" on="0"/>
        <pt x="455" y="690" on="1"/>
        <pt x="455" y="0" on="1"/>
        <pt x="335" y="0" on="1"/>
        <pt x="335" y="280" on="1"/>
        <pt x="310" y="280" on="1"/>
        <pt x="302" y="280" on="0"/>
        <pt x="283" y="272" on="0"/>
        <pt x="262" y="252" on="0"/>
        <pt x="242" y="219" on="0"/>
        <pt x="235" y="195" on="1"/>
        <pt x="210" y="110" on="1"/>
        <pt x="193" y="50" on="0"/>
        <pt x="133" y="-10" on="0"/>
        <pt x="80" y="-10" on="1"/>
        <pt x="50" y="-10" on="0"/>
        <pt x="30" y="-5" on="1"/>
        <pt x="19" y="-3" on="0"/>
        <pt x="10" y="0" on="1"/>
        <pt x="10" y="55" on="1"/>
        <pt x="40" y="55" on="0"/>
        <pt x="76" y="80" on="0"/>
        <pt x="85" y="110" on="1"/>
        <pt x="110" y="195" on="1"/>
        <pt x="124" y="244" on="0"/>
        <pt x="166" y="298" on="0"/>
        <pt x="185" y="306" on="1"/>
      </contour>
    </TTGlyph>
    <TTGlyph name="afii10050" xMin="70" yMin="0" xMax="415" yMax="790">
      <contour>
        <pt x="190" y="620" on="1"/>
        <pt x="190" y="0" on="1"/>
        <pt x="70" y="0" on="1"/>
        <pt x="70" y="700" on="1"/>
        <pt x="320" y="700" on="1"/>
        <pt x="335" y="790" on="1"/>
        <pt x="415" y="790" on="1"/>
        <pt x="415" y="620" on="1"/>
      </contour>
    </TTGlyph>
    <TTGlyph name="afii10051" xMin="0" yMin="-10" xMax="535" yMax="700">
      <contour>
        <pt x="415" y="245" on="1"/>
        <pt x="415" y="360" on="0"/>
        <pt x="295" y="360" on="1"/>
        <pt x="240" y="360" on="1"/>
        <pt x="240" y="0" on="1"/>
        <pt x="120" y="0" on="1"/>
        <pt x="120" y="620" on="1"/>
        <pt x="0" y="620" on="1"/>
        <pt x="0" y="700" on="1"/>
        <pt x="380" y="700" on="1"/>
        <pt x="380" y="620" on="1"/>
        <pt x="240" y="620" on="1"/>
        <pt x="240" y="430" on="1"/>
        <pt x="259" y="434" on="0"/>
        <pt x="316" y="440" on="0"/>
        <pt x="335" y="440" on="1"/>
        <pt x="433" y="440" on="0"/>
        <pt x="535" y="339" on="0"/>
        <pt x="535" y="245" on="1"/>
        <pt x="535" y="160" on="1"/>
        <pt x="535" y="77" on="0"/>
        <pt x="452" y="-10" on="0"/>
        <pt x="380" y="-10" on="1"/>
        <pt x="357" y="-10" on="0"/>
        <pt x="315" y="-1" on="0"/>
        <pt x="300" y="10" on="1"/>
        <pt x="300" y="60" on="1"/>
        <pt x="350" y="60" on="1"/>
        <pt x="376" y="60" on="0"/>
        <pt x="415" y="107" on="0"/>
        <pt x="415" y="160" on="1"/>
      </contour>
    </TTGlyph>
    <TTGlyph name="afii10052" xMin="70" yMin="0" xMax="415" yMax="880">
      <contour>
        <pt x="195" y="750" on="1"/>
        <pt x="230" y="880" on="1"/>
        <pt x="345" y="880" on="1"/>
        <pt x="270" y="750" on="1"/>
      </contour>
      <contour>
        <pt x="70" y="700" on="1"/>
        <pt x="415" y="700" on="1"/>
        <pt x="415" y="620" on="1"/>
        <pt x="190" y="620" on="1"/>
        <pt x="190" y="0" on="1"/>
        <pt x="70" y="0" on="1"/>
      </contour>
    </TTGlyph>
    <TTGlyph name="afii10053" xMin="45" yMin="-10" xMax="440" yMax="710">
      <contour>
        <pt x="370" y="320" on="1"/>
        <pt x="166" y="320" on="1"/>
        <pt x="167" y="245" on="0"/>
        <pt x="191" y="147" on="0"/>
        <pt x="231" y="88" on="0"/>
        <pt x="286" y="65" on="0"/>
        <pt x="320" y="65" on="1"/>
        <pt x="440" y="65" on="1"/>
        <pt x="440" y="10" on="1"/>
        <pt x="417" y="2" on="0"/>
        <pt x="333" y="-10" on="0"/>
        <pt x="280" y="-10" on="1"/>
        <pt x="222" y="-10" on="0"/>
        <pt x="134" y="24" on="0"/>
        <pt x="75" y="106" on="0"/>
        <pt x="45" y="245" on="0"/>
        <pt x="45" y="350" on="1"/>
        <pt x="45" y="455" on="0"/>
        <pt x="75" y="594" on="0"/>
        <pt x="132" y="676" on="0"/>
        <pt x="216" y="710" on="0"/>
        <pt x="270" y="710" on="1"/>
        <pt x="323" y="710" on="0"/>
        <pt x="407" y="698" on="0"/>
        <pt x="430" y="690" on="1"/>
        <pt x="430" y="635" on="1"/>
        <pt x="310" y="635" on="1"/>
        <pt x="280" y="635" on="0"/>
        <pt x="230" y="614" on="0"/>
        <pt x="193" y="560" on="0"/>
        <pt x="169" y="469" on="0"/>
        <pt x="166" y="400" on="1"/>
        <pt x="370" y="400" on="1"/>
      </contour>
    </TTGlyph>
    <TTGlyph name="afii10054" xMin="30" yMin="-10" xMax="435" yMax="710">
      <contour>
        <pt x="30" y="530" on="1"/>
        <pt x="30" y="613" on="0"/>
        <pt x="133" y="710" on="0"/>
        <pt x="235" y="710" on="1"/>
        <pt x="288" y="710" on="0"/>
        <pt x="372" y="698" on="0"/>
        <pt x="395" y="690" on="1"/>
        <pt x="395" y="635" on="1"/>
        <pt x="255" y="635" on="1"/>
        <pt x="206" y="635" on="0"/>
        <pt x="150" y="579" on="0"/>
        <pt x="150" y="530" on="1"/>
        <pt x="150" y="486" on="0"/>
        <pt x="192" y="434" on="0"/>
        <pt x="256" y="397" on="0"/>
        <pt x="329" y="365" on="0"/>
        <pt x="393" y="316" on="0"/>
        <pt x="435" y="241" on="0"/>
        <pt x="435" y="180" on="1"/>
        <pt x="435" y="90" on="0"/>
        <pt x="322" y="-10" on="0"/>
        <pt x="195" y="-10" on="1"/>
        <pt x="142" y="-10" on="0"/>
        <pt x="58" y="2" on="0"/>
        <pt x="35" y="10" on="1"/>
        <pt x="35" y="65" on="1"/>
        <pt x="175" y="65" on="1"/>
        <pt x="250" y="65" on="0"/>
        <pt x="315" y="123" on="0"/>
        <pt x="315" y="180" on="1"/>
        <pt x="315" y="221" on="0"/>
        <pt x="273" y="270" on="0"/>
        <pt x="209" y="305" on="0"/>
        <pt x="136" y="337" on="0"/>
        <pt x="72" y="388" on="0"/>
        <pt x="30" y="466" on="0"/>
      </contour>
    </TTGlyph>
    <TTGlyph name="afii10055" xMin="70" yMin="0" xMax="190" yMax="700">
      <contour>
        <pt x="70" y="700" on="1"/>
        <pt x="190" y="700" on="1"/>
        <pt x="190" y="0" on="1"/>
        <pt x="70" y="0" on="1"/>
      </contour>
    </TTGlyph>
    <TTGlyph name="afii10056" xMin="-10" yMin="0" xMax="260" yMax="880">
      <contour>
        <pt x="185" y="700" on="1"/>
        <pt x="185" y="0" on="1"/>
        <pt x="65" y="0" on="1"/>
        <pt x="65" y="700" on="1"/>
      </contour>
      <contour>
        <pt x="100" y="880" on="1"/>
        <pt x="100" y="760" on="1"/>
        <pt x="-10" y="760" on="1"/>
        <pt x="-10" y="880" on="1"/>
      </contour>
      <contour>
        <pt x="260" y="880" on="1"/>
        <pt x="260" y="760" on="1"/>
        <pt x="150" y="760" on="1"/>
        <pt x="150" y="880" on="1"/>
      </contour>
    </TTGlyph>
    <TTGlyph name="afii10057" xMin="0" yMin="-10" xMax="315" yMax="700">
      <contour>
        <pt x="100" y="65" on="1"/>
        <pt x="121" y="65" on="0"/>
        <pt x="155" y="82" on="0"/>
        <pt x="181" y="122" on="0"/>
        <pt x="195" y="189" on="0"/>
        <pt x="195" y="240" on="1"/>
        <pt x="195" y="700" on="1"/>
        <pt x="315" y="700" on="1"/>
        <pt x="315" y="240" on="1"/>
        <pt x="315" y="105" on="0"/>
        <pt x="209" y="-10" on="0"/>
        <pt x="100" y="-10" on="1"/>
        <pt x="70" y="-10" on="0"/>
        <pt x="19" y="2" on="0"/>
        <pt x="0" y="10" on="1"/>
        <pt x="0" y="65" on="1"/>
      </contour>
    </TTGlyph>
    <TTGlyph name="afii10058" xMin="0" yMin="-10" xMax="775" yMax="700">
      <contour>
        <pt x="570" y="430" on="1"/>
        <pt x="672" y="430" on="0"/>
        <pt x="775" y="322" on="0"/>
        <pt x="775" y="205" on="1"/>
        <pt x="775" y="96" on="0"/>
        <pt x="664" y="-10" on="0"/>
        <pt x="540" y="-10" on="1"/>
        <pt x="483" y="-10" on="0"/>
        <pt x="403" y="-1" on="0"/>
        <pt x="365" y="10" on="1"/>
        <pt x="365" y="620" on="1"/>
        <pt x="236" y="620" on="1"/>
        <pt x="215" y="210" on="1"/>
        <pt x="212" y="150" on="0"/>
        <pt x="188" y="66" on="0"/>
        <pt x="151" y="14" on="0"/>
        <pt x="100" y="-10" on="0"/>
        <pt x="70" y="-10" on="1"/>
        <pt x="38" y="-10" on="0"/>
        <pt x="18" y="-5" on="1"/>
        <pt x="7" y="-3" on="0"/>
        <pt x="0" y="0" on="1"/>
        <pt x="0" y="55" on="1"/>
        <pt x="19" y="55" on="0"/>
        <pt x="51" y="71" on="0"/>
        <pt x="77" y="108" on="0"/>
        <pt x="93" y="167" on="0"/>
        <pt x="95" y="210" on="1"/>
        <pt x="120" y="700" on="1"/>
        <pt x="485" y="700" on="1"/>
        <pt x="485" y="420" on="1"/>
        <pt x="494" y="422" on="0"/>
        <pt x="519" y="425" on="0"/>
        <pt x="543" y="428" on="0"/>
        <pt x="564" y="430" on="0"/>
      </contour>
      <contour>
        <pt x="485" y="350" on="1"/>
        <pt x="485" y="65" on="1"/>
        <pt x="540" y="65" on="1"/>
        <pt x="597" y="65" on="0"/>
        <pt x="655" y="130" on="0"/>
        <pt x="655" y="205" on="1"/>
        <pt x="655" y="246" on="0"/>
        <pt x="640" y="302" on="0"/>
        <pt x="611" y="336" on="0"/>
        <pt x="568" y="350" on="0"/>
        <pt x="540" y="350" on="1"/>
      </contour>
    </TTGlyph>
    <TTGlyph name="afii10059" xMin="70" yMin="-10" xMax="780" yMax="700">
      <contour>
        <pt x="575" y="410" on="1"/>
        <pt x="780" y="410" on="0"/>
        <pt x="780" y="195" on="1"/>
        <pt x="780" y="94" on="0"/>
        <pt x="669" y="-10" on="0"/>
        <pt x="545" y="-10" on="1"/>
        <pt x="488" y="-10" on="0"/>
        <pt x="408" y="-1" on="0"/>
        <pt x="370" y="10" on="1"/>
        <pt x="370" y="330" on="1"/>
        <pt x="190" y="330" on="1"/>
        <pt x="190" y="0" on="1"/>
        <pt x="70" y="0" on="1"/>
        <pt x="70" y="700" on="1"/>
        <pt x="190" y="700" on="1"/>
        <pt x="190" y="410" on="1"/>
        <pt x="370" y="410" on="1"/>
        <pt x="370" y="700" on="1"/>
        <pt x="490" y="700" on="1"/>
        <pt x="490" y="400" on="1"/>
        <pt x="499" y="402" on="0"/>
        <pt x="524" y="405" on="0"/>
        <pt x="548" y="408" on="0"/>
        <pt x="569" y="410" on="0"/>
      </contour>
      <contour>
        <pt x="490" y="330" on="1"/>
        <pt x="490" y="65" on="1"/>
        <pt x="545" y="65" on="1"/>
        <pt x="602" y="65" on="0"/>
        <pt x="660" y="127" on="0"/>
        <pt x="660" y="195" on="1"/>
        <pt x="660" y="270" on="0"/>
        <pt x="602" y="330" on="0"/>
        <pt x="545" y="330" on="1"/>
      </contour>
    </TTGlyph>
    <TTGlyph name="afii10060" xMin="0" yMin="0" xMax="535" yMax="700">
      <contour>
        <pt x="335" y="445" on="1"/>
        <pt x="440" y="445" on="0"/>
        <pt x="535" y="350" on="0"/>
        <pt x="535" y="245" on="1"/>
        <pt x="535" y="0" on="1"/>
        <pt x="415" y="0" on="1"/>
        <pt x="415" y="245" on="1"/>
        <pt x="415" y="365" on="0"/>
        <pt x="295" y="365" on="1"/>
        <pt x="240" y="365" on="1"/>
        <pt x="240" y="0" on="1"/>
        <pt x="120" y="0" on="1"/>
        <pt x="120" y="620" on="1"/>
        <pt x="0" y="620" on="1"/>
        <pt x="0" y="700" on="1"/>
        <pt x="380" y="700" on="1"/>
        <pt x="380" y="620" on="1"/>
        <pt x="240" y="620" on="1"/>
        <pt x="240" y="435" on="1"/>
        <pt x="259" y="439" on="0"/>
        <pt x="316" y="445" on="0"/>
      </contour>
    </TTGlyph>
    <TTGlyph name="afii10061" xMin="70" yMin="-10" xMax="515" yMax="870">
      <contour>
        <pt x="310" y="363" on="1"/>
        <pt x="325" y="358" on="0"/>
        <pt x="355" y="341" on="0"/>
        <pt x="382" y="312" on="0"/>
        <pt x="403" y="270" on="0"/>
        <pt x="410" y="240" on="1"/>
        <pt x="440" y="110" on="1"/>
        <pt x="445" y="87" on="0"/>
        <pt x="481" y="55" on="0"/>
        <pt x="515" y="55" on="1"/>
        <pt x="515" y="0" on="1"/>
        <pt x="508" y="-3" on="0"/>
        <pt x="497" y="-5" on="1"/>
        <pt x="477" y="-10" on="0"/>
        <pt x="445" y="-10" on="1"/>
        <pt x="388" y="-10" on="0"/>
        <pt x="329" y="50" on="0"/>
        <pt x="315" y="110" on="1"/>
        <pt x="285" y="240" on="1"/>
        <pt x="274" y="289" on="0"/>
        <pt x="236" y="325" on="0"/>
        <pt x="210" y="325" on="1"/>
        <pt x="190" y="325" on="1"/>
        <pt x="190" y="0" on="1"/>
        <pt x="70" y="0" on="1"/>
        <pt x="70" y="700" on="1"/>
        <pt x="190" y="700" on="1"/>
        <pt x="190" y="405" on="1"/>
        <pt x="210" y="405" on="1"/>
        <pt x="229" y="405" on="0"/>
        <pt x="261" y="441" on="0"/>
        <pt x="275" y="490" on="1"/>
        <pt x="305" y="590" on="1"/>
        <pt x="323" y="650" on="0"/>
        <pt x="379" y="710" on="0"/>
        <pt x="435" y="710" on="1"/>
        <pt x="452" y="710" on="0"/>
        <pt x="478" y="707" on="0"/>
        <pt x="487" y="705" on="1"/>
        <pt x="498" y="702" on="0"/>
        <pt x="505" y="700" on="1"/>
        <pt x="505" y="645" on="1"/>
        <pt x="471" y="645" on="0"/>
        <pt x="438" y="616" on="0"/>
        <pt x="430" y="590" on="1"/>
        <pt x="400" y="490" on="1"/>
        <pt x="382" y="430" on="0"/>
        <pt x="340" y="377" on="0"/>
        <pt x="310" y="367" on="1"/>
      </contour>
      <contour>
        <pt x="229" y="740" on="1"/>
        <pt x="264" y="870" on="1"/>
        <pt x="379" y="870" on="1"/>
        <pt x="304" y="740" on="1"/>
      </contour>
    </TTGlyph>
    <TTGlyph name="afii10062" xMin="0" yMin="-10" xMax="475" yMax="875">
      <contour>
        <pt x="190" y="-10" on="1"/>
        <pt x="160" y="-10" on="0"/>
        <pt x="103" y="2" on="0"/>
        <pt x="80" y="10" on="1"/>
        <pt x="80" y="65" on="1"/>
        <pt x="150" y="65" on="1"/>
        <pt x="169" y="65" on="0"/>
        <pt x="199" y="76" on="0"/>
        <pt x="225" y="106" on="0"/>
        <pt x="246" y="159" on="0"/>
        <pt x="255" y="200" on="1"/>
        <pt x="195" y="200" on="0"/>
        <pt x="119" y="267" on="0"/>
        <pt x="105" y="320" on="1"/>
        <pt x="0" y="700" on="1"/>
        <pt x="120" y="700" on="1"/>
        <pt x="222" y="330" on="1"/>
        <pt x="228" y="307" on="0"/>
        <pt x="254" y="280" on="0"/>
        <pt x="270" y="280" on="1"/>
        <pt x="355" y="700" on="1"/>
        <pt x="475" y="700" on="1"/>
        <pt x="365" y="160" on="1"/>
        <pt x="331" y="-10" on="0"/>
      </contour>
      <contour>
        <pt x="245" y="830" on="1"/>
        <pt x="275" y="830" on="0"/>
        <pt x="325" y="860" on="0"/>
        <pt x="340" y="875" on="1"/>
        <pt x="390" y="825" on="1"/>
        <pt x="367" y="787" on="0"/>
        <pt x="294" y="745" on="0"/>
        <pt x="245" y="745" on="1"/>
        <pt x="196" y="745" on="0"/>
        <pt x="123" y="787" on="0"/>
        <pt x="100" y="825" on="1"/>
        <pt x="150" y="875" on="1"/>
        <pt x="165" y="860" on="0"/>
        <pt x="215" y="830" on="0"/>
      </contour>
    </TTGlyph>
    <TTGlyph name="afii10065" xMin="40" yMin="-10" xMax="410" yMax="510">
      <contour>
        <pt x="290" y="240" on="1"/>
        <pt x="235" y="240" on="1"/>
        <pt x="222" y="240" on="0"/>
        <pt x="195" y="232" on="0"/>
        <pt x="174" y="211" on="0"/>
        <pt x="160" y="176" on="0"/>
        <pt x="160" y="150" on="1"/>
        <pt x="160" y="124" on="0"/>
        <pt x="174" y="89" on="0"/>
        <pt x="195" y="68" on="0"/>
        <pt x="222" y="60" on="0"/>
        <pt x="235" y="60" on="1"/>
        <pt x="254" y="60" on="0"/>
        <pt x="282" y="72" on="0"/>
        <pt x="290" y="80" on="1"/>
      </contour>
      <contour>
        <pt x="195" y="-10" on="1"/>
        <pt x="163" y="-10" on="0"/>
        <pt x="107" y="3" on="0"/>
        <pt x="65" y="39" on="0"/>
        <pt x="40" y="101" on="0"/>
        <pt x="40" y="150" on="1"/>
        <pt x="40" y="199" on="0"/>
        <pt x="65" y="261" on="0"/>
        <pt x="109" y="297" on="0"/>
        <pt x="169" y="310" on="0"/>
        <pt x="205" y="310" on="1"/>
        <pt x="228" y="310" on="0"/>
        <pt x="271" y="304" on="0"/>
        <pt x="290" y="300" on="1"/>
        <pt x="290" y="340" on="1"/>
        <pt x="290" y="400" on="0"/>
        <pt x="234" y="440" on="0"/>
        <pt x="185" y="440" on="1"/>
        <pt x="85" y="440" on="1"/>
        <pt x="85" y="490" on="1"/>
        <pt x="108" y="498" on="0"/>
        <pt x="175" y="510" on="0"/>
        <pt x="205" y="510" on="1"/>
        <pt x="256" y="510" on="0"/>
        <pt x="332" y="496" on="0"/>
        <pt x="384" y="459" on="0"/>
        <pt x="410" y="392" on="0"/>
        <pt x="410" y="340" on="1"/>
        <pt x="410" y="0" on="1"/>
        <pt x="325" y="0" on="1"/>
        <pt x="310" y="30" on="1"/>
        <pt x="305" y="30" on="1"/>
        <pt x="289" y="15" on="0"/>
        <pt x="237" y="-10" on="0"/>
      </contour>
    </TTGlyph>
    <TTGlyph name="afii10066" xMin="50" yMin="-10" xMax="450" yMax="710">
      <contour>
        <pt x="170" y="455" on="1"/>
        <pt x="185" y="466" on="0"/>
        <pt x="230" y="480" on="0"/>
        <pt x="260" y="480" on="1"/>
        <pt x="350" y="480" on="0"/>
        <pt x="450" y="366" on="0"/>
        <pt x="450" y="235" on="1"/>
        <pt x="450" y="104" on="0"/>
        <pt x="347" y="-10" on="0"/>
        <pt x="250" y="-10" on="1"/>
        <pt x="152" y="-10" on="0"/>
        <pt x="50" y="104" on="0"/>
        <pt x="50" y="235" on="1"/>
        <pt x="50" y="400" on="1"/>
        <pt x="50" y="484" on="0"/>
        <pt x="78" y="599" on="0"/>
        <pt x="141" y="669" on="0"/>
        <pt x="242" y="702" on="0"/>
        <pt x="315" y="705" on="1"/>
        <pt x="435" y="710" on="1"/>
        <pt x="440" y="660" on="1"/>
        <pt x="414" y="649" on="0"/>
        <pt x="342" y="630" on="0"/>
        <pt x="300" y="625" on="1"/>
        <pt x="266" y="621" on="0"/>
        <pt x="217" y="601" on="0"/>
        <pt x="185" y="562" on="0"/>
        <pt x="170" y="500" on="0"/>
      </contour>
      <contour>
        <pt x="170" y="235" on="1"/>
        <pt x="170" y="182" on="0"/>
        <pt x="184" y="113" on="0"/>
        <pt x="206" y="72" on="0"/>
        <pt x="235" y="55" on="0"/>
        <pt x="250" y="55" on="1"/>
        <pt x="265" y="55" on="0"/>
        <pt x="294" y="72" on="0"/>
        <pt x="316" y="113" on="0"/>
        <pt x="330" y="182" on="0"/>
        <pt x="330" y="235" on="1"/>
        <pt x="330" y="286" on="0"/>
        <pt x="316" y="353" on="0"/>
        <pt x="289" y="393" on="0"/>
        <pt x="252" y="410" on="0"/>
        <pt x="230" y="410" on="1"/>
        <pt x="207" y="410" on="0"/>
        <pt x="178" y="398" on="0"/>
        <pt x="170" y="390" on="1"/>
      </contour>
    </TTGlyph>
    <TTGlyph name="afii10067" xMin="65" yMin="-10" xMax="455" yMax="510">
      <contour>
        <pt x="245" y="60" on="1"/>
        <pt x="262" y="60" on="0"/>
        <pt x="293" y="68" on="0"/>
        <pt x="316" y="88" on="0"/>
        <pt x="330" y="121" on="0"/>
        <pt x="330" y="145" on="1"/>
        <pt x="330" y="190" on="0"/>
        <pt x="279" y="225" on="0"/>
        <pt x="245" y="225" on="1"/>
        <pt x="185" y="225" on="1"/>
        <pt x="185" y="60" on="1"/>
      </contour>
      <contour>
        <pt x="185" y="440" on="1"/>
        <pt x="185" y="295" on="1"/>
        <pt x="235" y="295" on="1"/>
        <pt x="249" y="295" on="0"/>
        <pt x="276" y="303" on="0"/>
        <pt x="297" y="320" on="0"/>
        <pt x="310" y="346" on="0"/>
        <pt x="310" y="365" on="1"/>
        <pt x="310" y="386" on="0"/>
        <pt x="296" y="414" on="0"/>
        <pt x="275" y="432" on="0"/>
        <pt x="248" y="440" on="0"/>
        <pt x="235" y="440" on="1"/>
      </contour>
      <contour>
        <pt x="65" y="490" on="1"/>
        <pt x="103" y="501" on="0"/>
        <pt x="182" y="510" on="0"/>
        <pt x="235" y="510" on="1"/>
        <pt x="284" y="510" on="0"/>
        <pt x="358" y="497" on="0"/>
        <pt x="409" y="465" on="0"/>
        <pt x="435" y="411" on="0"/>
        <pt x="435" y="370" on="1"/>
        <pt x="435" y="346" on="0"/>
        <pt x="420" y="311" on="0"/>
        <pt x="396" y="287" on="0"/>
        <pt x="368" y="272" on="0"/>
        <pt x="355" y="267" on="1"/>
        <pt x="355" y="263" on="1"/>
        <pt x="372" y="258" on="0"/>
        <pt x="407" y="240" on="0"/>
        <pt x="436" y="210" on="0"/>
        <pt x="455" y="168" on="0"/>
        <pt x="455" y="140" on="1"/>
        <pt x="455" y="95" on="0"/>
        <pt x="429" y="37" on="0"/>
        <pt x="376" y="3" on="0"/>
        <pt x="297" y="-10" on="0"/>
        <pt x="245" y="-10" on="1"/>
        <pt x="185" y="-10" on="0"/>
        <pt x="103" y="-1" on="0"/>
        <pt x="65" y="10" on="1"/>
      </contour>
    </TTGlyph>
    <TTGlyph name="afii10068" xMin="65" yMin="0" xMax="380" yMax="500">
      <contour>
        <pt x="380" y="500" on="1"/>
        <pt x="380" y="425" on="1"/>
        <pt x="185" y="425" on="1"/>
        <pt x="185" y="0" on="1"/>
        <pt x="65" y="0" on="1"/>
        <pt x="65" y="500" on="1"/>
      </contour>
    </TTGlyph>
    <TTGlyph name="afii10069" xMin="10" yMin="-145" xMax="505" yMax="500">
      <contour>
        <pt x="505" y="75" on="1"/>
        <pt x="505" y="-145" on="1"/>
        <pt x="430" y="-145" on="1"/>
        <pt x="415" y="-119" on="0"/>
        <pt x="394" y="-45" on="0"/>
        <pt x="390" y="0" on="1"/>
        <pt x="125" y="0" on="1"/>
        <pt x="121" y="-45" on="0"/>
        <pt x="100" y="-119" on="0"/>
        <pt x="85" y="-145" on="1"/>
        <pt x="10" y="-145" on="1"/>
        <pt x="10" y="75" on="1"/>
        <pt x="55" y="75" on="1"/>
        <pt x="70" y="94" on="0"/>
        <pt x="97" y="157" on="0"/>
        <pt x="100" y="210" on="1"/>
        <pt x="115" y="500" on="1"/>
        <pt x="445" y="500" on="1"/>
        <pt x="445" y="75" on="1"/>
      </contour>
      <contour>
        <pt x="231" y="425" on="1"/>
        <pt x="220" y="210" on="1"/>
        <pt x="217" y="157" on="0"/>
        <pt x="190" y="94" on="0"/>
        <pt x="175" y="75" on="1"/>
        <pt x="325" y="75" on="1"/>
        <pt x="325" y="425" on="1"/>
      </contour>
    </TTGlyph>
    <TTGlyph name="afii10070" xMin="40" yMin="-10" xMax="420" yMax="510">
      <contour>
        <pt x="420" y="215" on="1"/>
        <pt x="160" y="215" on="1"/>
        <pt x="160" y="129" on="0"/>
        <pt x="221" y="60" on="0"/>
        <pt x="285" y="60" on="1"/>
        <pt x="395" y="60" on="1"/>
        <pt x="395" y="10" on="1"/>
        <pt x="372" y="2" on="0"/>
        <pt x="303" y="-10" on="0"/>
        <pt x="265" y="-10" on="1"/>
        <pt x="207" y="-10" on="0"/>
        <pt x="122" y="18" on="0"/>
        <pt x="67" y="80" on="0"/>
        <pt x="40" y="179" on="0"/>
        <pt x="40" y="250" on="1"/>
        <pt x="40" y="321" on="0"/>
        <pt x="66" y="420" on="0"/>
        <pt x="114" y="482" on="0"/>
        <pt x="185" y="510" on="0"/>
        <pt x="230" y="510" on="1"/>
        <pt x="275" y="510" on="0"/>
        <pt x="346" y="482" on="0"/>
        <pt x="394" y="420" on="0"/>
        <pt x="420" y="321" on="0"/>
        <pt x="420" y="250" on="1"/>
      </contour>
      <contour>
        <pt x="300" y="285" on="1"/>
        <pt x="300" y="334" on="0"/>
        <pt x="289" y="396" on="0"/>
        <pt x="271" y="432" on="0"/>
        <pt x="245" y="445" on="0"/>
        <pt x="230" y="445" on="1"/>
        <pt x="215" y="445" on="0"/>
        <pt x="189" y="432" on="0"/>
        <pt x="171" y="396" on="0"/>
        <pt x="160" y="334" on="0"/>
        <pt x="160" y="285" on="1"/>
      </contour>
    </TTGlyph>
    <TTGlyph name="afii10071" xMin="40" yMin="-10" xMax="420" yMax="680">
      <contour>
        <pt x="420" y="215" on="1"/>
        <pt x="160" y="215" on="1"/>
        <pt x="160" y="129" on="0"/>
        <pt x="221" y="60" on="0"/>
        <pt x="285" y="60" on="1"/>
        <pt x="395" y="60" on="1"/>
        <pt x="395" y="10" on="1"/>
        <pt x="372" y="2" on="0"/>
        <pt x="303" y="-10" on="0"/>
        <pt x="265" y="-10" on="1"/>
        <pt x="207" y="-10" on="0"/>
        <pt x="122" y="18" on="0"/>
        <pt x="67" y="80" on="0"/>
        <pt x="40" y="179" on="0"/>
        <pt x="40" y="250" on="1"/>
        <pt x="40" y="321" on="0"/>
        <pt x="66" y="420" on="0"/>
        <pt x="114" y="482" on="0"/>
        <pt x="185" y="510" on="0"/>
        <pt x="230" y="510" on="1"/>
        <pt x="275" y="510" on="0"/>
        <pt x="346" y="482" on="0"/>
        <pt x="394" y="420" on="0"/>
        <pt x="420" y="321" on="0"/>
        <pt x="420" y="250" on="1"/>
      </contour>
      <contour>
        <pt x="300" y="285" on="1"/>
        <pt x="300" y="334" on="0"/>
        <pt x="289" y="396" on="0"/>
        <pt x="271" y="432" on="0"/>
        <pt x="245" y="445" on="0"/>
        <pt x="230" y="445" on="1"/>
        <pt x="215" y="445" on="0"/>
        <pt x="189" y="432" on="0"/>
        <pt x="171" y="396" on="0"/>
        <pt x="160" y="334" on="0"/>
        <pt x="160" y="285" on="1"/>
      </contour>
      <contour>
        <pt x="205" y="680" on="1"/>
        <pt x="205" y="560" on="1"/>
        <pt x="95" y="560" on="1"/>
        <pt x="95" y="680" on="1"/>
      </contour>
      <contour>
        <pt x="365" y="680" on="1"/>
        <pt x="365" y="560" on="1"/>
        <pt x="255" y="560" on="1"/>
        <pt x="255" y="680" on="1"/>
      </contour>
    </TTGlyph>
    <TTGlyph name="afii10072" xMin="10" yMin="-10" xMax="660" yMax="510">
      <contour>
        <pt x="395" y="500" on="1"/>
        <pt x="395" y="300" on="1"/>
        <pt x="400" y="300" on="1"/>
        <pt x="411" y="300" on="0"/>
        <pt x="431" y="321" on="0"/>
        <pt x="445" y="355" on="1"/>
        <pt x="475" y="430" on="1"/>
        <pt x="490" y="468" on="0"/>
        <pt x="540" y="510" on="0"/>
        <pt x="585" y="510" on="1"/>
        <pt x="598" y="510" on="0"/>
        <pt x="622" y="507" on="0"/>
        <pt x="631" y="505" on="1"/>
        <pt x="642" y="502" on="0"/>
        <pt x="650" y="500" on="1"/>
        <pt x="650" y="450" on="1"/>
        <pt x="624" y="450" on="0"/>
        <pt x="600" y="431" on="0"/>
        <pt x="595" y="420" on="1"/>
        <pt x="570" y="355" on="1"/>
        <pt x="554" y="313" on="0"/>
        <pt x="517" y="273" on="0"/>
        <pt x="494" y="267" on="1"/>
        <pt x="494" y="263" on="1"/>
        <pt x="521" y="257" on="0"/>
        <pt x="569" y="215" on="0"/>
        <pt x="580" y="170" on="1"/>
        <pt x="600" y="90" on="1"/>
        <pt x="604" y="75" on="0"/>
        <pt x="634" y="50" on="0"/>
        <pt x="660" y="50" on="1"/>
        <pt x="660" y="0" on="1"/>
        <pt x="652" y="-3" on="0"/>
        <pt x="641" y="-5" on="1"/>
        <pt x="621" y="-10" on="0"/>
        <pt x="595" y="-10" on="1"/>
        <pt x="546" y="-10" on="0"/>
        <pt x="490" y="37" on="0"/>
        <pt x="480" y="75" on="1"/>
        <pt x="455" y="170" on="1"/>
        <pt x="448" y="196" on="0"/>
        <pt x="419" y="225" on="0"/>
        <pt x="400" y="225" on="1"/>
        <pt x="395" y="225" on="1"/>
        <pt x="395" y="0" on="1"/>
        <pt x="275" y="0" on="1"/>
        <pt x="275" y="225" on="1"/>
        <pt x="270" y="225" on="1"/>
        <pt x="251" y="225" on="0"/>
        <pt x="222" y="196" on="0"/>
        <pt x="215" y="170" on="1"/>
        <pt x="190" y="75" on="1"/>
        <pt x="180" y="37" on="0"/>
        <pt x="124" y="-10" on="0"/>
        <pt x="75" y="-10" on="1"/>
        <pt x="49" y="-10" on="0"/>
        <pt x="29" y="-5" on="1"/>
        <pt x="18" y="-3" on="0"/>
        <pt x="10" y="0" on="1"/>
        <pt x="10" y="50" on="1"/>
        <pt x="36" y="50" on="0"/>
        <pt x="66" y="75" on="0"/>
        <pt x="70" y="90" on="1"/>
        <pt x="90" y="170" on="1"/>
        <pt x="101" y="215" on="0"/>
        <pt x="149" y="257" on="0"/>
        <pt x="176" y="263" on="1"/>
        <pt x="176" y="267" on="1"/>
        <pt x="153" y="273" on="0"/>
        <pt x="116" y="313" on="0"/>
        <pt x="100" y="355" on="1"/>
        <pt x="75" y="420" on="1"/>
        <pt x="70" y="431" on="0"/>
        <pt x="46" y="450" on="0"/>
        <pt x="20" y="450" on="1"/>
        <pt x="20" y="500" on="1"/>
        <pt x="28" y="502" on="0"/>
        <pt x="39" y="505" on="1"/>
        <pt x="48" y="507" on="0"/>
        <pt x="71" y="510" on="0"/>
        <pt x="85" y="510" on="1"/>
        <pt x="130" y="510" on="0"/>
        <pt x="180" y="468" on="0"/>
        <pt x="195" y="430" on="1"/>
        <pt x="225" y="355" on="1"/>
        <pt x="239" y="321" on="0"/>
        <pt x="259" y="300" on="0"/>
        <pt x="270" y="300" on="1"/>
        <pt x="275" y="300" on="1"/>
        <pt x="275" y="500" on="1"/>
      </contour>
    </TTGlyph>
    <TTGlyph name="afii10073" xMin="15" yMin="-10" xMax="370" yMax="510">
      <contour>
        <pt x="370" y="140" on="1"/>
        <pt x="370" y="95" on="0"/>
        <pt x="343" y="37" on="0"/>
        <pt x="288" y="3" on="0"/>
        <pt x="203" y="-10" on="0"/>
        <pt x="145" y="-10" on="1"/>
        <pt x="107" y="-10" on="0"/>
        <pt x="38" y="2" on="0"/>
        <pt x="15" y="10" on="1"/>
        <pt x="15" y="60" on="1"/>
        <pt x="145" y="60" on="1"/>
        <pt x="190" y="60" on="0"/>
        <pt x="245" y="96" on="0"/>
        <pt x="245" y="145" on="1"/>
        <pt x="245" y="190" on="0"/>
        <pt x="195" y="225" on="0"/>
        <pt x="165" y="225" on="1"/>
        <pt x="80" y="225" on="1"/>
        <pt x="80" y="295" on="1"/>
        <pt x="155" y="295" on="1"/>
        <pt x="185" y="295" on="0"/>
        <pt x="235" y="329" on="0"/>
        <pt x="235" y="370" on="1"/>
        <pt x="235" y="408" on="0"/>
        <pt x="180" y="440" on="0"/>
        <pt x="135" y="440" on="1"/>
        <pt x="25" y="440" on="1"/>
        <pt x="25" y="490" on="1"/>
        <pt x="48" y="498" on="0"/>
        <pt x="117" y="510" on="0"/>
        <pt x="155" y="510" on="1"/>
        <pt x="206" y="510" on="0"/>
        <pt x="282" y="497" on="0"/>
        <pt x="334" y="466" on="0"/>
        <pt x="360" y="414" on="0"/>
        <pt x="360" y="375" on="1"/>
        <pt x="360" y="349" on="0"/>
        <pt x="345" y="312" on="0"/>
        <pt x="319" y="287" on="0"/>
        <pt x="287" y="272" on="0"/>
        <pt x="270" y="267" on="1"/>
        <pt x="270" y="263" on="1"/>
        <pt x="287" y="258" on="0"/>
        <pt x="322" y="240" on="0"/>
        <pt x="351" y="210" on="0"/>
        <pt x="370" y="168" on="0"/>
      </contour>
    </TTGlyph>
    <TTGlyph name="afii10074" xMin="65" yMin="0" xMax="445" yMax="500">
      <contour>
        <pt x="330" y="315" on="1"/>
        <pt x="325" y="315" on="1"/>
        <pt x="185" y="0" on="1"/>
        <pt x="65" y="0" on="1"/>
        <pt x="65" y="500" on="1"/>
        <pt x="180" y="500" on="1"/>
        <pt x="180" y="195" on="1"/>
        <pt x="185" y="195" on="1"/>
        <pt x="315" y="500" on="1"/>
        <pt x="445" y="500" on="1"/>
        <pt x="445" y="0" on="1"/>
        <pt x="330" y="0" on="1"/>
      </contour>
    </TTGlyph>
    <TTGlyph name="afii10075" xMin="65" yMin="0" xMax="445" yMax="680">
      <contour>
        <pt x="250" y="640" on="1"/>
        <pt x="280" y="640" on="0"/>
        <pt x="325" y="665" on="0"/>
        <pt x="340" y="680" on="1"/>
        <pt x="390" y="630" on="1"/>
        <pt x="367" y="596" on="0"/>
        <pt x="299" y="555" on="0"/>
        <pt x="250" y="555" on="1"/>
        <pt x="201" y="555" on="0"/>
        <pt x="133" y="596" on="0"/>
        <pt x="110" y="630" on="1"/>
        <pt x="160" y="680" on="1"/>
        <pt x="175" y="665" on="0"/>
        <pt x="220" y="640" on="0"/>
      </contour>
      <contour>
        <pt x="330" y="315" on="1"/>
        <pt x="325" y="315" on="1"/>
        <pt x="185" y="0" on="1"/>
        <pt x="65" y="0" on="1"/>
        <pt x="65" y="500" on="1"/>
        <pt x="180" y="500" on="1"/>
        <pt x="180" y="195" on="1"/>
        <pt x="185" y="195" on="1"/>
        <pt x="315" y="500" on="1"/>
        <pt x="445" y="500" on="1"/>
        <pt x="445" y="0" on="1"/>
        <pt x="330" y="0" on="1"/>
      </contour>
    </TTGlyph>
    <TTGlyph name="afii10076" xMin="65" yMin="-10" xMax="460" yMax="510">
      <contour>
        <pt x="294" y="263" on="1"/>
        <pt x="321" y="257" on="0"/>
        <pt x="369" y="215" on="0"/>
        <pt x="380" y="170" on="1"/>
        <pt x="400" y="90" on="1"/>
        <pt x="404" y="75" on="0"/>
        <pt x="434" y="50" on="0"/>
        <pt x="460" y="50" on="1"/>
        <pt x="460" y="0" on="1"/>
        <pt x="452" y="-3" on="0"/>
        <pt x="441" y="-5" on="1"/>
        <pt x="421" y="-10" on="0"/>
        <pt x="395" y="-10" on="1"/>
        <pt x="346" y="-10" on="0"/>
        <pt x="290" y="37" on="0"/>
        <pt x="280" y="75" on="1"/>
        <pt x="255" y="170" on="1"/>
        <pt x="248" y="196" on="0"/>
        <pt x="219" y="225" on="0"/>
        <pt x="200" y="225" on="1"/>
        <pt x="185" y="225" on="1"/>
        <pt x="185" y="0" on="1"/>
        <pt x="65" y="0" on="1"/>
        <pt x="65" y="500" on="1"/>
        <pt x="185" y="500" on="1"/>
        <pt x="185" y="300" on="1"/>
        <pt x="200" y="300" on="1"/>
        <pt x="211" y="300" on="0"/>
        <pt x="231" y="321" on="0"/>
        <pt x="245" y="355" on="1"/>
        <pt x="275" y="430" on="1"/>
        <pt x="290" y="468" on="0"/>
        <pt x="340" y="510" on="0"/>
        <pt x="385" y="510" on="1"/>
        <pt x="398" y="510" on="0"/>
        <pt x="422" y="507" on="0"/>
        <pt x="431" y="505" on="1"/>
        <pt x="442" y="502" on="0"/>
        <pt x="450" y="500" on="1"/>
        <pt x="450" y="450" on="1"/>
        <pt x="424" y="450" on="0"/>
        <pt x="400" y="431" on="0"/>
        <pt x="395" y="420" on="1"/>
        <pt x="370" y="355" on="1"/>
        <pt x="354" y="313" on="0"/>
        <pt x="317" y="273" on="0"/>
        <pt x="294" y="267" on="1"/>
      </contour>
    </TTGlyph>
    <TTGlyph name="afii10077" xMin="0" yMin="-10" xMax="435" yMax="500">
      <contour>
        <pt x="435" y="500" on="1"/>
        <pt x="435" y="0" on="1"/>
        <pt x="315" y="0" on="1"/>
        <pt x="315" y="425" on="1"/>
        <pt x="211" y="425" on="1"/>
        <pt x="195" y="160" on="1"/>
        <pt x="190" y="74" on="0"/>
        <pt x="117" y="-10" on="0"/>
        <pt x="65" y="-10" on="1"/>
        <pt x="39" y="-10" on="0"/>
        <pt x="1" y="0" on="0"/>
        <pt x="0" y="0" on="1"/>
        <pt x="0" y="50" on="1"/>
        <pt x="26" y="50" on="0"/>
        <pt x="71" y="100" on="0"/>
        <pt x="75" y="160" on="1"/>
        <pt x="95" y="500" on="1"/>
      </contour>
    </TTGlyph>
    <TTGlyph name="afii10078" xMin="50" yMin="0" xMax="610" yMax="500">
      <contour>
        <pt x="280" y="75" on="1"/>
        <pt x="191" y="315" on="1"/>
        <pt x="187" y="315" on="1"/>
        <pt x="165" y="0" on="1"/>
        <pt x="50" y="0" on="1"/>
        <pt x="85" y="500" on="1"/>
        <pt x="215" y="500" on="1"/>
        <pt x="328" y="195" on="1"/>
        <pt x="332" y="195" on="1"/>
        <pt x="445" y="500" on="1"/>
        <pt x="575" y="500" on="1"/>
        <pt x="610" y="0" on="1"/>
        <pt x="495" y="0" on="1"/>
        <pt x="473" y="315" on="1"/>
        <pt x="469" y="315" on="1"/>
        <pt x="380" y="75" on="1"/>
      </contour>
    </TTGlyph>
    <TTGlyph name="afii10079" xMin="65" yMin="0" xMax="440" yMax="500">
      <contour>
        <pt x="185" y="0" on="1"/>
        <pt x="65" y="0" on="1"/>
        <pt x="65" y="500" on="1"/>
        <pt x="185" y="500" on="1"/>
        <pt x="185" y="290" on="1"/>
        <pt x="320" y="290" on="1"/>
        <pt x="320" y="500" on="1"/>
        <pt x="440" y="500" on="1"/>
        <pt x="440" y="0" on="1"/>
        <pt x="320" y="0" on="1"/>
        <pt x="320" y="215" on="1"/>
        <pt x="185" y="215" on="1"/>
      </contour>
    </TTGlyph>
    <TTGlyph name="afii10080" xMin="40" yMin="-10" xMax="440" yMax="510">
      <contour>
        <pt x="240" y="445" on="1"/>
        <pt x="223" y="445" on="0"/>
        <pt x="194" y="428" on="0"/>
        <pt x="172" y="384" on="0"/>
        <pt x="160" y="308" on="0"/>
        <pt x="160" y="250" on="1"/>
        <pt x="160" y="192" on="0"/>
        <pt x="172" y="116" on="0"/>
        <pt x="194" y="72" on="0"/>
        <pt x="223" y="55" on="0"/>
        <pt x="240" y="55" on="1"/>
        <pt x="257" y="55" on="0"/>
        <pt x="286" y="72" on="0"/>
        <pt x="308" y="116" on="0"/>
        <pt x="320" y="192" on="0"/>
        <pt x="320" y="250" on="1"/>
        <pt x="320" y="308" on="0"/>
        <pt x="308" y="384" on="0"/>
        <pt x="286" y="428" on="0"/>
        <pt x="257" y="445" on="0"/>
      </contour>
      <contour>
        <pt x="240" y="510" on="1"/>
        <pt x="289" y="510" on="0"/>
        <pt x="363" y="482" on="0"/>
        <pt x="414" y="420" on="0"/>
        <pt x="440" y="321" on="0"/>
        <pt x="440" y="250" on="1"/>
        <pt x="440" y="179" on="0"/>
        <pt x="414" y="80" on="0"/>
        <pt x="363" y="18" on="0"/>
        <pt x="289" y="-10" on="0"/>
        <pt x="240" y="-10" on="1"/>
        <pt x="191" y="-10" on="0"/>
        <pt x="117" y="18" on="0"/>
        <pt x="66" y="80" on="0"/>
        <pt x="40" y="179" on="0"/>
        <pt x="40" y="250" on="1"/>
        <pt x="40" y="321" on="0"/>
        <pt x="66" y="420" on="0"/>
        <pt x="117" y="482" on="0"/>
        <pt x="191" y="510" on="0"/>
      </contour>
    </TTGlyph>
    <TTGlyph name="afii10081" xMin="65" yMin="0" xMax="440" yMax="500">
      <contour>
        <pt x="185" y="0" on="1"/>
        <pt x="65" y="0" on="1"/>
        <pt x="65" y="500" on="1"/>
        <pt x="440" y="500" on="1"/>
        <pt x="440" y="0" on="1"/>
        <pt x="320" y="0" on="1"/>
        <pt x="320" y="425" on="1"/>
        <pt x="185" y="425" on="1"/>
      </contour>
    </TTGlyph>
    <TTGlyph name="afii10082" xMin="65" yMin="-200" xMax="450" yMax="510">
      <contour>
        <pt x="185" y="80" on="1"/>
        <pt x="193" y="72" on="0"/>
        <pt x="221" y="60" on="0"/>
        <pt x="240" y="60" on="1"/>
        <pt x="259" y="60" on="0"/>
        <pt x="292" y="77" on="0"/>
        <pt x="316" y="120" on="0"/>
        <pt x="330" y="194" on="0"/>
        <pt x="330" y="250" on="1"/>
        <pt x="330" y="306" on="0"/>
        <pt x="316" y="380" on="0"/>
        <pt x="292" y="423" on="0"/>
        <pt x="259" y="440" on="0"/>
        <pt x="240" y="440" on="1"/>
        <pt x="221" y="440" on="0"/>
        <pt x="196" y="428" on="0"/>
        <pt x="185" y="420" on="1"/>
      </contour>
      <contour>
        <pt x="280" y="510" on="1"/>
        <pt x="317" y="510" on="0"/>
        <pt x="380" y="482" on="0"/>
        <pt x="425" y="420" on="0"/>
        <pt x="450" y="321" on="0"/>
        <pt x="450" y="250" on="1"/>
        <pt x="450" y="179" on="0"/>
        <pt x="425" y="80" on="0"/>
        <pt x="378" y="18" on="0"/>
        <pt x="311" y="-10" on="0"/>
        <pt x="270" y="-10" on="1"/>
        <pt x="244" y="-10" on="0"/>
        <pt x="201" y="4" on="0"/>
        <pt x="185" y="15" on="1"/>
        <pt x="185" y="-200" on="1"/>
        <pt x="65" y="-200" on="1"/>
        <pt x="65" y="500" on="1"/>
        <pt x="150" y="500" on="1"/>
        <pt x="165" y="470" on="1"/>
        <pt x="170" y="470" on="1"/>
        <pt x="186" y="485" on="0"/>
        <pt x="238" y="510" on="0"/>
      </contour>
    </TTGlyph>
    <TTGlyph name="afii10083" xMin="40" yMin="-10" xMax="380" yMax="510">
      <contour>
        <pt x="260" y="440" on="1"/>
        <pt x="237" y="440" on="0"/>
        <pt x="201" y="423" on="0"/>
        <pt x="174" y="380" on="0"/>
        <pt x="160" y="306" on="0"/>
        <pt x="160" y="250" on="1"/>
        <pt x="160" y="194" on="0"/>
        <pt x="175" y="120" on="0"/>
        <pt x="203" y="77" on="0"/>
        <pt x="244" y="60" on="0"/>
        <pt x="270" y="60" on="1"/>
        <pt x="380" y="60" on="1"/>
        <pt x="380" y="10" on="1"/>
        <pt x="357" y="2" on="0"/>
        <pt x="288" y="-10" on="0"/>
        <pt x="250" y="-10" on="1"/>
        <pt x="197" y="-10" on="0"/>
        <pt x="119" y="18" on="0"/>
        <pt x="66" y="80" on="0"/>
        <pt x="40" y="179" on="0"/>
        <pt x="40" y="250" on="1"/>
        <pt x="40" y="321" on="0"/>
        <pt x="66" y="420" on="0"/>
        <pt x="117" y="482" on="0"/>
        <pt x="191" y="510" on="0"/>
        <pt x="240" y="510" on="1"/>
        <pt x="278" y="510" on="0"/>
        <pt x="347" y="498" on="0"/>
        <pt x="370" y="490" on="1"/>
        <pt x="370" y="440" on="1"/>
      </contour>
    </TTGlyph>
    <TTGlyph name="afii10084" xMin="10" yMin="0" xMax="380" yMax="500">
      <contour>
        <pt x="380" y="500" on="1"/>
        <pt x="380" y="425" on="1"/>
        <pt x="255" y="425" on="1"/>
        <pt x="255" y="0" on="1"/>
        <pt x="135" y="0" on="1"/>
        <pt x="135" y="425" on="1"/>
        <pt x="10" y="425" on="1"/>
        <pt x="10" y="500" on="1"/>
      </contour>
    </TTGlyph>
    <TTGlyph name="afii10085" xMin="20" yMin="-210" xMax="445" yMax="500">
      <contour>
        <pt x="330" y="500" on="1"/>
        <pt x="445" y="500" on="1"/>
        <pt x="350" y="-10" on="1"/>
        <pt x="330" y="-116" on="0"/>
        <pt x="242" y="-210" on="0"/>
        <pt x="170" y="-210" on="1"/>
        <pt x="140" y="-210" on="0"/>
        <pt x="89" y="-198" on="0"/>
        <pt x="70" y="-190" on="1"/>
        <pt x="70" y="-140" on="1"/>
        <pt x="135" y="-140" on="1"/>
        <pt x="154" y="-140" on="0"/>
        <pt x="184" y="-129" on="0"/>
        <pt x="208" y="-100" on="0"/>
        <pt x="227" y="-49" on="0"/>
        <pt x="235" y="-10" on="1"/>
        <pt x="190" y="-10" on="0"/>
        <pt x="122" y="57" on="0"/>
        <pt x="110" y="110" on="1"/>
        <pt x="20" y="500" on="1"/>
        <pt x="135" y="500" on="1"/>
        <pt x="225" y="110" on="1"/>
        <pt x="228" y="97" on="0"/>
        <pt x="236" y="83" on="0"/>
        <pt x="240" y="80" on="1"/>
        <pt x="244" y="76" on="0"/>
        <pt x="250" y="75" on="1"/>
      </contour>
    </TTGlyph>
    <TTGlyph name="afii10086" xMin="35" yMin="-200" xMax="585" yMax="700">
      <contour>
        <pt x="370" y="65" on="1"/>
        <pt x="391" y="69" on="0"/>
        <pt x="425" y="90" on="0"/>
        <pt x="451" y="132" on="0"/>
        <pt x="465" y="199" on="0"/>
        <pt x="465" y="250" on="1"/>
        <pt x="465" y="301" on="0"/>
        <pt x="451" y="368" on="0"/>
        <pt x="425" y="410" on="0"/>
        <pt x="391" y="431" on="0"/>
        <pt x="370" y="435" on="1"/>
      </contour>
      <contour>
        <pt x="370" y="700" on="1"/>
        <pt x="370" y="505" on="1"/>
        <pt x="471" y="494" on="0"/>
        <pt x="585" y="370" on="0"/>
        <pt x="585" y="250" on="1"/>
        <pt x="585" y="130" on="0"/>
        <pt x="471" y="6" on="0"/>
        <pt x="370" y="-5" on="1"/>
        <pt x="370" y="-200" on="1"/>
        <pt x="250" y="-200" on="1"/>
        <pt x="250" y="-5" on="1"/>
        <pt x="149" y="6" on="0"/>
        <pt x="35" y="130" on="0"/>
        <pt x="35" y="250" on="1"/>
        <pt x="35" y="370" on="0"/>
        <pt x="149" y="494" on="0"/>
        <pt x="250" y="505" on="1"/>
        <pt x="250" y="700" on="1"/>
      </contour>
      <contour>
        <pt x="250" y="435" on="1"/>
        <pt x="229" y="431" on="0"/>
        <pt x="195" y="410" on="0"/>
        <pt x="169" y="368" on="0"/>
        <pt x="155" y="301" on="0"/>
        <pt x="155" y="250" on="1"/>
        <pt x="155" y="199" on="0"/>
        <pt x="169" y="132" on="0"/>
        <pt x="195" y="90" on="0"/>
        <pt x="229" y="69" on="0"/>
        <pt x="250" y="65" on="1"/>
      </contour>
    </TTGlyph>
    <TTGlyph name="afii10087" xMin="15" yMin="0" xMax="425" yMax="500">
      <contour>
        <pt x="295" y="500" on="1"/>
        <pt x="420" y="500" on="1"/>
        <pt x="305" y="255" on="1"/>
        <pt x="425" y="0" on="1"/>
        <pt x="300" y="0" on="1"/>
        <pt x="220" y="185" on="1"/>
        <pt x="140" y="0" on="1"/>
        <pt x="15" y="0" on="1"/>
        <pt x="135" y="255" on="1"/>
        <pt x="20" y="500" on="1"/>
        <pt x="145" y="500" on="1"/>
        <pt x="220" y="325" on="1"/>
      </contour>
    </TTGlyph>
    <TTGlyph name="afii10088" xMin="65" yMin="-145" xMax="495" yMax="500">
      <contour>
        <pt x="65" y="0" on="1"/>
        <pt x="65" y="500" on="1"/>
        <pt x="185" y="500" on="1"/>
        <pt x="185" y="75" on="1"/>
        <pt x="315" y="75" on="1"/>
        <pt x="315" y="500" on="1"/>
        <pt x="435" y="500" on="1"/>
        <pt x="435" y="75" on="1"/>
        <pt x="495" y="75" on="1"/>
        <pt x="495" y="-145" on="1"/>
        <pt x="420" y="-145" on="1"/>
        <pt x="405" y="-119" on="0"/>
        <pt x="384" y="-45" on="0"/>
        <pt x="380" y="0" on="1"/>
      </contour>
    </TTGlyph>
    <TTGlyph name="afii10089" xMin="40" yMin="0" xMax="415" yMax="500">
      <contour>
        <pt x="40" y="500" on="1"/>
        <pt x="160" y="500" on="1"/>
        <pt x="160" y="325" on="1"/>
        <pt x="160" y="301" on="0"/>
        <pt x="174" y="268" on="0"/>
        <pt x="197" y="248" on="0"/>
        <pt x="228" y="240" on="0"/>
        <pt x="245" y="240" on="1"/>
        <pt x="295" y="240" on="1"/>
        <pt x="295" y="500" on="1"/>
        <pt x="415" y="500" on="1"/>
        <pt x="415" y="0" on="1"/>
        <pt x="295" y="0" on="1"/>
        <pt x="295" y="180" on="1"/>
        <pt x="276" y="176" on="0"/>
        <pt x="221" y="170" on="0"/>
        <pt x="195" y="170" on="1"/>
        <pt x="163" y="170" on="0"/>
        <pt x="107" y="183" on="0"/>
        <pt x="65" y="218" on="0"/>
        <pt x="40" y="278" on="0"/>
        <pt x="40" y="325" on="1"/>
      </contour>
    </TTGlyph>
    <TTGlyph name="afii10090" xMin="65" yMin="0" xMax="645" yMax="500">
      <contour>
        <pt x="65" y="0" on="1"/>
        <pt x="65" y="500" on="1"/>
        <pt x="185" y="500" on="1"/>
        <pt x="185" y="75" on="1"/>
        <pt x="295" y="75" on="1"/>
        <pt x="295" y="500" on="1"/>
        <pt x="415" y="500" on="1"/>
        <pt x="415" y="75" on="1"/>
        <pt x="525" y="75" on="1"/>
        <pt x="525" y="500" on="1"/>
        <pt x="645" y="500" on="1"/>
        <pt x="645" y="0" on="1"/>
      </contour>
    </TTGlyph>
    <TTGlyph name="afii10091" xMin="65" yMin="-145" xMax="705" yMax="500">
      <contour>
        <pt x="65" y="0" on="1"/>
        <pt x="65" y="500" on="1"/>
        <pt x="185" y="500" on="1"/>
        <pt x="185" y="75" on="1"/>
        <pt x="295" y="75" on="1"/>
        <pt x="295" y="500" on="1"/>
        <pt x="415" y="500" on="1"/>
        <pt x="415" y="75" on="1"/>
        <pt x="525" y="75" on="1"/>
        <pt x="525" y="500" on="1"/>
        <pt x="645" y="500" on="1"/>
        <pt x="645" y="75" on="1"/>
        <pt x="705" y="75" on="1"/>
        <pt x="705" y="-145" on="1"/>
        <pt x="630" y="-145" on="1"/>
        <pt x="615" y="-119" on="0"/>
        <pt x="594" y="-45" on="0"/>
        <pt x="590" y="0" on="1"/>
      </contour>
    </TTGlyph>
    <TTGlyph name="afii10092" xMin="20" yMin="-10" xMax="495" yMax="500">
      <contour>
        <pt x="240" y="310" on="1"/>
        <pt x="259" y="314" on="0"/>
        <pt x="306" y="320" on="0"/>
        <pt x="325" y="320" on="1"/>
        <pt x="362" y="320" on="0"/>
        <pt x="425" y="306" on="0"/>
        <pt x="470" y="270" on="0"/>
        <pt x="495" y="206" on="0"/>
        <pt x="495" y="155" on="1"/>
        <pt x="495" y="104" on="0"/>
        <pt x="469" y="40" on="0"/>
        <pt x="418" y="4" on="0"/>
        <pt x="344" y="-10" on="0"/>
        <pt x="295" y="-10" on="1"/>
        <pt x="238" y="-10" on="0"/>
        <pt x="158" y="-1" on="0"/>
        <pt x="120" y="10" on="1"/>
        <pt x="120" y="425" on="1"/>
        <pt x="20" y="425" on="1"/>
        <pt x="20" y="500" on="1"/>
        <pt x="240" y="500" on="1"/>
      </contour>
      <contour>
        <pt x="295" y="60" on="1"/>
        <pt x="310" y="60" on="0"/>
        <pt x="339" y="69" on="0"/>
        <pt x="361" y="90" on="0"/>
        <pt x="375" y="127" on="0"/>
        <pt x="375" y="155" on="1"/>
        <pt x="375" y="181" on="0"/>
        <pt x="361" y="216" on="0"/>
        <pt x="339" y="237" on="0"/>
        <pt x="310" y="245" on="0"/>
        <pt x="295" y="245" on="1"/>
        <pt x="240" y="245" on="1"/>
        <pt x="240" y="60" on="1"/>
      </contour>
    </TTGlyph>
    <TTGlyph name="afii10093" xMin="65" yMin="-10" xMax="610" yMax="500">
      <contour>
        <pt x="610" y="500" on="1"/>
        <pt x="610" y="0" on="1"/>
        <pt x="490" y="0" on="1"/>
        <pt x="490" y="500" on="1"/>
      </contour>
      <contour>
        <pt x="185" y="310" on="1"/>
        <pt x="204" y="314" on="0"/>
        <pt x="251" y="320" on="0"/>
        <pt x="270" y="320" on="1"/>
        <pt x="306" y="320" on="0"/>
        <pt x="366" y="306" on="0"/>
        <pt x="410" y="270" on="0"/>
        <pt x="435" y="206" on="0"/>
        <pt x="435" y="155" on="1"/>
        <pt x="435" y="104" on="0"/>
        <pt x="409" y="40" on="0"/>
        <pt x="360" y="4" on="0"/>
        <pt x="287" y="-10" on="0"/>
        <pt x="240" y="-10" on="1"/>
        <pt x="183" y="-10" on="0"/>
        <pt x="103" y="-1" on="0"/>
        <pt x="65" y="10" on="1"/>
        <pt x="65" y="500" on="1"/>
        <pt x="185" y="500" on="1"/>
      </contour>
      <contour>
        <pt x="240" y="60" on="1"/>
        <pt x="253" y="60" on="0"/>
        <pt x="280" y="69" on="0"/>
        <pt x="301" y="90" on="0"/>
        <pt x="315" y="127" on="0"/>
        <pt x="315" y="155" on="1"/>
        <pt x="315" y="181" on="0"/>
        <pt x="301" y="216" on="0"/>
        <pt x="280" y="237" on="0"/>
        <pt x="253" y="245" on="0"/>
        <pt x="240" y="245" on="1"/>
        <pt x="185" y="245" on="1"/>
        <pt x="185" y="60" on="1"/>
      </contour>
    </TTGlyph>
    <TTGlyph name="afii10094" xMin="65" yMin="-10" xMax="440" yMax="500">
      <contour>
        <pt x="185" y="310" on="1"/>
        <pt x="204" y="314" on="0"/>
        <pt x="251" y="320" on="0"/>
        <pt x="270" y="320" on="1"/>
        <pt x="307" y="320" on="0"/>
        <pt x="370" y="306" on="0"/>
        <pt x="415" y="270" on="0"/>
        <pt x="440" y="206" on="0"/>
        <pt x="440" y="155" on="1"/>
        <pt x="440" y="104" on="0"/>
        <pt x="414" y="40" on="0"/>
        <pt x="363" y="4" on="0"/>
        <pt x="289" y="-10" on="0"/>
        <pt x="240" y="-10" on="1"/>
        <pt x="183" y="-10" on="0"/>
        <pt x="103" y="-1" on="0"/>
        <pt x="65" y="10" on="1"/>
        <pt x="65" y="500" on="1"/>
        <pt x="185" y="500" on="1"/>
      </contour>
      <contour>
        <pt x="240" y="60" on="1"/>
        <pt x="255" y="60" on="0"/>
        <pt x="284" y="69" on="0"/>
        <pt x="306" y="90" on="0"/>
        <pt x="320" y="127" on="0"/>
        <pt x="320" y="155" on="1"/>
        <pt x="320" y="181" on="0"/>
        <pt x="306" y="216" on="0"/>
        <pt x="284" y="237" on="0"/>
        <pt x="255" y="245" on="0"/>
        <pt x="240" y="245" on="1"/>
        <pt x="185" y="245" on="1"/>
        <pt x="185" y="60" on="1"/>
      </contour>
    </TTGlyph>
    <TTGlyph name="afii10095" xMin="15" yMin="-10" xMax="355" yMax="510">
      <contour>
        <pt x="85" y="220" on="1"/>
        <pt x="85" y="295" on="1"/>
        <pt x="235" y="295" on="1"/>
        <pt x="231" y="377" on="0"/>
        <pt x="180" y="440" on="0"/>
        <pt x="135" y="440" on="1"/>
        <pt x="25" y="440" on="1"/>
        <pt x="25" y="490" on="1"/>
        <pt x="48" y="498" on="0"/>
        <pt x="117" y="510" on="0"/>
        <pt x="155" y="510" on="1"/>
        <pt x="204" y="510" on="0"/>
        <pt x="278" y="482" on="0"/>
        <pt x="329" y="420" on="0"/>
        <pt x="355" y="321" on="0"/>
        <pt x="355" y="250" on="1"/>
        <pt x="355" y="179" on="0"/>
        <pt x="329" y="80" on="0"/>
        <pt x="276" y="18" on="0"/>
        <pt x="197" y="-10" on="0"/>
        <pt x="145" y="-10" on="1"/>
        <pt x="107" y="-10" on="0"/>
        <pt x="38" y="2" on="0"/>
        <pt x="15" y="10" on="1"/>
        <pt x="15" y="60" on="1"/>
        <pt x="125" y="60" on="1"/>
        <pt x="151" y="60" on="0"/>
        <pt x="191" y="75" on="0"/>
        <pt x="218" y="111" on="0"/>
        <pt x="233" y="173" on="0"/>
        <pt x="235" y="220" on="1"/>
      </contour>
    </TTGlyph>
</ttFont>
